<?xml version="1.0" encoding="UTF-8" standalone="no"?>
<!-- Created with Inkscape (http://www.inkscape.org/) -->

<svg
   width="200mm"
   height="200mm"
   viewBox="0 0 200 200"
   version="1.1"
   id="svg8"
   inkscape:version="1.3.2 (091e20ef0f, 2023-11-25, custom)"
   sodipodi:docname="icon.svg"
   xmlns:inkscape="http://www.inkscape.org/namespaces/inkscape"
   xmlns:sodipodi="http://sodipodi.sourceforge.net/DTD/sodipodi-0.dtd"
   xmlns="http://www.w3.org/2000/svg"
   xmlns:svg="http://www.w3.org/2000/svg"
   xmlns:rdf="http://www.w3.org/1999/02/22-rdf-syntax-ns#"
   xmlns:cc="http://creativecommons.org/ns#"
   xmlns:dc="http://purl.org/dc/elements/1.1/">
  <defs
     id="defs2">
    <linearGradient
       x1="24.714942"
       y1="22.898217"
       x2="151.13554"
       y2="148.33669"
       id="linearGradient-1"
       gradientTransform="matrix(1.9048752,0,0,1.9091232,-30.073151,-29.728467)"
       gradientUnits="userSpaceOnUse">
      <stop
         stop-color="#387EB8"
         offset="0%"
         id="stop1" />
      <stop
         stop-color="#366994"
         offset="100%"
         id="stop2" />
    </linearGradient>
    <linearGradient
       x1="102.48342"
       y1="103.26588"
       x2="238.25963"
       y2="231.90547"
       id="linearGradient-2"
       gradientTransform="matrix(1.9048752,0,0,1.9091234,-30.073151,-29.728467)"
       gradientUnits="userSpaceOnUse">
      <stop
         stop-color="#FFE052"
         offset="0%"
         id="stop3" />
      <stop
         stop-color="#FFC331"
         offset="100%"
         id="stop4" />
    </linearGradient>
  </defs>
  <sodipodi:namedview
     id="base"
     pagecolor="#ffffff"
     bordercolor="#666666"
     borderopacity="1.0"
     inkscape:pageopacity="0.0"
     inkscape:pageshadow="2"
     inkscape:zoom="0.66871034"
     inkscape:cx="88.229531"
     inkscape:cy="411.23934"
     inkscape:document-units="mm"
     inkscape:current-layer="layer1"
     showgrid="false"
     scale-x="1"
     inkscape:window-width="2160"
     inkscape:window-height="1382"
     inkscape:window-x="0"
     inkscape:window-y="0"
     inkscape:window-maximized="1"
     inkscape:showpageshadow="2"
     inkscape:pagecheckerboard="0"
     inkscape:deskcolor="#d1d1d1" />
  <metadata
     id="metadata5">
    <rdf:RDF>
      <cc:Work
         rdf:about="">
        <dc:format>image/svg+xml</dc:format>
        <dc:type
           rdf:resource="http://purl.org/dc/dcmitype/StillImage" />
      </cc:Work>
    </rdf:RDF>
  </metadata>
  <g
     id="g2"
     transform="translate(7.2440223,-88.183916)">
    <g
       id="g958-5-7"
       transform="matrix(0,-1.5604483,1.5331623,0,-281.43684,548.21744)"
       style="fill:#ffffff;fill-opacity:1;stroke-width:0.646519">
      <path
         style="fill:#ffffff;fill-opacity:1;stroke:#1c3ed3;stroke-width:3.23259;stroke-linecap:round;stroke-linejoin:round;stroke-miterlimit:4;stroke-dasharray:none;stroke-opacity:1"
         id="path952-4-8"
         sodipodi:type="arc"
         sodipodi:cx="202.42354"
         sodipodi:cy="217.0374"
         sodipodi:rx="20.678787"
         sodipodi:ry="20.678787"
         sodipodi:start="1.3362524"
         sodipodi:end="4.7361119"
         sodipodi:arc-type="arc"
         d="m 207.22928,237.15001 a 20.678787,20.678787 0 0 1 -20.98782,-7.23811 20.678787,20.678787 0 0 1 -2.33587,-22.07764 20.678787,20.678787 0 0 1 19.00846,-11.46983"
         sodipodi:open="true" />
      <path
         style="fill:#ffffff;fill-opacity:1;stroke:#1c3ed3;stroke-width:3.23259;stroke-linecap:butt;stroke-linejoin:miter;stroke-miterlimit:4;stroke-dasharray:none;stroke-opacity:1"
         d="m 207.17363,237.57486 0.0361,44.76668 -7.59445,8.60841 -10.87573,-12.26768 9.03964,-9.14092 -10.35028,-10.25955 10.8718,-10.99951 0.37207,-10.21729 z"
         id="path954-74-6"
         sodipodi:nodetypes="ccccccccc" />
    </g>
    <g
       id="g1"
       transform="translate(12.492803,7.2267915)">
      <path
         id="rect830"
         style="fill:#ffffff;fill-opacity:1;stroke:#1c3ed3;stroke-width:6;stroke-linejoin:round"
         d="m 14.514127,190.77542 85.768863,-85.76886 36.92539,36.92539 -85.768861,85.76886 z" />
      <path
         id="rect830-3"
         style="fill:#ffffff;fill-opacity:1;stroke:#1c3ed3;stroke-width:6.00001;stroke-linejoin:round"
         d="m 43.54178,161.59358 0.604629,-0.60463 36.925392,36.92539 -0.60463,0.60463 z" />
    </g>
  </g>
  <g
     inkscape:label="Layer 1"
     inkscape:groupmode="layer"
     id="layer1"
     transform="translate(0,-97)">
    <g
       id="g5"
       transform="matrix(0.43357302,0,0,0.43357302,13.038913,110.30287)"
       style="stroke-width:1.907">
      <path
         d="M 126.91587,0.07227555 C 62.083583,0.07228017 66.132129,28.187465 66.132129,28.187465 l 0.07227,29.127047 h 61.867881 v 8.745341 H 41.630717 c 0,0 -41.4861659,-4.704909 -41.4861659,60.711467 -4.63e-6,65.41635 36.2100509,63.09655 36.2100509,63.09655 h 21.610389 v -30.35573 c 0,0 -1.164855,-36.21005 35.631847,-36.21005 h 61.361942 c 0,0 34.47544,0.5573 34.47544,-33.31903 V 33.969509 c 0,-5e-6 5.23432,-33.89723345 -62.51835,-33.89723345 z M 92.801807,19.65895 c 6.1554,-5e-6 11.130433,4.975035 11.130433,11.130434 1e-5,6.1554 -4.975033,11.130435 -11.130433,11.130435 -6.1554,5e-6 -11.130435,-4.975035 -11.130435,-11.130435 -5e-6,-6.155399 4.975035,-11.130434 11.130435,-11.130434 z"
         fill="url(#linearGradient-1)"
         id="path4"
         style="fill:url(#linearGradient-1);stroke-width:1.907" />
      <path
         d="m 128.7571,254.12627 c 64.8323,0 60.78374,-28.11519 60.78374,-28.11519 l -0.0723,-29.12705 h -61.86787 v -8.74534 h 86.44156 c 0,0 41.48617,4.7049 41.48617,-60.71148 2e-5,-65.416353 -36.21005,-63.096551 -36.21005,-63.096551 h -21.61039 v 30.355724 c 0,0 1.16487,36.210047 -35.63185,36.210047 h -61.36195 c 0,0 -34.475435,-0.55729 -34.475435,33.31906 v 56.01355 c 0,0 -5.234323,33.89723 62.518355,33.89723 v 0 z m 34.11406,-19.58667 c -6.1554,0 -11.13043,-4.97504 -11.13043,-11.13044 0,-6.1554 4.97503,-11.13043 11.13043,-11.13043 6.1554,0 11.13043,4.97503 11.13043,11.13043 3e-5,6.1554 -4.97503,11.13044 -11.13043,11.13044 z"
         fill="url(#linearGradient-2)"
         id="path5"
         style="fill:url(#linearGradient-2);stroke-width:1.907" />
    </g>
  </g>
</svg>
