<?xml version="1.0" encoding="UTF-8" standalone="no"?>
<svg
   xmlns:dc="http://purl.org/dc/elements/1.1/"
   xmlns:cc="http://creativecommons.org/ns#"
   xmlns:rdf="http://www.w3.org/1999/02/22-rdf-syntax-ns#"
   xmlns:svg="http://www.w3.org/2000/svg"
   xmlns="http://www.w3.org/2000/svg"
   xmlns:xlink="http://www.w3.org/1999/xlink"
   id="svg2408"
   height="96"
   width="96"
   version="1.0">
  <defs
     id="defs2410">
    <linearGradient
       id="linearGradient3983">
      <stop
         offset="0"
         style="stop-color:#ffffff;stop-opacity:1"
         id="stop3985" />
      <stop
         offset="1"
         style="stop-color:#868686;stop-opacity:1"
         id="stop3989" />
    </linearGradient>
    <linearGradient
       id="linearGradient3917">
      <stop
         offset="0"
         style="stop-color:#000000;stop-opacity:1"
         id="stop3919" />
      <stop
         offset="1"
         style="stop-color:#000000;stop-opacity:0"
         id="stop3921" />
    </linearGradient>
    <linearGradient
       id="linearGradient3899">
      <stop
         offset="0"
         style="stop-color:#ffffff;stop-opacity:1"
         id="stop3901" />
      <stop
         offset="0.5"
         style="stop-color:#ffffff;stop-opacity:0.41221374"
         id="stop3981" />
      <stop
         offset="1"
         style="stop-color:#868686;stop-opacity:1"
         id="stop3903" />
    </linearGradient>
    <linearGradient
       id="linearGradient3873">
      <stop
         offset="0"
         style="stop-color:#f0f0f0;stop-opacity:1"
         id="stop3875" />
      <stop
         offset="1"
         style="stop-color:#b4b4b4;stop-opacity:1"
         id="stop3877" />
    </linearGradient>
    <linearGradient
       id="linearGradient3893">
      <stop
         offset="0"
         style="stop-color:#ffffff;stop-opacity:1"
         id="stop3895" />
      <stop
         offset="1"
         style="stop-color:#a2a2a2;stop-opacity:1"
         id="stop3897" />
    </linearGradient>
    <linearGradient
       id="linearGradient3674">
      <stop
         offset="0"
         style="stop-color:#ffffff;stop-opacity:1"
         id="stop3676" />
      <stop
         offset="0.30000001"
         style="stop-color:#ffffff;stop-opacity:1"
         id="stop3684" />
      <stop
         offset="0.89999998"
         style="stop-color:#f0f0f0;stop-opacity:1"
         id="stop3925" />
      <stop
         offset="1"
         style="stop-color:#d2d2d2;stop-opacity:1"
         id="stop3678" />
    </linearGradient>
    <linearGradient
       gradientTransform="scale(1.0058652,0.994169)"
       gradientUnits="userSpaceOnUse"
       id="ButtonShadow"
       y2="7.0165396"
       x2="45.447727"
       y1="92.539597"
       x1="45.447727">
      <stop
         offset="0"
         style="stop-color:#000000;stop-opacity:1"
         id="stop3750" />
      <stop
         offset="1"
         style="stop-color:#000000;stop-opacity:0.58823532"
         id="stop3752" />
    </linearGradient>
    <linearGradient
       id="linearGradient3737">
      <stop
         offset="0"
         style="stop-color:#ffffff;stop-opacity:1"
         id="stop3739" />
      <stop
         offset="1"
         style="stop-color:#ffffff;stop-opacity:0"
         id="stop3741" />
    </linearGradient>
    <linearGradient
       id="linearGradient3700">
      <stop
         offset="0"
         style="stop-color:#1f1f1f;stop-opacity:1"
         id="stop3702" />
      <stop
         offset="1"
         style="stop-color:#2f2f2f;stop-opacity:1"
         id="stop3704" />
    </linearGradient>
    <filter
       id="filter3174"
       color-interpolation-filters="sRGB">
      <feGaussianBlur
         stdDeviation="1.71"
         id="feGaussianBlur3176" />
    </filter>
    <linearGradient
       gradientUnits="userSpaceOnUse"
       xlink:href="#linearGradient3737"
       id="linearGradient3188"
       y2="63.893143"
       x2="36.357143"
       y1="6"
       x1="36.357143" />
    <filter
       id="filter3794"
       color-interpolation-filters="sRGB"
       height="1.3839999"
       width="1.3839999"
       y="-0.192"
       x="-0.192">
      <feGaussianBlur
         stdDeviation="5.28"
         id="feGaussianBlur3796" />
    </filter>
    <linearGradient
       gradientUnits="userSpaceOnUse"
       xlink:href="#linearGradient3737"
       id="linearGradient3613"
       y2="138.66119"
       x2="48"
       y1="20.220806"
       x1="48" />
    <radialGradient
       gradientTransform="matrix(1.1573129,0,0,0.99590774,-7.5510206,0.19713193)"
       gradientUnits="userSpaceOnUse"
       xlink:href="#linearGradient3737"
       id="radialGradient3619"
       fy="90.171875"
       fx="48"
       r="42"
       cy="90.171875"
       cx="48" />
    <clipPath
       id="clipPath3613">
      <rect
         style="fill:#ffffff;fill-opacity:1;fill-rule:nonzero;stroke:none"
         id="rect3615"
         y="6"
         x="6"
         ry="6"
         rx="6"
         height="84"
         width="84" />
    </clipPath>
    <linearGradient
       gradientTransform="matrix(1.0058652,0,0,0.994169,100,0)"
       gradientUnits="userSpaceOnUse"
       id="ButtonShadow-0"
       y2="7.0165396"
       x2="45.447727"
       y1="92.539597"
       x1="45.447727">
      <stop
         offset="0"
         style="stop-color:#000000;stop-opacity:1"
         id="stop3750-8" />
      <stop
         offset="1"
         style="stop-color:#000000;stop-opacity:0.58823532"
         id="stop3752-5" />
    </linearGradient>
    <linearGradient
       gradientTransform="matrix(1.0238095,0,0,1.0119048,-1.1428571,-98.071429)"
       gradientUnits="userSpaceOnUse"
       xlink:href="#ButtonShadow-0"
       id="linearGradient3780"
       y2="90.238609"
       x2="32.251034"
       y1="6.1317081"
       x1="32.251034" />
    <linearGradient
       gradientTransform="matrix(1.0238095,0,0,1.0119048,-1.1428571,-98.071429)"
       gradientUnits="userSpaceOnUse"
       xlink:href="#ButtonShadow-0"
       id="linearGradient3772"
       y2="90.238609"
       x2="32.251034"
       y1="6.1317081"
       x1="32.251034" />
    <linearGradient
       gradientTransform="matrix(1.0238095,0,0,1.0119048,-1.1428571,-98.071429)"
       gradientUnits="userSpaceOnUse"
       xlink:href="#ButtonShadow-0"
       id="linearGradient3725"
       y2="90.238609"
       x2="32.251034"
       y1="6.1317081"
       x1="32.251034" />
    <linearGradient
       gradientTransform="translate(0,-97)"
       gradientUnits="userSpaceOnUse"
       xlink:href="#ButtonShadow-0"
       id="linearGradient3721"
       y2="90.238609"
       x2="32.251034"
       y1="6.1317081"
       x1="32.251034" />
    <linearGradient
       gradientTransform="matrix(1.0238095,0,0,1.0119048,-1.1428571,-98.071429)"
       gradientUnits="userSpaceOnUse"
       xlink:href="#ButtonShadow-0"
       id="linearGradient3026"
       y2="90.238609"
       x2="32.251034"
       y1="6.1317081"
       x1="32.251034" />
    <radialGradient
       gradientUnits="userSpaceOnUse"
       xlink:href="#linearGradient3674"
       id="radialGradient3682"
       fy="48"
       fx="48"
       r="32"
       cy="48"
       cx="48" />
    <radialGradient
       gradientUnits="userSpaceOnUse"
       xlink:href="#linearGradient3893"
       id="radialGradient3901"
       fy="46.058418"
       fx="48.000896"
       r="3"
       cy="46.058418"
       cx="48.000896" />
    <linearGradient
       gradientUnits="userSpaceOnUse"
       xlink:href="#linearGradient3737"
       id="linearGradient3918"
       y2="16"
       x2="56"
       y1="48"
       x1="56" />
    <linearGradient
       gradientUnits="userSpaceOnUse"
       xlink:href="#linearGradient3700"
       id="linearGradient3926"
       y2="5.9877172"
       x2="48"
       y1="90"
       x1="48" />
    <filter
       id="filter3944"
       color-interpolation-filters="sRGB">
      <feGaussianBlur
         stdDeviation="0.4359375"
         id="feGaussianBlur3946" />
    </filter>
    <linearGradient
       gradientUnits="userSpaceOnUse"
       xlink:href="#linearGradient3873"
       id="linearGradient3879"
       y2="48"
       x2="80"
       y1="48"
       x1="16" />
    <linearGradient
       gradientTransform="matrix(0,1,-1,0,96,0)"
       gradientUnits="userSpaceOnUse"
       xlink:href="#linearGradient3899"
       id="linearGradient3905"
       y2="48"
       x2="83"
       y1="48"
       x1="13" />
    <linearGradient
       gradientTransform="matrix(0,1,-1,0,96,0)"
       gradientUnits="userSpaceOnUse"
       xlink:href="#linearGradient3917"
       id="linearGradient3923"
       y2="48"
       x2="120"
       y1="48"
       x1="17" />
    <linearGradient
       gradientUnits="userSpaceOnUse"
       xlink:href="#linearGradient3983"
       id="linearGradient3973"
       y2="60"
       x2="53"
       y1="60"
       x1="43" />
    <radialGradient
       gradientUnits="userSpaceOnUse"
       xlink:href="#linearGradient3674"
       id="radialGradient3979"
       fy="60"
       fx="48"
       r="5"
       cy="60"
       cx="48" />
    <radialGradient
       gradientUnits="userSpaceOnUse"
       gradientTransform="matrix(0.10820723,0.00476373,-0.00566218,0.12861565,12.217989,5.1205198)"
       r="165.84924"
       fy="242.02263"
       fx="165.84924"
       cy="242.02263"
       cx="165.84924"
       id="radialGradient5448"
       xlink:href="#linearGradient5446" />
    <linearGradient
       id="linearGradient5446">
      <stop
         id="stop5442"
         offset="0"
         style="stop-color:#ff46a0;stop-opacity:1" />
      <stop
         id="stop5444"
         offset="1"
         style="stop-color:#fb007a;stop-opacity:0" />
    </linearGradient>
    <radialGradient
       gradientUnits="userSpaceOnUse"
       gradientTransform="matrix(0.09264278,-0.00265647,0.0042169,0.14706201,15.680056,-7.0941828)"
       r="156.14995"
       fy="443.30591"
       fx="524.35657"
       cy="443.30591"
       cx="524.35657"
       id="radialGradient5456"
       xlink:href="#linearGradient5454" />
    <linearGradient
       id="linearGradient5454">
      <stop
         id="stop5450"
         offset="0"
         style="stop-color:#ff46a0;stop-opacity:1;" />
      <stop
         id="stop5452"
         offset="1"
         style="stop-color:#ff007b;stop-opacity:0" />
    </linearGradient>
  </defs>
  <metadata
     id="metadata2413">
    <rdf:RDF>
      <cc:Work
         rdf:about="">
        <dc:format>image/svg+xml</dc:format>
        <dc:type
           rdf:resource="http://purl.org/dc/dcmitype/StillImage" />
        <dc:title></dc:title>
      </cc:Work>
    </rdf:RDF>
  </metadata>
  <g
     style="display:none"
     id="layer2">
    <rect
       style="opacity:0.9;fill:url(#ButtonShadow);fill-opacity:1;fill-rule:nonzero;stroke:none;filter:url(#filter3174)"
       id="rect3745"
       y="7"
       x="5"
       ry="6"
       rx="6"
       height="85"
       width="86" />
  </g>
  <g
     id="layer3">
    <path
       style="opacity:0.07999998;fill:url(#linearGradient3026);fill-opacity:1;fill-rule:nonzero;stroke:none;display:inline"
       id="path3786"
       transform="scale(1,-1)"
       d="m 12,-95.03125 c -5.5110903,0 -10.03125,4.52016 -10.03125,10.03125 l 0,71 c 0,5.5110902 4.5201598,10.03125 10.03125,10.03125 l 72,0 c 5.51109,0 10.03125,-4.5201597 10.03125,-10.03125 l 0,-71 c 0,-5.51109 -4.52016,-10.03125 -10.03125,-10.03125 l -72,0 z" />
    <path
       style="opacity:0.1;fill:url(#linearGradient3780);fill-opacity:1;fill-rule:nonzero;stroke:none;display:inline"
       id="path3778"
       transform="scale(1,-1)"
       d="m 12,-94.03125 c -4.971633,0 -9.03125,4.059617 -9.03125,9.03125 l 0,71 c 0,4.9716329 4.0596171,9.03125 9.03125,9.03125 l 72,0 c 4.971633,0 9.03125,-4.059617 9.03125,-9.03125 l 0,-71 c 0,-4.971633 -4.059617,-9.03125 -9.03125,-9.03125 l -72,0 z" />
    <path
       style="opacity:0.2;fill:url(#linearGradient3772);fill-opacity:1;fill-rule:nonzero;stroke:none;display:inline"
       id="path3770"
       transform="scale(1,-1)"
       d="m 12,-93 c -4.4091333,0 -8,3.590867 -8,8 l 0,71 c 0,4.4091333 3.5908667,8 8,8 l 72,0 c 4.409133,0 8,-3.5908667 8,-8 l 0,-71 c 0,-4.409133 -3.590867,-8 -8,-8 l -72,0 z" />
    <rect
       style="opacity:0.3;fill:url(#linearGradient3725);fill-opacity:1;fill-rule:nonzero;stroke:none;display:inline"
       id="rect3723"
       transform="scale(1,-1)"
       y="-92"
       x="5"
       ry="7"
       rx="7"
       height="85"
       width="86" />
    <rect
       style="opacity:0.45;fill:url(#linearGradient3721);fill-opacity:1;fill-rule:nonzero;stroke:none;display:inline"
       id="rect3716"
       transform="scale(1,-1)"
       y="-91"
       x="6"
       ry="6"
       rx="6"
       height="84"
       width="84" />
  </g>
  <g
     id="layer1">
    <rect
       style="fill:url(#linearGradient3926);fill-opacity:1;fill-rule:nonzero;stroke:none"
       id="rect2419"
       y="6"
       x="6"
       ry="6"
       rx="6"
       height="84"
       width="84" />
    <path
       style="opacity:0.1;color:#000000;fill:url(#linearGradient3918);fill-opacity:1;fill-rule:nonzero;stroke:none;stroke-width:1;marker:none;visibility:visible;display:inline;overflow:visible;enable-background:accumulate"
       id="path3907"
       d="M 12,6 C 8.676,6 6,8.676 6,12 l 0,30.0625 c 12.212492,4.668486 26.585126,7.375 42,7.375 15.414874,0 29.787508,-2.706514 42,-7.375 L 90,12 C 90,8.676 87.324,6 84,6 L 12,6 z" />
    <path
       style="opacity:0.1;fill:url(#radialGradient3619);fill-opacity:1;fill-rule:nonzero;stroke:none"
       id="path3615"
       d="M 12,90 C 8.676,90 6,87.324 6,84 L 6,82 6,14 6,12 c 0,-0.334721 0.04135,-0.6507 0.09375,-0.96875 0.0487,-0.295596 0.09704,-0.596915 0.1875,-0.875 C 6.29113,10.12587 6.302142,10.09265 6.3125,10.0625 6.411365,9.774729 6.5473802,9.515048 6.6875,9.25 6.8320918,8.976493 7.0031161,8.714385 7.1875,8.46875 7.3718839,8.223115 7.5612765,7.995278 7.78125,7.78125 8.221197,7.353194 8.72416,6.966724 9.28125,6.6875 9.559795,6.547888 9.8547231,6.440553 10.15625,6.34375 9.9000482,6.443972 9.6695391,6.580022 9.4375,6.71875 c -0.00741,0.0044 -0.023866,-0.0045 -0.03125,0 -0.031933,0.0193 -0.062293,0.04251 -0.09375,0.0625 -0.120395,0.0767 -0.2310226,0.163513 -0.34375,0.25 -0.1061728,0.0808 -0.2132809,0.161112 -0.3125,0.25 C 8.4783201,7.442683 8.3087904,7.626638 8.15625,7.8125 8.0486711,7.942755 7.9378561,8.077785 7.84375,8.21875 7.818661,8.25713 7.805304,8.30462 7.78125,8.34375 7.716487,8.446782 7.6510225,8.548267 7.59375,8.65625 7.4927417,8.850956 7.3880752,9.071951 7.3125,9.28125 7.30454,9.30306 7.288911,9.3218 7.28125,9.34375 7.2494249,9.4357 7.2454455,9.530581 7.21875,9.625 7.1884177,9.731618 7.1483606,9.828031 7.125,9.9375 7.0521214,10.279012 7,10.635705 7,11 l 0,2 0,68 0,2 c 0,2.781848 2.2181517,5 5,5 l 2,0 68,0 2,0 c 2.781848,0 5,-2.218152 5,-5 l 0,-2 0,-68 0,-2 C 89,10.635705 88.94788,10.279012 88.875,9.9375 88.83085,9.730607 88.78662,9.539842 88.71875,9.34375 88.71105,9.3218 88.69545,9.30306 88.6875,9.28125 88.62476,9.107511 88.549117,8.913801 88.46875,8.75 88.42717,8.6672 88.38971,8.580046 88.34375,8.5 88.28915,8.40279 88.216976,8.31165 88.15625,8.21875 88.06214,8.077785 87.951329,7.942755 87.84375,7.8125 87.700576,7.63805 87.540609,7.465502 87.375,7.3125 87.36383,7.3023 87.35502,7.29135 87.34375,7.28125 87.205364,7.155694 87.058659,7.046814 86.90625,6.9375 86.803679,6.86435 86.701932,6.784136 86.59375,6.71875 c -0.0074,-0.0045 -0.02384,0.0044 -0.03125,0 -0.232039,-0.138728 -0.462548,-0.274778 -0.71875,-0.375 0.301527,0.0968 0.596455,0.204138 0.875,0.34375 0.55709,0.279224 1.060053,0.665694 1.5,1.09375 0.219973,0.214028 0.409366,0.441865 0.59375,0.6875 0.184384,0.245635 0.355408,0.507743 0.5,0.78125 0.14012,0.265048 0.276135,0.524729 0.375,0.8125 0.01041,0.03078 0.02133,0.06274 0.03125,0.09375 0.09046,0.278085 0.1388,0.579404 0.1875,0.875 C 89.95865,11.3493 90,11.665279 90,12 l 0,2 0,68 0,2 c 0,3.324 -2.676,6 -6,6 l -72,0 z" />
    <path
       style="opacity:0.25;fill:url(#linearGradient3188);fill-opacity:1;fill-rule:nonzero;stroke:none"
       id="rect3728"
       d="M 12,6 C 8.676,6 6,8.676 6,12 l 0,2 0,68 0,2 c 0,0.334721 0.04135,0.6507 0.09375,0.96875 0.0487,0.295596 0.09704,0.596915 0.1875,0.875 0.00988,0.03038 0.020892,0.0636 0.03125,0.09375 0.098865,0.287771 0.2348802,0.547452 0.375,0.8125 0.1445918,0.273507 0.3156161,0.535615 0.5,0.78125 0.1843839,0.245635 0.3737765,0.473472 0.59375,0.6875 0.439947,0.428056 0.94291,0.814526 1.5,1.09375 0.278545,0.139612 0.5734731,0.246947 0.875,0.34375 -0.2562018,-0.100222 -0.4867109,-0.236272 -0.71875,-0.375 -0.00741,-0.0044 -0.023866,0.0045 -0.03125,0 -0.031933,-0.0193 -0.062293,-0.04251 -0.09375,-0.0625 -0.120395,-0.0767 -0.2310226,-0.163513 -0.34375,-0.25 -0.1061728,-0.0808 -0.2132809,-0.161112 -0.3125,-0.25 C 8.4783201,88.557317 8.3087904,88.373362 8.15625,88.1875 8.0486711,88.057245 7.9378561,87.922215 7.84375,87.78125 7.818661,87.74287 7.805304,87.69538 7.78125,87.65625 7.716487,87.553218 7.6510225,87.451733 7.59375,87.34375 7.4927417,87.149044 7.3880752,86.928049 7.3125,86.71875 7.30454,86.69694 7.288911,86.6782 7.28125,86.65625 7.2494249,86.5643 7.2454455,86.469419 7.21875,86.375 7.1884177,86.268382 7.1483606,86.171969 7.125,86.0625 7.0521214,85.720988 7,85.364295 7,85 L 7,83 7,15 7,13 C 7,10.218152 9.2181517,8 12,8 l 2,0 68,0 2,0 c 2.781848,0 5,2.218152 5,5 l 0,2 0,68 0,2 c 0,0.364295 -0.05212,0.720988 -0.125,1.0625 -0.04415,0.206893 -0.08838,0.397658 -0.15625,0.59375 -0.0077,0.02195 -0.0233,0.04069 -0.03125,0.0625 -0.06274,0.173739 -0.138383,0.367449 -0.21875,0.53125 -0.04158,0.0828 -0.07904,0.169954 -0.125,0.25 -0.0546,0.09721 -0.126774,0.18835 -0.1875,0.28125 -0.09411,0.140965 -0.204921,0.275995 -0.3125,0.40625 -0.143174,0.17445 -0.303141,0.346998 -0.46875,0.5 -0.01117,0.0102 -0.01998,0.02115 -0.03125,0.03125 -0.138386,0.125556 -0.285091,0.234436 -0.4375,0.34375 -0.102571,0.07315 -0.204318,0.153364 -0.3125,0.21875 -0.0074,0.0045 -0.02384,-0.0044 -0.03125,0 -0.232039,0.138728 -0.462548,0.274778 -0.71875,0.375 0.301527,-0.0968 0.596455,-0.204138 0.875,-0.34375 0.55709,-0.279224 1.060053,-0.665694 1.5,-1.09375 0.219973,-0.214028 0.409366,-0.441865 0.59375,-0.6875 0.184384,-0.245635 0.355408,-0.507743 0.5,-0.78125 0.14012,-0.265048 0.276135,-0.524729 0.375,-0.8125 0.01041,-0.03078 0.02133,-0.06274 0.03125,-0.09375 0.09046,-0.278085 0.1388,-0.579404 0.1875,-0.875 C 89.95865,84.6507 90,84.334721 90,84 l 0,-2 0,-68 0,-2 C 90,8.676 87.324,6 84,6 L 12,6 z" />
  </g>
  <g
     style="display:none"
     id="layer5">
    <rect
       style="opacity:0.1;fill:url(#linearGradient3613);fill-opacity:1;fill-rule:nonzero;stroke:#ffffff;stroke-width:0.5;stroke-linecap:round;stroke-linejoin:miter;stroke-miterlimit:4;stroke-opacity:1;stroke-dasharray:none;stroke-dashoffset:0;filter:url(#filter3794)"
       id="rect3171"
       clip-path="url(#clipPath3613)"
       y="15"
       x="15"
       ry="12"
       rx="12"
       height="66"
       width="66" />
  </g>
  <g
     id="g956"
     transform="translate(0.7531239,-0.26903706)">
    <path
       id="path949-5"
       d="M 35.186666,10.825048 C 24.896068,10.749586 16.377354,18.651605 13.163782,25.878306 6.9800775,39.784263 13.537552,56.068004 27.502857,62.11651 34.486684,65.137284 42.59709,61.925755 45.619739,54.942742 48.642383,47.95973 45.433251,39.848482 38.451046,36.823957 31.467761,33.800105 27.79601,25.469783 31.280452,18.704537 c 2.487867,-4.830338 9.668956,-5.800954 7.771176,-7.474588 -1.310656,-0.265915 -2.601205,-0.395634 -3.864962,-0.404901 z m -6.765061,29.462991 c 0.716553,-0.0055 1.44081,0.06802 2.176607,0.235874 6.298765,1.43688 9.658091,5.781427 11.72097,11.85911 -5.414544,1.019965 -7.692777,1.119839 -11.473882,0.945403 -8.469,-0.390705 -11.049322,-6.078624 -11.579235,-9.752948 3.093217,-1.754603 6.050483,-3.263496 9.15554,-3.287439 z"
       style="fill:#ffffff;fill-opacity:1;stroke:url(#radialGradient5448);stroke-width:2.45621014;stroke-miterlimit:4;stroke-dasharray:none" />
    <path
       id="path949-5-1"
       d="m 63.339546,33.176888 c -4.308741,-0.0164 -8.560374,1.982417 -11.262548,5.75048 -4.434336,6.183488 -3.017558,14.790655 3.164741,19.226656 6.1835,4.435572 8.005693,13.355155 3.166224,19.227925 -3.455346,4.193116 -10.679066,3.619269 -9.179234,5.657189 11.195357,4.916383 23.158423,-1.662408 28.404832,-8.827221 8.991203,-12.278927 6.034835,-29.582708 -6.330755,-38.454368 -2.41589,-1.731516 -5.201248,-2.570149 -7.96326,-2.580661 z m 3.304997,7.111151 c 3.105058,0.02395 6.062324,1.532836 9.155541,3.287439 -0.529912,3.674324 -3.110234,9.362243 -11.579233,9.752948 -3.781106,0.174436 -6.05934,0.07457 -11.473885,-0.945403 2.062879,-6.077683 5.421994,-10.42223 11.720759,-11.85911 0.735797,-0.16785 1.460266,-0.2414 2.176818,-0.235874 z"
       style="fill:#fafafa;fill-opacity:1;stroke:url(#radialGradient5456);stroke-width:2.45621014;stroke-miterlimit:4;stroke-dasharray:none" />
  </g>
</svg>
