<?xml version="1.0" encoding="UTF-8" standalone="no"?>
<!-- Created with Inkscape (http://www.inkscape.org/) -->

<svg
   width="210mm"
   height="297mm"
   viewBox="0 0 210 297"
   version="1.1"
   id="svg1"
   inkscape:version="1.3 (0e150ed, 2023-07-21)"
   sodipodi:docname="True Range.svg"
   xmlns:inkscape="http://www.inkscape.org/namespaces/inkscape"
   xmlns:sodipodi="http://sodipodi.sourceforge.net/DTD/sodipodi-0.dtd"
   xmlns="http://www.w3.org/2000/svg"
   xmlns:svg="http://www.w3.org/2000/svg">
  <sodipodi:namedview
     id="namedview1"
     pagecolor="#ffffff"
     bordercolor="#000000"
     borderopacity="0.25"
     inkscape:showpageshadow="2"
     inkscape:pageopacity="0.0"
     inkscape:pagecheckerboard="0"
     inkscape:deskcolor="#d1d1d1"
     inkscape:document-units="mm"
     inkscape:zoom="0.71713664"
     inkscape:cx="306.77557"
     inkscape:cy="411.35815"
     inkscape:window-width="1519"
     inkscape:window-height="948"
     inkscape:window-x="26"
     inkscape:window-y="23"
     inkscape:window-maximized="0"
     inkscape:current-layer="layer1" />
  <defs
     id="defs1" />
  <g
     inkscape:label="Layer 1"
     inkscape:groupmode="layer"
     id="layer1">
    <rect
       style="fill:#e2e2e2;fill-opacity:1;stroke:none;stroke-width:8.5;stroke-linecap:round;stroke-linejoin:round;stroke-miterlimit:4.2"
       id="rect40"
       width="194.99561"
       height="107.7432"
       x="9.5334578"
       y="6.2691669" />
    <path
       style="fill:#000000;fill-opacity:1;stroke:none;stroke-width:1.79429;stroke-linecap:round;stroke-linejoin:round;stroke-miterlimit:4.2"
       id="path2"
       d="m 38.098114,34.835574 c -0.133515,1.23711 -0.25363,2.471267 -0.267056,3.718023 -0.0057,0.530686 0.0095,1.061394 0.01422,1.592091 0.10676,2.701754 0.237055,5.402852 0.261015,8.107487 0.0134,1.512607 -0.0147,3.097754 -0.0338,4.61029 -0.05258,3.138768 -0.125515,6.277088 -0.171635,9.415981 0.0096,1.359727 -0.100777,2.714674 -0.174263,4.0708 -0.01859,0.264407 -0.03234,0.529245 -0.05578,0.793218 -0.108824,1.225631 -0.273301,2.446168 -0.401625,3.669548 -0.135858,1.29522 -0.163108,1.6472 -0.278233,2.92314 -0.127042,1.72324 -0.332561,3.43475 -0.601688,5.13878 -0.358997,2.27383 2.673883,2.81213 3.03288,0.53829 v 0 c 0.280879,-1.77963 0.496018,-3.56727 0.629928,-5.36676 0.111539,-1.23772 0.139725,-1.59931 0.271426,-2.85516 0.133082,-1.26902 0.302189,-2.534881 0.413947,-3.806361 0.02481,-0.282239 0.03946,-0.565381 0.05918,-0.848075 0.07561,-1.401384 0.188577,-2.801567 0.178932,-4.206652 0.04613,-3.141309 0.11931,-6.282053 0.171733,-9.423241 0.01998,-1.592355 0.04767,-3.129793 0.03338,-4.722873 -0.02416,-2.692869 -0.150671,-5.382488 -0.26049,-8.072362 -0.01077,-0.997319 -0.03699,-1.681944 0.01828,-2.660094 0.04941,-0.874502 0.197086,-1.740594 0.234729,-2.61607 0,-2.305472 -3.07508,-2.305472 -3.07508,0 z" />
    <path
       style="fill:#000000;fill-opacity:1;stroke:none;stroke-width:1.79429;stroke-linecap:round;stroke-linejoin:round;stroke-miterlimit:4.2"
       id="path7"
       d="m 40.068736,47.099342 c 1.170426,-0.135096 2.348815,-0.134284 3.523252,-0.07658 0.941677,0.06977 1.881211,0.145133 2.825619,0.135227 0.411348,-0.01302 0.822947,-0.01941 1.233396,-0.05113 0.488776,-0.06221 0.9674,-0.185113 1.444018,-0.312008 2.108482,-0.563402 1.357005,-3.724978 -0.751481,-3.161572 v 0 c -0.313529,0.08415 -0.627747,0.164608 -0.946315,0.224274 -0.335247,0.03955 -0.676318,0.01615 -1.012773,0.0402 -0.887214,0.01118 -1.769108,-0.07326 -2.654075,-0.132113 -1.368964,-0.06377 -2.74317,-0.06354 -4.106163,0.107524 -2.151572,0.333274 -1.707049,3.559457 0.444522,3.226183 z" />
    <path
       style="fill:#000000;fill-opacity:1;stroke:none;stroke-width:1.79429;stroke-linecap:round;stroke-linejoin:round;stroke-miterlimit:4.2"
       id="path8"
       d="m 38.085727,70.920252 c -0.508449,0 -1.016897,0 -1.525345,0 -0.68441,-0.007 -1.366252,0.0685 -2.045593,0.1474 -0.452176,0.0362 -0.908229,0.11907 -1.362843,0.0923 -0.396469,-0.0294 -0.789417,-0.0947 -1.184683,-0.13928 -0.297765,-0.0327 -0.596812,-0.0478 -0.895821,-0.06 -2.172835,-0.0877 -2.289872,3.17032 -0.117038,3.25806 v 0 c 0.229837,0.009 0.459748,0.0197 0.688677,0.0442 0.476207,0.0533 0.949613,0.13641 1.428642,0.15634 0.594503,0.01 1.187163,-0.0393 1.777804,-0.11059 0.568198,-0.066 1.138354,-0.13503 1.710855,-0.12802 0.508448,0 1.016896,0 1.525345,0 2.174409,0 2.174409,-3.26043 0,-3.26043 z" />
    <path
       style="fill:#000000;fill-opacity:1;stroke:none;stroke-width:1.79429;stroke-linecap:round;stroke-linejoin:round;stroke-miterlimit:4.2"
       id="path9"
       d="m 59.309247,28.791089 c -0.212657,1.058537 -0.258769,2.147667 -0.306418,3.226012 -0.05806,1.797259 -0.0546,3.595952 -0.0572,5.394022 -0.0017,1.771625 0.123336,3.539932 0.103778,5.311608 -0.01055,0.957336 -0.06293,2.105469 -0.100931,3.062811 -0.117923,2.396186 -0.373032,4.780603 -0.559548,7.171029 -0.0901,1.171499 -0.138967,2.345772 -0.155397,3.520855 0.01101,1.162073 -0.01149,2.3211 -0.06744,3.481576 -0.09534,1.263452 -0.191672,2.526598 -0.265918,3.791682 -0.13489,2.301029 2.934264,2.503297 3.069158,0.202265 v 0 c 0.07478,-1.277153 0.174177,-2.552131 0.267848,-3.827832 0.05761,-1.19988 0.08284,-2.398527 0.07111,-3.599996 0.015,-1.101358 0.06108,-2.201938 0.145272,-3.299949 0.189634,-2.434326 0.450329,-4.862479 0.567294,-7.302888 0.04136,-1.047612 0.09316,-2.171274 0.103584,-3.218652 0.01757,-1.763745 -0.101237,-3.523936 -0.103726,-5.287513 0.0024,-1.749447 -10e-4,-3.499479 0.05391,-5.248181 0.04038,-0.936489 0.07305,-1.884582 0.26173,-2.80311 0.382629,-2.269495 -2.644466,-2.843234 -3.027098,-0.573739 z" />
    <path
       style="fill:#000000;fill-opacity:1;stroke:none;stroke-width:1.79429;stroke-linecap:round;stroke-linejoin:round;stroke-miterlimit:4.2"
       id="path10"
       d="m 60.219603,42.755274 c -0.644925,-0.0184 -1.28786,0.03375 -1.930903,0.07771 -0.731523,0.08454 -1.462936,0.166163 -2.1974,0.215657 -0.469141,0.0075 -0.929789,0.109955 -1.395457,0.157268 -0.350041,0.0066 -0.690454,0.09431 -1.035324,0.146189 -0.04263,-0.01007 -0.161365,0.0021 0.0085,-0.01167 -2.153535,-0.318682 -2.578602,2.910442 -0.425064,3.229126 v 0 c 0.291055,0.02878 0.571155,0.05898 0.861967,0.0086 0.30889,-0.04884 0.586046,-0.124811 0.896871,-0.128089 0.428719,-0.04688 0.853408,-0.134214 1.284777,-0.147629 0.734863,-0.05013 1.467567,-0.124857 2.198945,-0.215765 0.577314,-0.03947 1.153983,-0.09014 1.733047,-0.07096 2.174412,0 2.174412,-3.260424 0,-3.260424 z" />
    <path
       style="fill:#000000;fill-opacity:1;stroke:none;stroke-width:1.79429;stroke-linecap:round;stroke-linejoin:round;stroke-miterlimit:4.2"
       id="path11"
       d="m 61.331099,40.501949 c 0.929969,-0.124192 1.855415,-0.270312 2.789898,-0.354272 1.550326,-0.07149 3.094836,-0.231936 4.639826,-0.379726 0.47756,-0.04734 0.955995,-0.08157 1.435059,-0.105297 2.171989,-0.108758 2.026925,-3.365557 -0.145067,-3.256798 v 0 c -0.522842,0.02642 -1.04508,0.0631 -1.566305,0.114855 -1.540687,0.14738 -3.080854,0.306348 -4.626823,0.378512 -1.027213,0.09474 -2.04558,0.249827 -3.067412,0.393118 -2.140521,0.405472 -1.599694,3.615079 0.540824,3.209608 z" />
    <path
       style="fill:#000000;fill-opacity:1;stroke:none;stroke-width:1.79429;stroke-linecap:round;stroke-linejoin:round;stroke-miterlimit:4.2"
       id="path2-5"
       d="m 99.341572,34.956324 c -0.133515,1.23711 -0.25363,2.471267 -0.267056,3.718023 -0.0057,0.530686 0.0095,1.061394 0.01422,1.592091 0.10676,2.701754 0.237055,5.402852 0.261015,8.107487 0.0134,1.512607 -0.0147,3.097754 -0.0338,4.61029 -0.05258,3.138768 -0.125515,6.277088 -0.171635,9.415981 0.0096,1.359727 -0.100777,2.714674 -0.174263,4.0708 -0.01859,0.264407 -0.03234,0.529245 -0.05578,0.793218 -0.108824,1.225631 -0.273301,2.446168 -0.401625,3.669548 -0.135858,1.29522 -0.163108,1.6472 -0.278233,2.92314 -0.127042,1.72324 -0.332561,3.43475 -0.601688,5.13878 -0.358997,2.27383 2.673883,2.81213 3.032883,0.53829 v 0 c 0.28088,-1.77963 0.49602,-3.56727 0.62993,-5.36676 0.11153,-1.23772 0.13972,-1.59931 0.27142,-2.85516 0.13308,-1.26902 0.30219,-2.534881 0.41395,-3.806361 0.0248,-0.282239 0.0395,-0.565381 0.0592,-0.848075 0.0756,-1.401384 0.18858,-2.801567 0.17893,-4.206652 0.0461,-3.141309 0.11931,-6.282053 0.17173,-9.423241 0.02,-1.592355 0.0477,-3.129793 0.0334,-4.722873 -0.0242,-2.692869 -0.15067,-5.382488 -0.26049,-8.072362 -0.0108,-0.997319 -0.037,-1.681944 0.0183,-2.660094 0.0494,-0.874502 0.19709,-1.740594 0.23473,-2.61607 0,-2.305472 -3.075078,-2.305472 -3.075078,0 z" />
    <path
       style="fill:#000000;fill-opacity:1;stroke:none;stroke-width:1.79429;stroke-linecap:round;stroke-linejoin:round;stroke-miterlimit:4.2"
       id="path7-3"
       d="m 101.31219,47.220092 c 1.17043,-0.135096 2.34882,-0.134284 3.52326,-0.07658 0.94167,0.06977 1.88121,0.145133 2.82562,0.135227 0.41134,-0.01302 0.82294,-0.01941 1.23339,-0.05113 0.48878,-0.06221 0.9674,-0.185113 1.44402,-0.312008 2.10848,-0.563402 1.357,-3.724978 -0.75148,-3.161572 v 0 c -0.31353,0.08415 -0.62775,0.164608 -0.94632,0.224274 -0.33524,0.03955 -0.67631,0.01615 -1.01277,0.0402 -0.88721,0.01118 -1.76911,-0.07326 -2.65407,-0.132113 -1.36897,-0.06377 -2.74317,-0.06354 -4.10617,0.107524 -2.15157,0.333274 -1.707047,3.559457 0.44452,3.226183 z" />
    <path
       style="fill:#000000;fill-opacity:1;stroke:none;stroke-width:1.79429;stroke-linecap:round;stroke-linejoin:round;stroke-miterlimit:4.2"
       id="path8-5"
       d="m 99.329185,71.041002 c -0.508449,0 -1.016897,0 -1.525345,0 -0.68441,-0.007 -1.366252,0.0685 -2.045593,0.1474 -0.452176,0.0362 -0.908229,0.11907 -1.362843,0.0923 -0.396469,-0.0294 -0.789417,-0.0947 -1.184683,-0.13928 -0.297765,-0.0327 -0.596812,-0.0478 -0.895821,-0.06 -2.172835,-0.0877 -2.289872,3.17032 -0.117038,3.25806 v 0 c 0.229837,0.009 0.459748,0.0197 0.688677,0.0442 0.476207,0.0533 0.949613,0.13641 1.428642,0.15634 0.594503,0.01 1.187163,-0.0393 1.777804,-0.11059 0.568198,-0.066 1.138354,-0.13503 1.710855,-0.12802 0.508448,0 1.016896,0 1.525345,0 2.174405,0 2.174405,-3.26043 0,-3.26043 z" />
    <path
       style="fill:#000000;fill-opacity:1;stroke:none;stroke-width:1.79429;stroke-linecap:round;stroke-linejoin:round;stroke-miterlimit:4.2"
       id="path9-6"
       d="m 120.55271,28.911839 c -0.21266,1.058537 -0.25877,2.147667 -0.30642,3.226012 -0.0581,1.797259 -0.0546,3.595952 -0.0572,5.394022 -0.002,1.771625 0.12333,3.539932 0.10378,5.311608 -0.0105,0.957336 -0.0629,2.105469 -0.10094,3.062811 -0.11792,2.396186 -0.37303,4.780603 -0.55954,7.171029 -0.0901,1.171499 -0.13897,2.345772 -0.1554,3.520855 0.011,1.162073 -0.0115,2.3211 -0.0674,3.481576 -0.0953,1.263452 -0.19167,2.526598 -0.26592,3.791682 -0.13489,2.301029 2.93427,2.503297 3.06916,0.202265 v 0 c 0.0748,-1.277153 0.17418,-2.552131 0.26785,-3.827832 0.0576,-1.19988 0.0828,-2.398527 0.0711,-3.599996 0.015,-1.101358 0.0611,-2.201938 0.14527,-3.299949 0.18963,-2.434326 0.45033,-4.862479 0.56729,-7.302888 0.0414,-1.047612 0.0932,-2.171274 0.10359,-3.218652 0.0176,-1.763745 -0.10124,-3.523936 -0.10373,-5.287513 0.002,-1.749447 -10e-4,-3.499479 0.0539,-5.248181 0.0404,-0.936489 0.0731,-1.884582 0.26173,-2.80311 0.38263,-2.269495 -2.64446,-2.843234 -3.0271,-0.573739 z" />
    <path
       style="fill:#000000;fill-opacity:1;stroke:none;stroke-width:1.79429;stroke-linecap:round;stroke-linejoin:round;stroke-miterlimit:4.2"
       id="path10-2"
       d="m 121.46306,42.876024 c -0.64492,-0.0184 -1.28786,0.03375 -1.9309,0.07771 -0.73152,0.08454 -1.46294,0.166163 -2.1974,0.215657 -0.46914,0.0075 -0.92979,0.109955 -1.39546,0.157268 -0.35004,0.0066 -0.69045,0.09431 -1.03532,0.146189 -0.0426,-0.01007 -0.16137,0.0021 0.008,-0.01167 -2.15354,-0.318682 -2.5786,2.910442 -0.42507,3.229126 v 0 c 0.29106,0.02878 0.57116,0.05898 0.86197,0.0086 0.30889,-0.04884 0.58605,-0.124811 0.89687,-0.128089 0.42872,-0.04688 0.85341,-0.134214 1.28478,-0.147629 0.73486,-0.05013 1.46757,-0.124857 2.19894,-0.215765 0.57732,-0.03947 1.15399,-0.09014 1.73305,-0.07096 2.17441,0 2.17441,-3.260424 0,-3.260424 z" />
    <path
       style="fill:#000000;fill-opacity:1;stroke:none;stroke-width:1.79429;stroke-linecap:round;stroke-linejoin:round;stroke-miterlimit:4.2"
       id="path11-9"
       d="m 122.57456,40.622699 c 0.92997,-0.124192 1.85541,-0.270312 2.7899,-0.354272 1.55032,-0.07149 3.09483,-0.231936 4.63982,-0.379726 0.47756,-0.04734 0.956,-0.08157 1.43506,-0.105297 2.17199,-0.108758 2.02693,-3.365557 -0.14507,-3.256798 v 0 c -0.52284,0.02642 -1.04508,0.0631 -1.5663,0.114855 -1.54069,0.14738 -3.08086,0.306348 -4.62682,0.378512 -1.02722,0.09474 -2.04558,0.249827 -3.06742,0.393118 -2.14052,0.405472 -1.59969,3.615079 0.54083,3.209608 z" />
    <path
       style="fill:#000000;fill-opacity:1;stroke:none;stroke-width:1.79429;stroke-linecap:round;stroke-linejoin:round;stroke-miterlimit:4.2"
       id="path2-5-0"
       d="m 156.43364,37.538656 c -0.13352,1.23711 -0.25363,2.471267 -0.26706,3.718023 -0.006,0.530686 0.01,1.061394 0.0142,1.592091 0.10676,2.701754 0.23706,5.402852 0.26102,8.107487 0.0134,1.512607 -0.0147,3.097754 -0.0338,4.61029 -0.0526,3.138768 -0.12552,6.277088 -0.17164,9.415981 0.01,1.359727 -0.10078,2.714674 -0.17426,4.0708 -0.0186,0.264407 -0.0323,0.529245 -0.0558,0.793218 -0.10883,1.225631 -0.2733,2.446168 -0.40163,3.669548 -0.13585,1.29522 -0.1631,1.6472 -0.27823,2.92314 -0.12704,1.72324 -0.33256,3.43475 -0.60169,5.13878 -0.35899,2.27383 2.67389,2.81213 3.03289,0.53829 v 0 c 0.28088,-1.77963 0.49602,-3.56727 0.62993,-5.36676 0.11153,-1.23772 0.13972,-1.59931 0.27142,-2.85516 0.13308,-1.26902 0.30219,-2.534881 0.41395,-3.806361 0.0248,-0.282239 0.0395,-0.565381 0.0592,-0.848075 0.0756,-1.401384 0.18858,-2.801567 0.17893,-4.206652 0.0461,-3.141309 0.11931,-6.282053 0.17173,-9.423241 0.02,-1.592355 0.0477,-3.129793 0.0334,-4.722873 -0.0242,-2.692869 -0.15067,-5.382488 -0.26049,-8.072362 -0.0108,-0.997319 -0.037,-1.681944 0.0183,-2.660094 0.0494,-0.874502 0.19709,-1.740594 0.23473,-2.61607 0,-2.305472 -3.07508,-2.305472 -3.07508,0 z" />
    <path
       style="fill:#000000;fill-opacity:1;stroke:none;stroke-width:1.79429;stroke-linecap:round;stroke-linejoin:round;stroke-miterlimit:4.2"
       id="path7-3-9"
       d="m 158.40425,49.802424 c 1.17043,-0.135096 2.34883,-0.134284 3.52326,-0.07658 0.94167,0.06977 1.88121,0.145133 2.82562,0.135227 0.41134,-0.01302 0.82294,-0.01941 1.23339,-0.05113 0.48878,-0.06221 0.9674,-0.185113 1.44402,-0.312008 2.10848,-0.563402 1.357,-3.724978 -0.75148,-3.161572 v 0 c -0.31353,0.08415 -0.62775,0.164608 -0.94632,0.224274 -0.33524,0.03955 -0.67631,0.01615 -1.01277,0.0402 -0.88721,0.01118 -1.76911,-0.07326 -2.65407,-0.132113 -1.36897,-0.06377 -2.74317,-0.06354 -4.10617,0.107524 -2.15157,0.333274 -1.70704,3.559457 0.44452,3.226183 z" />
    <path
       style="fill:#000000;fill-opacity:1;stroke:none;stroke-width:1.79429;stroke-linecap:round;stroke-linejoin:round;stroke-miterlimit:4.2"
       id="path8-5-3"
       d="m 156.42125,73.623334 c -0.50845,0 -1.0169,0 -1.52535,0 -0.68441,-0.007 -1.36625,0.0685 -2.04559,0.1474 -0.45217,0.0362 -0.90823,0.11907 -1.36284,0.0923 -0.39647,-0.0294 -0.78942,-0.0947 -1.18468,-0.13928 -0.29777,-0.0327 -0.59682,-0.0478 -0.89583,-0.06 -2.17283,-0.0877 -2.28987,3.17032 -0.11703,3.25806 v 0 c 0.22983,0.009 0.45975,0.0197 0.68867,0.0442 0.47621,0.0533 0.94962,0.13641 1.42865,0.15634 0.5945,0.01 1.18716,-0.0393 1.7778,-0.11059 0.5682,-0.066 1.13835,-0.13503 1.71085,-0.12802 0.50845,0 1.0169,0 1.52535,0 2.17441,0 2.17441,-3.26043 0,-3.26043 z" />
    <path
       style="fill:#000000;fill-opacity:1;stroke:none;stroke-width:1.79429;stroke-linecap:round;stroke-linejoin:round;stroke-miterlimit:4.2"
       id="path9-6-6"
       d="m 177.64478,31.494171 c -0.21266,1.058537 -0.25877,2.147667 -0.30642,3.226012 -0.0581,1.797259 -0.0546,3.595952 -0.0572,5.394022 -0.002,1.771625 0.12332,3.539932 0.10378,5.311608 -0.0105,0.957336 -0.0629,2.105469 -0.10095,3.062811 -0.11792,2.396186 -0.37303,4.780603 -0.55954,7.171029 -0.0901,1.171499 -0.13897,2.345772 -0.15539,3.520855 0.011,1.162073 -0.0115,2.3211 -0.0674,3.481576 -0.0953,1.263452 -0.19166,2.526598 -0.26592,3.791682 -0.13488,2.301029 2.93427,2.503297 3.06917,0.202265 v 0 c 0.0748,-1.277153 0.17418,-2.552131 0.26784,-3.827832 0.0576,-1.19988 0.0828,-2.398527 0.0711,-3.599996 0.015,-1.101358 0.0611,-2.201938 0.14528,-3.299949 0.18962,-2.434326 0.45032,-4.862479 0.56728,-7.302888 0.0414,-1.047612 0.0932,-2.171274 0.10359,-3.218652 0.0176,-1.763745 -0.10124,-3.523936 -0.10372,-5.287513 0.002,-1.749447 -0.001,-3.499479 0.0539,-5.248181 0.0404,-0.936489 0.0731,-1.884582 0.26173,-2.80311 0.38264,-2.269495 -2.64446,-2.843234 -3.0271,-0.573739 z" />
    <path
       style="fill:#000000;fill-opacity:1;stroke:none;stroke-width:1.79429;stroke-linecap:round;stroke-linejoin:round;stroke-miterlimit:4.2"
       id="path10-2-0"
       d="m 178.55512,45.458356 c -0.64492,-0.0184 -1.28785,0.03375 -1.9309,0.07771 -0.73152,0.08454 -1.46294,0.166163 -2.19739,0.215657 -0.46915,0.0075 -0.92979,0.109955 -1.39547,0.157268 -0.35004,0.0066 -0.69045,0.09431 -1.03531,0.146189 -0.0426,-0.01007 -0.16138,0.0021 0.008,-0.01167 -2.15354,-0.318682 -2.57859,2.910442 -0.42507,3.229126 v 0 c 0.29106,0.02878 0.57116,0.05898 0.86197,0.0086 0.30889,-0.04884 0.58605,-0.124811 0.89687,-0.128089 0.42872,-0.04688 0.85341,-0.134214 1.28478,-0.147629 0.73486,-0.05013 1.46757,-0.124857 2.19894,-0.215765 0.57732,-0.03947 1.15399,-0.09014 1.73305,-0.07096 2.17441,0 2.17441,-3.260424 0,-3.260424 z" />
    <path
       style="fill:#000000;fill-opacity:1;stroke:none;stroke-width:1.79429;stroke-linecap:round;stroke-linejoin:round;stroke-miterlimit:4.2"
       id="path11-9-6"
       d="m 179.66663,43.205031 c 0.92997,-0.124192 1.85541,-0.270312 2.78989,-0.354272 1.55032,-0.07149 3.09483,-0.231936 4.63982,-0.379726 0.47756,-0.04734 0.956,-0.08157 1.43506,-0.105297 2.17199,-0.108758 2.02693,-3.365557 -0.14507,-3.256798 v 0 c -0.52284,0.02642 -1.04508,0.0631 -1.5663,0.114855 -1.54069,0.14738 -3.08086,0.306348 -4.62682,0.378512 -1.02722,0.09474 -2.04558,0.249827 -3.06742,0.393118 -2.14052,0.405472 -1.59969,3.615079 0.54084,3.209608 z" />
    <path
       style="fill:#000000;fill-opacity:1;stroke:none;stroke-width:8.5;stroke-linecap:round;stroke-linejoin:round;stroke-miterlimit:4.2"
       id="path13"
       d="m 56.480966,23.970502 c -0.30443,1.42247 -0.488172,2.871646 -0.674013,4.314356 -0.07073,0.538302 -0.115996,1.079227 -0.157834,1.62034 -0.0544,0.705011 0.942641,0.781933 0.997034,0.07692 v 0 c 0.04035,-0.52415 0.0841,-1.048115 0.152609,-1.569535 0.191299,-1.485775 0.397764,-2.970862 0.682205,-4.442083 0,-0.707107 -1.000001,-0.707107 -1.000001,0 z" />
    <path
       style="fill:#000000;fill-opacity:1;stroke:none;stroke-width:8.5;stroke-linecap:round;stroke-linejoin:round;stroke-miterlimit:4.2"
       id="path14"
       d="m 52.981248,68.100392 c 0.711994,-0.235525 1.451623,-0.325925 2.194251,-0.400746 0.730863,-0.04776 0.795382,0.0043 1.009872,0.642183 -0.0021,0.06212 0.0059,0.125503 -0.0067,0.18637 -0.132006,0.636598 -0.890815,1.433806 -1.299205,1.912758 -0.365053,0.410104 -0.732409,0.819554 -1.078817,1.245788 -0.08367,0.102954 -0.377024,0.45785 -0.41148,0.612597 -0.03677,0.165116 -0.0079,0.338228 -0.01188,0.507341 0.115583,0.136994 0.200469,0.307393 0.346744,0.410983 0.316741,0.224308 1.448385,0.287306 1.88554,0.356875 0.08686,0.015 0.173715,0.03002 0.260573,0.04502 0.696804,0.120264 0.866886,-0.865166 0.170082,-0.98543 v 0 c -0.09149,-0.01577 -0.182989,-0.03155 -0.274482,-0.04733 -0.439094,-0.06902 -0.887621,-0.146372 -1.331108,-0.17913 -0.0387,-0.0029 -0.101034,-0.02993 -0.116279,0.0058 -0.02424,0.05675 0.02418,0.121024 0.03626,0.181536 -0.02788,0.05866 -0.05955,0.115658 -0.08365,0.175967 -0.02167,0.0542 0.04386,-0.109096 0.07632,-0.15761 0.06601,-0.09864 0.142843,-0.189661 0.217693,-0.281778 0.09731,-0.119759 0.572379,-0.675511 0.657823,-0.773124 0.138012,-0.157673 0.278792,-0.312901 0.418188,-0.469352 0.609179,-0.717023 1.482783,-1.635381 1.535242,-2.630511 0.0081,-0.154305 -0.03458,-0.307099 -0.05187,-0.46065 -0.406537,-1.057744 -0.90633,-1.3842 -2.049502,-1.293196 -0.815327,0.08276 -1.626925,0.188105 -2.408409,0.446505 -0.671161,0.222589 -0.356373,1.17175 0.314785,0.949164 z" />
    <path
       style="fill:#000000;fill-opacity:1;stroke:none;stroke-width:8.5;stroke-linecap:round;stroke-linejoin:round;stroke-miterlimit:4.2"
       id="path15"
       d="m 32.830352,89.925654 c -0.0026,0.457811 -0.0048,0.914577 0.02307,1.371599 0.09146,1.183082 0.118441,2.369646 0.140735,3.55563 0.0021,0.908013 0.05958,1.817071 -0.02952,2.72215 -0.01024,0.08849 -0.02048,0.17699 -0.03071,0.265488 -0.08104,0.702448 0.912373,0.817052 0.993412,0.114604 v 0 c 0.01087,-0.09444 0.02175,-0.188894 0.0326,-0.283339 0.09072,-0.943849 0.04079,-1.89088 0.03404,-2.837715 -0.02262,-1.200862 -0.05015,-2.402297 -0.142571,-3.600233 -0.02907,-0.435705 -0.02125,-0.871619 -0.02106,-1.308184 0,-0.707105 -1.000001,-0.707105 -1.000001,0 z" />
    <path
       style="fill:#000000;fill-opacity:1;stroke:none;stroke-width:8.5;stroke-linecap:round;stroke-linejoin:round;stroke-miterlimit:4.2"
       id="path16"
       d="m 37.965189,94.115241 c 0.987735,0.03566 1.968831,-0.09868 2.954652,-0.123434 0.659284,-0.0329 1.309347,0.04332 1.959364,0.139957 0.69944,0.103851 0.846307,-0.885304 0.146868,-0.989156 v 0 c -0.707208,-0.104872 -1.415632,-0.183938 -2.132552,-0.150455 -0.977128,0.02681 -1.94944,0.155371 -2.928332,0.123087 -0.707107,0 -0.707107,1.000001 0,1.000001 z" />
    <path
       style="fill:#000000;fill-opacity:1;stroke:none;stroke-width:8.5;stroke-linecap:round;stroke-linejoin:round;stroke-miterlimit:4.2"
       id="path17"
       d="m 47.9689,90.371778 c 0.46868,-0.10337 0.729548,-0.0529 1.174048,0.09517 0.446694,0.173217 0.643083,0.376693 0.578536,0.871231 -0.116502,0.778179 -0.520415,1.486471 -0.958041,2.127861 -0.546772,0.79321 -1.25499,1.441865 -1.917377,2.132936 -0.638098,0.600125 -1.367914,1.092239 -2.090293,1.583907 -0.180271,0.135699 -1.195578,0.565094 -0.974839,0.97215 0.33188,0.612008 0.682763,0.447889 1.109372,0.35878 0.841494,-0.213087 1.640612,-0.313494 2.505011,-0.249576 0.588963,0.07104 1.157417,0.234929 1.698183,0.475308 0.759063,0.320159 1.441712,0.7898 2.134714,1.229429 0.624901,0.425356 1.320541,0.617896 2.066904,0.654066 0.598231,-0.0726 1.240012,-0.25425 1.700715,-0.669118 0.09469,-0.08527 0.173461,-0.186716 0.260191,-0.280075 0.258422,-0.411096 0.52191,-0.927052 0.43964,-1.433388 -0.01662,-0.102298 -0.06297,-0.197482 -0.09446,-0.296222 -0.05406,-0.08082 -0.108128,-0.161634 -0.16219,-0.242451 -0.427135,-0.56352 -1.224074,0.04054 -0.796941,0.60406 v 0 c 0.01085,0.0048 0.0217,0.0096 0.03254,0.01445 0.160057,-0.03093 -0.13254,0.636757 -0.176226,0.700879 -0.259249,0.369294 -0.745564,0.513 -1.166717,0.602527 -0.570733,-0.01056 -1.092409,-0.177948 -1.567773,-0.499155 -0.735787,-0.466757 -1.462291,-0.961855 -2.268709,-1.300784 -0.64756,-0.281014 -1.323811,-0.481364 -2.02842,-0.556974 -0.951881,-0.06628 -1.861664,0.03301 -2.787608,0.269568 -0.635889,0.143557 -0.0098,-0.08644 0.0987,0.540276 0.02687,0.155266 -0.187071,0.262694 -0.225367,0.415542 -0.01415,0.0565 0.09631,-0.06556 0.145497,-0.09676 0.205703,-0.130492 0.416751,-0.252449 0.620586,-0.385942 0.779783,-0.531106 1.566667,-1.064117 2.249704,-1.718826 0.700784,-0.732343 1.44848,-1.422 2.023729,-2.264714 0.539383,-0.804672 1.026422,-1.685663 1.129224,-2.665151 -0.003,-0.152355 0.0132,-0.306318 -0.0091,-0.457059 -0.104415,-0.70544 -0.621205,-1.15756 -1.25929,-1.387555 -0.574066,-0.183959 -1.068969,-0.261874 -1.663895,-0.128069 -0.695561,0.127254 -0.515599,1.110927 0.179961,0.983676 z" />
    <path
       style="fill:#000000;fill-opacity:1;stroke:none;stroke-width:8.5;stroke-linecap:round;stroke-linejoin:round;stroke-miterlimit:4.2"
       id="path18"
       d="m 117.83377,25.320171 c 0,0.459844 0,0.919689 0,1.379533 0,0.612302 0,1.224606 0,1.836907 0,0.638657 0,1.277311 0,1.915965 0.0232,0.451622 0.0861,0.899731 0.12976,1.349576 0.0684,0.703791 1.06369,0.607099 0.99532,-0.09669 v 0 c -0.0407,-0.417756 -0.0967,-0.834017 -0.12508,-1.252884 0,-0.638654 0,-1.277308 0,-1.915965 0,-0.612301 0,-1.224605 0,-1.836907 0,-0.459844 0,-0.919689 0,-1.379533 0,-0.707107 -1,-0.707107 -1,0 z" />
    <path
       style="fill:#000000;fill-opacity:1;stroke:none;stroke-width:8.5;stroke-linecap:round;stroke-linejoin:round;stroke-miterlimit:4.2"
       id="path19"
       d="m 107.30053,40.54952 c 0.1148,-0.03494 0.62788,-0.244361 0.70299,-0.156075 -0.005,0.0056 -0.0203,0.01135 -0.0151,0.01688 0.0226,0.02432 0.0569,0.03463 0.0826,0.05569 0.0804,0.06588 0.1187,0.202576 0.15473,0.29274 0.14504,0.318088 0.0307,0.55276 -0.0897,0.854504 -0.11136,0.245869 -0.24609,0.436589 -0.48431,0.562851 -0.47674,0.19231 -0.49958,0.113683 -0.14742,1.067951 0.0238,0.06437 0.49338,0.0191 0.50556,0.01839 0.2974,-0.04015 0.5947,-0.08021 0.89296,-0.113421 0.70274,-0.07847 0.59177,-1.072293 -0.11097,-0.993823 v 0 c -0.29154,0.03264 -0.58238,0.07028 -0.87285,0.111382 -0.39537,0.07843 -0.15704,0.04227 -0.13237,0.934238 5.3e-4,0.0163 0.0294,-0.01429 0.0444,-0.02048 0.0437,-0.01797 0.0885,-0.0333 0.13187,-0.05204 0.0642,-0.02775 0.12725,-0.05826 0.19088,-0.0874 0.42414,-0.25623 0.71823,-0.600766 0.912,-1.05959 0.22262,-0.565984 0.32764,-1.03768 0.0778,-1.619282 -0.20082,-0.446945 -0.46813,-0.790585 -0.95026,-0.950383 -0.46583,-0.06135 -0.82543,0.0371 -1.25782,0.206833 -0.65834,0.258032 -0.29343,1.189074 0.36491,0.931042 z" />
    <path
       style="fill:#000000;fill-opacity:1;stroke:none;stroke-width:6.33688;stroke-linecap:round;stroke-linejoin:round;stroke-miterlimit:4.2"
       id="path20"
       d="m 92.611992,94.647234 c -1.202738,-0.0037 -2.405889,0.03871 -3.606657,0.105697 -0.787618,0.101931 -1.707951,0.193372 -2.314848,0.773894 -0.08273,0.07913 -0.144901,0.177277 -0.217351,0.265914 -0.03985,0.106464 -0.09914,0.207561 -0.119542,0.319392 -0.08648,0.474021 0.172648,0.917302 0.582495,1.140779 0.118418,0.06457 0.251565,0.09738 0.377345,0.146074 0.883231,0.240843 1.462328,0.168442 2.28363,-0.209774 0.522308,-0.28029 0.892313,-0.728318 1.201879,-1.221111 -0.869238,0.531863 0.488872,-0.176801 -0.692621,-0.153081 -0.112257,0.0022 -0.02524,0.223383 -0.02887,0.335607 -0.01286,0.398121 0.03754,0.78232 0.104326,1.173173 0.09972,0.495839 0.293298,0.837999 0.725489,1.100571 0.462123,0.253651 0.82084,-0.399889 0.358716,-0.653539 v 0 c -0.234665,-0.07461 -0.297289,-0.370262 -0.349773,-0.575103 -0.05539,-0.310147 -0.06915,-0.336682 -0.08808,-0.662755 -0.02349,-0.404749 0.115777,-0.848071 -0.341504,-1.136108 -0.102693,-0.06468 -0.212826,0.116723 -0.319239,0.175086 -0.232383,0.371084 -0.49763,0.721867 -0.886572,0.942143 -0.611177,0.292608 -1.047672,0.360059 -1.715737,0.183132 -0.251061,-0.07784 -0.500233,-0.140731 -0.499952,-0.451344 0.412556,-0.620857 1.32089,-0.647691 1.981827,-0.748599 1.186892,-0.06654 2.376188,-0.108024 3.565035,-0.104535 0.527159,0 0.527159,-0.745513 0,-0.745513 z" />
    <path
       style="fill:#000000;fill-opacity:1;stroke:none;stroke-width:6.33688;stroke-linecap:round;stroke-linejoin:round;stroke-miterlimit:4.2"
       id="path21"
       d="m 92.009142,90.70374 c 0.0096,0.934607 0.07945,1.867882 0.143737,2.800072 0.102383,0.902602 0.159578,1.812678 0.296085,2.711122 0.06906,0.371819 0.103758,0.748163 0.191075,1.116247 0.122159,0.512809 0.847382,0.340051 0.725223,-0.17276 v 0 c -0.08331,-0.348022 -0.111386,-0.705255 -0.179416,-1.056622 -0.136308,-0.877378 -0.185789,-1.767823 -0.289219,-2.649283 -0.06311,-0.915119 -0.13205,-1.831306 -0.14197,-2.748776 0,-0.527158 -0.745515,-0.527158 -0.745515,0 z" />
    <path
       style="fill:#000000;fill-opacity:1;stroke:none;stroke-width:6.33688;stroke-linecap:round;stroke-linejoin:round;stroke-miterlimit:4.2"
       id="path22"
       d="m 93.467252,95.971578 c 0.410059,-0.205188 0.853523,-0.290584 1.301612,-0.367619 0.345163,-0.0587 0.641923,-0.107499 0.85324,0.20828 0.02044,0.04363 0.05959,0.09465 0.03906,0.148484 -0.0076,0.01994 -0.03177,0.02971 -0.04159,0.04865 -0.125733,0.242831 -0.225272,0.504232 -0.343202,0.751348 -0.214765,0.407797 -0.358149,0.87146 -0.703998,1.191464 -0.282318,0.184365 -0.626537,0.203185 -0.953638,0.226434 -0.696542,0.04044 -0.431494,-0.285637 -0.401902,0.659168 0.504305,-0.153533 0.287177,-0.866729 -0.217128,-0.713197 v 0 c -0.03987,0.23857 -0.131158,0.474107 -0.119606,0.71571 0.0026,0.05519 0.10264,0.04221 0.15645,0.05475 0.206859,0.0482 0.427026,0.03619 0.636785,0.02708 0.50586,-0.03815 1.014253,-0.102825 1.420354,-0.437009 0.395068,-0.398828 0.622652,-0.898137 0.855606,-1.403516 0.18613,-0.390613 0.464922,-0.832876 0.439646,-1.282509 -0.01065,-0.189439 -0.09637,-0.299882 -0.185463,-0.453551 -0.463403,-0.540025 -0.877715,-0.588665 -1.561552,-0.476225 -0.487602,0.08464 -0.975264,0.17785 -1.422564,0.399151 -0.497165,0.175284 -0.249277,0.878381 0.247887,0.703097 z" />
    <path
       style="fill:#000000;fill-opacity:1;stroke:none;stroke-width:6.33688;stroke-linecap:round;stroke-linejoin:round;stroke-miterlimit:4.2"
       id="path23"
       d="m 99.825829,94.544625 c -0.670009,-0.0243 -1.333936,0.02541 -1.996505,0.121835 -0.395727,0.0736 -0.790241,0.166136 -1.166103,0.31284 -0.148521,0.05797 -0.514444,0.196107 -0.55877,0.39205 -0.04524,0.199961 0.04073,0.407997 0.0611,0.611996 0.125361,0.129164 0.238733,0.271157 0.37608,0.387493 0.208734,0.1768 0.863627,0.59698 1.081891,0.74394 0.478718,0.322324 0.947483,0.653931 1.405803,1.004435 0.103292,0.08883 0.418853,0.35806 0.531836,0.462646 0.05666,0.05244 0.115257,0.103534 0.164684,0.162833 0.01409,0.01695 0.03027,0.08284 0.02281,0.06209 -0.08649,-0.240856 -0.08636,-0.121152 -0.01439,-0.353379 -0.508076,0.07088 -1.022735,0.06835 -1.534651,0.07008 -0.178923,0.0072 -0.357146,-0.0042 -0.534817,-0.02313 -0.524388,-0.05399 -0.600737,0.687607 -0.07635,0.741595 v 0 c 0.203973,0.02038 0.408468,0.0346 0.613731,0.02705 0.621335,-0.0022 1.258914,0.02072 1.862182,-0.147134 0.11288,-0.10343 0.27394,-0.171537 0.33865,-0.310291 0.22794,-0.488695 -0.652651,-1.029836 -0.921088,-1.284774 -0.85946,-0.655919 -1.777256,-1.226415 -2.645576,-1.868799 -0.04973,0.05948 -0.08894,0.129645 -0.149203,0.178426 -0.01215,0.0098 -0.03031,-0.03457 -0.01748,-0.04349 0.320701,-0.222896 0.898218,-0.291145 1.267874,-0.388851 0.626665,-0.0927 1.254471,-0.137184 1.888323,-0.113942 0.52715,0 0.52715,-0.745516 0,-0.745516 z" />
    <path
       style="fill:#000000;fill-opacity:1;stroke:none;stroke-width:6.33688;stroke-linecap:round;stroke-linejoin:round;stroke-miterlimit:4.2"
       id="path24"
       d="m 106.89097,89.126656 c -0.57602,0.277362 -1.12956,0.619323 -1.60523,1.049722 -0.13432,0.121534 -0.25628,0.256062 -0.38442,0.384091 -0.6808,0.647563 -1.16843,1.435742 -1.54007,2.29093 -0.39748,1.043184 -0.43564,2.179294 -0.45353,3.283154 -0.025,1.120477 0.25316,2.183845 0.65978,3.216304 0.35244,0.819983 0.76972,1.631513 1.35319,2.314243 0.11238,0.13151 0.23596,0.25302 0.35394,0.37953 0.50188,0.47738 1.06267,0.88513 1.65014,1.24948 0.44838,0.27725 0.84045,-0.35684 0.39208,-0.63409 v 0 c -0.5328,-0.32831 -1.03984,-0.69824 -1.49847,-1.12541 -0.67429,-0.71414 -1.19362,-1.543094 -1.55759,-2.457863 -0.37352,-0.940737 -0.63045,-1.908177 -0.60764,-2.930639 0.0148,-1.006004 0.0421,-2.044985 0.39259,-2.999303 0.33044,-0.771821 0.77123,-1.478766 1.38459,-2.061035 0.51203,-0.520429 1.086,-0.971277 1.75546,-1.274365 0.48418,-0.208464 0.18937,-0.893211 -0.29482,-0.684749 z" />
    <path
       style="fill:#000000;fill-opacity:1;stroke:none;stroke-width:6.33688;stroke-linecap:round;stroke-linejoin:round;stroke-miterlimit:4.2"
       id="path25"
       d="m 107.73543,93.155163 c 0.15306,0.972202 0.36023,1.935271 0.52531,2.905717 0.10282,0.62991 0.25501,1.248914 0.42937,1.862292 0.0485,0.213607 0.11455,0.422595 0.17629,0.63259 0.14869,0.505755 0.86393,0.295476 0.71524,-0.210279 v 0 c -0.0611,-0.207926 -0.12678,-0.41475 -0.17448,-0.626347 -0.16732,-0.587338 -0.31316,-1.180041 -0.41148,-1.783341 -0.1628,-0.956044 -0.36498,-1.905156 -0.51923,-2.862366 -0.0578,-0.52398 -0.79881,-0.442247 -0.74102,0.08173 z" />
    <path
       style="fill:#000000;fill-opacity:1;stroke:none;stroke-width:6.33688;stroke-linecap:round;stroke-linejoin:round;stroke-miterlimit:4.2"
       id="path26"
       d="m 112.89288,96.288284 c 0.35868,-0.0094 0.71798,0.02972 1.06991,0.09773 0.33851,0.08533 0.66972,0.183895 1.01607,0.235959 0.14982,0.02117 0.30073,0.03133 0.45162,0.0408 0.52614,0.03262 0.57227,-0.711464 0.0461,-0.744085 v 0 c -0.12972,-0.0079 -0.25947,-0.01637 -0.38831,-0.03416 -0.3371,-0.04924 -0.65664,-0.155073 -0.98783,-0.231209 -0.39786,-0.07312 -0.8024,-0.121704 -1.20758,-0.110558 -0.52716,0 -0.52716,0.745516 0,0.745516 z" />
    <path
       style="fill:#000000;fill-opacity:1;stroke:none;stroke-width:6.33688;stroke-linecap:round;stroke-linejoin:round;stroke-miterlimit:4.2"
       id="path27"
       d="m 119.63119,91.860568 c 0.45752,0.02497 0.90394,0.07997 1.31515,0.289866 0.0528,0.04711 0.11169,0.08811 0.15828,0.141332 0.13889,0.158649 0.38976,0.544205 0.48468,0.695503 0.29299,0.467023 0.54144,0.949605 0.77951,1.446048 0.11381,0.316872 0.32711,0.659656 0.27976,1.014919 -0.0403,0.302612 -0.30344,0.638201 -0.46921,0.875522 -0.48917,0.681334 -1.1186,1.240827 -1.75774,1.776731 -0.39351,0.30996 -0.8068,0.595907 -1.26103,0.809088 -0.1265,0.0573 -0.70404,0.325726 -0.67703,0.507639 0.0937,0.631324 0.20172,0.533516 0.62825,0.563206 0.4649,-0.01373 0.93003,-0.131513 1.3966,-0.106126 0.28645,0.01558 0.41269,0.07293 0.68927,0.156564 0.61036,0.25331 1.18951,0.57385 1.79242,0.84353 0.35231,0.17504 0.71082,0.19875 1.09306,0.15419 0.52202,-0.0735 0.41809,-0.81173 -0.10392,-0.73824 v 0 c -0.24256,0.0462 -0.46083,0.0146 -0.68557,-0.0969 -0.6346,-0.281896 -1.23985,-0.627855 -1.88841,-0.878657 -0.41073,-0.115157 -0.4983,-0.165424 -0.92132,-0.185643 -0.46682,-0.02231 -0.93176,0.08599 -1.39655,0.106125 -0.15696,0.1642 0.0495,-0.0731 0.0678,0.505322 10e-4,0.03816 -0.0827,0.03611 -0.0874,0.07399 -0.004,0.03532 0.0561,-0.04406 0.0861,-0.06322 0.0444,-0.02837 0.0901,-0.05499 0.13692,-0.07915 0.0623,-0.03215 0.12691,-0.05976 0.19037,-0.08964 0.50879,-0.245161 0.97929,-0.557066 1.41947,-0.910916 0.69118,-0.579817 1.3679,-1.188674 1.89434,-1.927538 0.28216,-0.420669 0.56251,-0.83012 0.59663,-1.3561 0.0292,-0.450483 -0.19037,-0.874573 -0.35086,-1.277572 -0.25356,-0.52696 -0.51736,-1.040662 -0.83043,-1.535618 -0.16642,-0.263105 -0.41064,-0.636032 -0.63515,-0.861336 -0.0897,-0.08999 -0.20108,-0.155305 -0.30163,-0.232959 -0.51974,-0.246465 -1.06767,-0.348138 -1.64239,-0.365531 -0.52716,0 -0.52716,0.745516 0,0.745516 z" />
    <path
       style="fill:#000000;fill-opacity:1;stroke:none;stroke-width:6.33688;stroke-linecap:round;stroke-linejoin:round;stroke-miterlimit:4.2"
       id="path28"
       d="m 123.184,86.548303 c 0.22474,1.065385 0.64658,2.078543 1.02855,3.094805 0.54409,1.569755 1.13777,3.121466 1.70527,4.682845 0.27004,0.897152 0.76898,1.840709 0.8213,2.792185 0.008,0.153276 -0.007,0.306925 -0.0111,0.460386 -0.21379,1.260528 -0.7071,2.465676 -1.29768,3.594356 -0.38511,0.69209 -0.89154,1.28801 -1.48964,1.802 -0.29635,0.26895 -0.62187,0.50211 -0.95109,0.72837 -0.43403,0.29918 -0.0109,0.913 0.42311,0.61382 v 0 c 0.35085,-0.24244 0.69877,-0.49073 1.01517,-0.77788 0.66699,-0.57816 1.23554,-1.24492 1.66349,-2.02162 0.6406,-1.23238 1.18132,-2.547112 1.38208,-3.928463 10e-4,-0.19238 0.0163,-0.385171 0.004,-0.577139 -0.0674,-1.02473 -0.5599,-1.976208 -0.85856,-2.940709 -0.56857,-1.563866 -1.16302,-3.118166 -1.70807,-4.690451 -0.36172,-0.962324 -0.75877,-1.92104 -0.98677,-2.925952 -0.0661,-0.523002 -0.80572,-0.429554 -0.73964,0.09345 z" />
    <path
       style="fill:#000000;fill-opacity:1;stroke:none;stroke-width:8.5;stroke-linecap:round;stroke-linejoin:round;stroke-miterlimit:4.2"
       id="path29"
       d="m 182.26578,66.865102 c 0,0.967902 0,1.9358 0,2.903702 0,0.292531 0,0.58506 0,0.877591 0,0.707107 1,0.707107 1,0 v 0 c 0,-0.292531 0,-0.58506 0,-0.877591 0,-0.967902 0,-1.9358 0,-2.903702 0,-0.707107 -1,-0.707107 -1,0 z" />
    <circle
       id="path30"
       style="fill:#000000;stroke:#000000;stroke-width:0.264583"
       cx="235.70564"
       cy="175.05342"
       r="0.27909124" />
    <path
       style="fill:#000000;fill-opacity:1;stroke:none;stroke-width:8.5;stroke-linecap:round;stroke-linejoin:round;stroke-miterlimit:4.2"
       id="path31"
       d="m 163.8011,41.81553 c 0.2916,-0.136766 0.62351,-0.198228 0.93817,-0.267983 0.18417,-0.01349 0.4045,-0.115316 0.58885,-0.04061 0.0429,0.01738 0.0713,0.05908 0.10839,0.08686 0.14852,0.139292 0.22516,0.329329 0.27902,0.521517 -0.0322,0.204214 -0.13123,0.400008 -0.22404,0.583631 -0.16137,0.330671 -0.3999,0.516573 -0.68756,0.727959 -0.18585,0.173781 -0.90416,0.523248 -0.92706,0.794004 -0.0172,0.203168 0.0634,0.402826 0.0951,0.60424 0.11481,0.06941 0.22065,0.156485 0.34443,0.208237 0.0893,0.03734 0.18972,0.03856 0.2851,0.05498 0.30356,0.05224 0.61084,0.07586 0.91411,0.129342 0.31165,0.06476 0.62517,0.117736 0.94217,0.146989 0.22933,-0.01016 0.12288,0.0024 0.31996,-0.03182 0.69427,-0.134104 0.50462,-1.115957 -0.18965,-0.98185 v 0 c -0.0115,0.0031 -0.0229,0.0062 -0.0344,0.0094 -0.002,0.0028 -0.004,0.0056 -0.006,0.0084 -0.29051,-0.0258 -0.57703,-0.07852 -0.8627,-0.136552 -0.23286,-0.03942 -0.46591,-0.0654 -0.69974,-0.09807 -0.0759,-0.01058 -0.15128,-0.02423 -0.22732,-0.03342 -0.0318,-0.0038 -0.0972,-0.03756 -0.0959,-0.0056 0.002,0.05171 0.067,0.07885 0.10057,0.118279 -0.001,0.158985 0.0195,0.319609 -0.003,0.476959 -0.005,0.03225 -0.0992,0.08447 -0.0749,0.06285 0.22084,-0.195985 0.48106,-0.33837 0.71214,-0.521274 0.43085,-0.318138 0.74485,-0.603541 0.99009,-1.088353 0.20305,-0.414142 0.38688,-0.845801 0.28595,-1.316487 -0.13245,-0.424328 -0.33472,-0.812983 -0.70392,-1.07968 -0.52963,-0.312809 -0.86316,-0.299029 -1.44727,-0.176025 -0.4456,0.09961 -0.91604,0.188349 -1.30703,0.43392 -0.57287,0.414512 0.0133,1.224671 0.58621,0.810159 z" />
    <path
       style="fill:#000000;fill-opacity:1;stroke:none;stroke-width:8.5;stroke-linecap:round;stroke-linejoin:round;stroke-miterlimit:4.2"
       id="path32"
       d="m 155.34117,95.779605 c -0.98117,-0.216453 -1.96997,-0.118528 -2.95348,0.01789 -0.60298,0.141618 -1.71319,0.247157 -2.15712,0.742465 -0.0914,0.101981 -0.14492,0.232413 -0.21738,0.348621 0.0139,0.185459 -0.0317,0.385487 0.0417,0.556384 0.23849,0.55554 1.26928,0.870966 1.79798,0.990031 0.17953,0.04043 0.36276,0.06223 0.54414,0.09334 1.01991,0.116297 1.77678,0.025 2.70614,-0.404596 -0.46341,-0.0011 0.48793,-0.155257 0.35768,-0.157432 -0.11211,-0.0019 -0.24471,-0.0339 -0.33476,0.03291 -0.0521,0.03865 0.0119,0.130222 0.0316,0.192029 0.036,0.112903 0.45913,1.225976 0.47592,1.270325 0.33278,0.771938 0.6343,1.703748 1.27657,2.290888 0.0722,0.066 0.15773,0.11569 0.2366,0.17354 0.15261,0.02 0.31133,0.10709 0.45784,0.0599 0.43999,-0.1416 0.50499,-0.51665 0.57224,-0.88789 0.11572,-0.69758 -0.8708,-0.86122 -0.98652,-0.16364 v 0 c -0.0608,0.44524 0.15482,-0.12667 0.50632,0.15635 -0.14961,-0.0462 -0.32339,-0.32588 -0.39385,-0.43427 -0.31278,-0.48108 -0.52759,-1.016239 -0.73394,-1.548859 -0.0872,-0.230285 -0.17457,-0.460465 -0.26145,-0.69085 -0.0815,-0.216149 -0.14611,-0.439378 -0.2437,-0.648756 -0.0896,-0.192252 -0.15021,-0.420111 -0.31613,-0.552262 -0.43042,-0.342829 -0.69944,-0.187235 -1.07032,0.0032 -0.70366,0.339584 -1.33737,0.411204 -2.11604,0.322913 -0.41575,-0.06656 -0.467,-0.05884 -0.86811,-0.186161 -0.12231,-0.03882 -0.2427,-0.08411 -0.36075,-0.134408 -0.0881,-0.03754 -0.1651,-0.101328 -0.25686,-0.128752 -0.0865,-0.02585 -0.19843,0.218477 -0.15687,0.220668 -0.20635,-2.65e-4 0.22348,-0.183608 0.25303,-0.195262 0.28546,-0.112607 0.49793,-0.155089 0.80635,-0.220999 0.18223,-0.03894 0.36553,-0.07276 0.54829,-0.109138 0.89778,-0.126722 1.79544,-0.219168 2.69081,-0.01598 0.70164,0.08779 0.82579,-0.904475 0.12415,-0.992264 z" />
    <path
       style="fill:#000000;fill-opacity:1;stroke:none;stroke-width:8.5;stroke-linecap:round;stroke-linejoin:round;stroke-miterlimit:4.2"
       id="path33"
       d="m 158.20742,88.637104 c -0.0578,0.127891 -0.12488,0.25196 -0.17328,0.383677 -0.24189,0.658233 -0.37058,1.21557 -0.50718,1.92455 -0.30408,1.578385 -0.44908,3.172759 -0.596,4.771213 -0.0895,1.616339 -0.20737,3.24326 -0.10736,4.862336 0.0664,0.35721 0.18852,0.78381 0.64519,0.82511 0.15558,0.0141 0.29832,-0.0928 0.44747,-0.13926 0.57797,-0.40738 0.002,-1.22475 -0.57611,-0.81737 v 0 c 0.0974,-0.01 0.19843,-0.0579 0.29229,-0.0299 0.28886,0.0862 0.2785,0.4189 0.18916,0.0982 -0.10212,-1.567059 0.0252,-3.143182 0.10517,-4.707685 0.14264,-1.555477 0.28375,-3.106269 0.57573,-4.642805 0.13057,-0.687096 0.23087,-1.119801 0.44689,-1.741493 0.0322,-0.09271 0.0766,-0.180731 0.11494,-0.271097 0.36449,-0.605927 -0.49242,-1.121394 -0.85691,-0.515466 z" />
    <path
       style="fill:#000000;fill-opacity:1;stroke:none;stroke-width:8.5;stroke-linecap:round;stroke-linejoin:round;stroke-miterlimit:4.2"
       id="path34"
       d="m 158.47957,97.24215 c 0.4257,-0.113303 0.85216,-0.01805 1.24468,0.158165 0.12921,-0.04499 0.25565,0.459555 0.18746,0.46428 -0.0224,0.0016 -0.0249,-0.03739 -0.0374,-0.05608 -0.23204,0.04804 -0.4613,0.172382 -0.67976,0.263094 -0.65262,0.272193 -0.26768,1.195134 0.38494,0.922941 v 0 c 0.42434,-0.177681 0.84814,-0.325255 1.16051,-0.685459 0.0571,-0.13907 0.13958,-0.270266 0.17138,-0.417211 0.0233,-0.107804 0.007,-0.221755 -0.01,-0.330758 -0.0732,-0.473123 -0.3739,-0.853128 -0.78493,-1.0805 -0.60575,-0.250394 -1.25097,-0.380445 -1.89856,-0.203743 -0.68255,0.18473 -0.4213,1.150001 0.26124,0.965272 z" />
    <path
       style="fill:#000000;fill-opacity:1;stroke:none;stroke-width:8.5;stroke-linecap:round;stroke-linejoin:round;stroke-miterlimit:4.2"
       id="path35"
       d="m 164.75714,96.754904 c -0.49005,-0.426334 -1.12326,-0.479155 -1.74509,-0.496568 -0.53973,0.04159 -1.44229,0.258131 -1.68095,0.827006 -0.0637,0.151783 -0.0589,0.323887 -0.0883,0.48583 0.0681,0.43493 0.3217,0.732857 0.59013,1.057551 0.0306,0.03696 0.26559,0.310147 0.30796,0.379039 0.0214,0.03478 -0.0546,-0.06072 -0.082,-0.09108 -0.0157,-0.253717 0.0813,-0.302565 -0.11401,-0.252339 -0.66879,0.229616 -0.34407,1.175425 0.32472,0.945809 v 0 c 0.51533,-0.194226 0.62452,-0.243298 0.78126,-0.819939 -0.0403,-0.132241 -0.0632,-0.271081 -0.12092,-0.396719 -0.0189,-0.0412 -0.30651,-0.378113 -0.32406,-0.399171 -0.10111,-0.121343 -0.18606,-0.257577 -0.30072,-0.366215 -0.0163,-0.01548 -0.042,-0.01622 -0.0629,-0.02434 -0.0245,0.0092 -0.0482,0.03451 -0.0734,0.02769 -0.0163,-0.0044 -0.0196,-0.03687 -0.009,-0.04992 0.18902,-0.229865 0.5597,-0.284102 0.8297,-0.323451 0.36712,0.0055 0.73362,0.0077 1.05616,0.199674 0.49699,0.502988 1.20833,-0.199867 0.71133,-0.702855 z" />
    <path
       style="fill:#000000;fill-opacity:1;stroke:none;stroke-width:8.5;stroke-linecap:round;stroke-linejoin:round;stroke-miterlimit:4.2"
       id="path36"
       d="m 169.34444,91.16415 c -0.68238,0.370218 -1.06038,1.092686 -1.45066,1.731179 -0.54563,0.976966 -0.94721,2.028121 -1.2229,3.11091 -0.24992,1.012737 -0.10713,1.935527 0.14757,2.9264 0.22638,0.743085 0.53385,1.470841 0.98912,2.104881 0.25603,0.35656 0.45657,0.55506 0.75212,0.87599 0.42615,0.42858 0.88021,0.82706 1.32581,1.23479 0.52174,0.47727 1.1967,-0.26058 0.67497,-0.73785 v 0 c -0.42513,-0.3888 -0.85785,-0.7692 -1.26648,-1.17576 -0.24254,-0.26124 -0.43694,-0.45515 -0.64797,-0.74214 -0.39857,-0.542048 -0.66037,-1.172635 -0.85962,-1.811048 -0.20977,-0.799942 -0.35344,-1.611273 -0.14599,-2.430291 0.24707,-0.986483 0.61667,-1.942457 1.10672,-2.834537 0.28881,-0.472987 0.55887,-1.047458 1.03948,-1.355595 0.63422,-0.312666 0.19205,-1.209595 -0.44217,-0.896929 z" />
    <path
       style="fill:#000000;fill-opacity:1;stroke:none;stroke-width:8.5;stroke-linecap:round;stroke-linejoin:round;stroke-miterlimit:4.2"
       id="path37"
       d="m 171.24924,94.521347 c 0.028,0.542597 -0.0376,1.07837 -0.10275,1.615715 -0.0621,0.470022 -0.10725,0.941742 -0.1241,1.415531 -0.0198,0.488739 0.10336,0.967717 0.1617,1.450713 0.0853,0.70194 1.07801,0.58129 0.99269,-0.120652 v 0 c -0.0527,-0.431581 -0.16162,-0.860108 -0.15499,-1.295366 0.015,-0.445217 0.0596,-0.888288 0.11744,-1.329954 0.0699,-0.577001 0.13721,-1.153515 0.11001,-1.735987 0,-0.707107 -1,-0.707107 -1,0 z" />
    <path
       style="fill:#000000;fill-opacity:1;stroke:none;stroke-width:8.5;stroke-linecap:round;stroke-linejoin:round;stroke-miterlimit:4.2"
       id="path38"
       d="m 176.03493,97.682181 c 0.88986,-0.02259 1.77695,0.02013 2.66429,0.08137 0.70543,0.04865 0.77423,-0.948981 0.0688,-0.997632 v 0 c -0.91021,-0.06273 -1.82033,-0.106212 -2.73309,-0.08374 -0.70711,0 -0.70711,1.000001 0,1.000002 z" />
    <path
       style="fill:#000000;fill-opacity:1;stroke:none;stroke-width:8.5;stroke-linecap:round;stroke-linejoin:round;stroke-miterlimit:4.2"
       id="path39"
       d="m 182.84604,95.754723 c 0.63823,-0.45938 1.35466,-0.799285 2.05423,-1.15434 -0.2141,0.07718 0.68093,-0.342667 0.61489,-0.158612 -0.008,0.02267 -0.12228,0.04343 -0.14698,0.07161 -0.0554,0.423593 -0.29086,0.796886 -0.51267,1.152464 -0.57038,0.773862 -1.15477,1.540984 -1.7676,2.281913 -0.40249,0.492715 -0.80097,0.988139 -1.18941,1.49198 -0.086,0.111519 -0.43324,0.526068 -0.46375,0.697332 -0.0332,0.18622 0.0179,0.37789 0.0268,0.56682 0.14679,0.1279 0.27227,0.28549 0.44038,0.3837 0.0195,0.0114 0.72468,0.19979 0.77788,0.2142 0.49915,0.1352 0.99727,0.27126 1.49884,0.39734 0.59315,0.17139 1.1786,0.2596 1.79328,0.22214 0.70508,-0.0536 0.62929,-1.05071 -0.0758,-0.99713 v 0 c -0.50575,0.0509 -0.98451,-0.069 -1.4739,-0.19489 -0.62319,-0.15639 -1.23891,-0.34721 -1.86387,-0.49557 -0.0655,-0.0156 -0.15065,-0.0822 -0.1989,-0.0353 -0.045,0.0438 0.0322,0.12129 0.0483,0.18193 -0.0299,0.0753 -0.11167,0.14778 -0.0898,0.22578 0.0199,0.071 0.0564,-0.13727 0.0975,-0.19851 0.30344,-0.452747 0.67783,-0.875625 1.01979,-1.298641 0.14136,-0.174871 0.28266,-0.349795 0.42399,-0.52469 0.63979,-0.776796 1.25621,-1.576345 1.8462,-2.391434 0.33494,-0.542845 0.65835,-1.114467 0.65859,-1.7712 -0.0228,-0.127807 -0.0198,-0.263025 -0.0684,-0.383424 -0.34561,-0.85681 -1.20609,-0.659378 -1.84806,-0.32948 -0.75944,0.385784 -1.53663,0.756407 -2.22421,1.263534 -0.55327,0.440327 0.0694,1.222774 0.62272,0.782449 z" />
    <path
       style="fill:#000000;fill-opacity:1;stroke:none;stroke-width:8.5;stroke-linecap:round;stroke-linejoin:round;stroke-miterlimit:4.2"
       id="path40"
       d="m 186.43856,91.192222 c 0.45666,0.645239 0.85923,1.329097 1.28509,1.995551 0.49093,0.612463 0.65859,1.357535 0.92907,2.074214 0.0989,0.262004 0.20801,0.520028 0.31201,0.780042 0.68195,1.635612 1.54046,3.207824 2.02019,4.919851 0.21068,0.7357 -0.0171,1.39209 -0.39458,2.02484 -0.33003,0.52996 -0.8199,0.90617 -1.3047,1.28343 -0.46242,0.34767 -0.91239,0.70853 -1.41657,0.99498 -0.61341,0.35176 -0.11595,1.21924 0.49746,0.86749 v 0 c 0.54263,-0.31344 1.03628,-0.6933 1.53331,-1.07332 0.58624,-0.45634 1.16478,-0.92537 1.55553,-1.57087 0.51385,-0.90417 0.77467,-1.75981 0.4918,-2.79871 -0.49733,-1.744069 -1.34573,-3.355813 -2.05418,-5.019629 -0.0987,-0.245941 -0.20249,-0.489926 -0.29619,-0.737825 -0.29739,-0.786786 -0.4971,-1.608016 -1.03054,-2.283008 -0.43425,-0.679373 -0.84535,-1.375925 -1.31088,-2.033926 -0.40792,-0.57758 -1.22475,-7.93e-4 -0.81682,0.57689 z" />
  </g>
</svg>
