<?xml version="1.0" encoding="UTF-8" standalone="no"?>
<!-- Created with Inkscape (http://www.inkscape.org/) -->

<svg
   width="101.85937mm"
   height="36.160004mm"
   viewBox="0 0 101.85936 36.160003"
   version="1.1"
   id="svg1"
   inkscape:version="1.3.2 (091e20ef0f, 2023-11-25)"
   sodipodi:docname="logo.svg"
   inkscape:export-filename="logo"
   inkscape:export-xdpi="208.27731"
   inkscape:export-ydpi="208.27731"
   xmlns:inkscape="http://www.inkscape.org/namespaces/inkscape"
   xmlns:sodipodi="http://sodipodi.sourceforge.net/DTD/sodipodi-0.dtd"
   xmlns="http://www.w3.org/2000/svg"
   xmlns:svg="http://www.w3.org/2000/svg">
  <sodipodi:namedview
     id="namedview1"
     pagecolor="#ffffff"
     bordercolor="#000000"
     borderopacity="0.25"
     inkscape:showpageshadow="2"
     inkscape:pageopacity="0.0"
     inkscape:pagecheckerboard="0"
     inkscape:deskcolor="#d1d1d1"
     inkscape:document-units="mm"
     inkscape:zoom="2.1718996"
     inkscape:cx="177.26418"
     inkscape:cy="67.452473"
     inkscape:window-width="2560"
     inkscape:window-height="1299"
     inkscape:window-x="0"
     inkscape:window-y="32"
     inkscape:window-maximized="1"
     inkscape:current-layer="svg1" />
  <defs
     id="defs1">
    <rect
       x="239.72543"
       y="288.15244"
       width="822.40863"
       height="313.57251"
       id="rect2" />
    <rect
       x="72.985626"
       y="359.41562"
       width="659.04779"
       height="250.54045"
       id="rect1" />
    <filter
       style="color-interpolation-filters:sRGB"
       inkscape:label="Drop Shadow"
       id="filter98"
       x="-0.024561677"
       y="-0.0286646"
       width="1.0615947"
       height="1.1106679">
      <feFlood
         result="flood"
         in="SourceGraphic"
         flood-opacity="0.498039"
         flood-color="rgb(0,0,0)"
         id="feFlood97" />
      <feGaussianBlur
         result="blur"
         in="SourceGraphic"
         stdDeviation="1.392792"
         id="feGaussianBlur97" />
      <feOffset
         result="offset"
         in="blur"
         dx="2.459142"
         dy="9.012129"
         id="feOffset97" />
      <feComposite
         result="comp1"
         operator="in"
         in="flood"
         in2="offset"
         id="feComposite97" />
      <feComposite
         result="comp2"
         operator="over"
         in="SourceGraphic"
         in2="comp1"
         id="feComposite98" />
    </filter>
    <filter
       style="color-interpolation-filters:sRGB"
       inkscape:label="Drop Shadow"
       id="filter100"
       x="-0.018316934"
       y="-0.043051887"
       width="1.0463746"
       height="1.1477842">
      <feFlood
         result="flood"
         in="SourceGraphic"
         flood-opacity="0.498039"
         flood-color="rgb(0,0,0)"
         id="feFlood98" />
      <feGaussianBlur
         result="blur"
         in="SourceGraphic"
         stdDeviation="1.392792"
         id="feGaussianBlur98" />
      <feOffset
         result="offset"
         in="blur"
         dx="2.459142"
         dy="9.012129"
         id="feOffset98" />
      <feComposite
         result="comp1"
         operator="in"
         in="flood"
         in2="offset"
         id="feComposite99" />
      <feComposite
         result="comp2"
         operator="over"
         in="SourceGraphic"
         in2="comp1"
         id="feComposite100" />
    </filter>
    <filter
       style="color-interpolation-filters:sRGB"
       inkscape:label="Drop Shadow"
       id="filter50"
       x="-0.027260401"
       y="-0.052377703"
       width="1.0493896"
       height="1.1506268">
      <feFlood
         result="flood"
         in="SourceGraphic"
         flood-opacity="0.498039"
         flood-color="rgb(0,0,0)"
         id="feFlood49" />
      <feGaussianBlur
         result="blur"
         in="SourceGraphic"
         stdDeviation="0.300000"
         id="feGaussianBlur49" />
      <feOffset
         result="offset"
         in="blur"
         dx="-1.000000"
         dy="1.000000"
         id="feOffset49" />
      <feComposite
         result="comp1"
         operator="in"
         in="flood"
         in2="offset"
         id="feComposite49" />
      <feComposite
         result="comp2"
         operator="over"
         in="SourceGraphic"
         in2="comp1"
         id="feComposite50" />
    </filter>
  </defs>
  <g
     id="g19"
     transform="translate(-5.6711121,-7.6204352)"
     inkscape:label="background"
     style="stroke-width:1.85208;stroke-dasharray:none;filter:url(#filter50)">
    <path
       style="font-weight:normal;font-size:31.5081px;line-height:0;font-family:Z003;-inkscape-font-specification:'Z003, Normal';text-align:center;letter-spacing:0px;word-spacing:0px;text-anchor:middle;fill:#ffffff;fill-opacity:1;stroke:#ffffff;stroke-width:1.85208;stroke-dasharray:none;stroke-opacity:1;paint-order:stroke fill markers"
       d="m 97.071225,39.875708 1.37742,-5.486366 0.58366,-0.37354 c 2.171195,-1.354082 2.428015,-1.494158 2.754865,-1.494158 0.14007,0 0.23346,0.116731 0.23346,0.3035 0,0.37354 -0.16342,1.05058 -0.86381,3.898822 -0.51362,2.054469 -0.607,2.474701 -0.607,2.91828 0,0.326848 0.0934,0.607003 0.35019,1.050581 1.05058,-0.466925 2.68482,-1.49416 4.31905,-2.708164 l 0.16343,-0.653694 c -2.26459,1.307389 -2.42801,1.377427 -2.66147,1.377427 -0.23347,0 -0.37354,-0.233461 -0.37354,-0.630347 0,-0.630349 0.0934,-1.027236 1.12062,-4.739288 0.58365,-2.077815 0.58365,-2.077815 0.58365,-2.217891 0,-0.25681 -0.16342,-0.396887 -0.44358,-0.396887 -0.51362,0 -0.58365,0.04669 -3.10505,1.587545 -0.933855,0.583655 -1.540855,0.957195 -1.821005,1.143965 0.23346,-0.817118 0.56031,-2.241238 0.56031,-2.428009 0,-0.18677 -0.11674,-0.303501 -0.3035,-0.303501 -0.25681,0 -1.84435,0.817118 -3.66537,1.891045 l -0.140072,0.607003 c 1.494159,-0.677041 1.58754,-0.700387 1.797662,-0.700387 0.16343,0 0.28015,0.140076 0.28015,0.326847 0,0.513617 -0.42023,2.381315 -1.027232,4.552517 l -0.53696,1.891045 c -0.04668,0.163423 -0.163423,0.607002 -0.326846,1.260696 z"
       id="path12"
       inkscape:label="n" />
    <path
       id="path13"
       style="font-weight:normal;font-size:31.5081px;line-height:0;font-family:Z003;-inkscape-font-specification:'Z003, Normal';text-align:center;letter-spacing:0px;word-spacing:0px;text-anchor:middle;fill:#ffffff;fill-opacity:1;stroke:#ffffff;stroke-width:1.85208;stroke-dasharray:none;stroke-opacity:1;paint-order:stroke fill markers"
       d="m 91.444896,30.724082 c -0.957195,0 -1.424489,0.09309 -2.008146,0.466638 -0.840463,0.49027 -1.820918,1.214144 -2.124418,1.540991 -0.887156,0.98054 -1.844332,4.132362 -1.844332,6.023405 0,1.120618 0.373908,1.867586 0.957564,1.867586 0.513616,0 1.28405,-0.466642 4.202328,-2.567801 -0.256809,1.190657 -0.350366,1.773892 -0.350366,2.077392 0,0.326848 0.140158,0.490409 0.37362,0.490409 0.3035,0 0.490091,-0.09335 2.147673,-1.190625 0.793771,-0.536962 1.237358,-0.840362 2.101164,-1.470711 l 0.02325,-0.700215 c -1.704273,1.16731 -2.101279,1.400431 -2.334741,1.400431 -0.163423,0 -0.280087,-0.186483 -0.280087,-0.466638 0,-0.630348 0.537136,-3.081805 1.400949,-6.280237 0.256804,-0.37354 0.303412,-0.420544 0.676961,-0.840776 -1.120622,-0.256808 -1.91419,-0.349849 -2.941423,-0.349849 z m -1.354439,1.073836 c 0.420232,0 1.214468,0.11657 1.984892,0.303341 -0.466924,1.680927 -0.63036,2.311544 -0.653707,2.428275 -0.140076,0.583656 -0.256798,1.16705 -0.396875,1.774052 -0.02335,0.116731 -0.09359,0.396866 -0.210323,0.79375 -0.817118,0.607003 -1.237559,0.910448 -1.260905,0.933793 -0.770425,0.490271 -1.377017,0.79375 -1.680518,0.79375 -0.396885,0 -0.607198,-0.419775 -0.607198,-1.166853 0,-1.190657 0.350045,-2.731976 0.957048,-4.086056 0.560309,-1.284042 1.073815,-1.774052 1.867586,-1.774052 z"
       inkscape:label="a" />
    <path
       style="font-weight:normal;font-size:31.5081px;line-height:0;font-family:Z003;-inkscape-font-specification:'Z003, Normal';text-align:center;letter-spacing:0px;word-spacing:0px;text-anchor:middle;fill:#ffffff;fill-opacity:1;stroke:#ffffff;stroke-width:1.85208;stroke-dasharray:none;stroke-opacity:1;paint-order:stroke fill markers"
       d="m 65.180256,40.319287 c 0.420232,0.02335 0.770426,0.02335 1.003888,0.02335 1.821007,0 3.011665,-0.536963 4.0389,-1.774314 0.747079,-0.957195 1.027234,-1.540852 1.587543,-3.455243 0.256809,-0.93385 1.12062,-4.085593 1.517506,-5.719829 0.817119,8.404646 0.840464,8.614762 0.887157,10.482461 l 1.143966,-0.887157 c 0.770426,-1.704275 2.381317,-4.202322 6.233445,-9.665342 -0.07004,0.350193 -0.140076,0.677041 -0.233462,1.027233 -0.07003,0.350195 -0.256808,1.050582 -0.536963,2.077816 -1.354082,5.042788 -1.634237,6.116716 -1.68093,6.233446 -0.186769,0.536963 -0.3035,1.027234 -0.3035,1.354082 0,0.350193 0.256807,0.607002 0.560309,0.607002 0.116732,0 0.280155,-0.02335 0.443579,-0.04669 0.466925,-0.09338 1.844353,-0.326848 2.194546,-0.373539 l 1.097274,-0.140078 c 0.07003,-0.02335 0.256808,-0.04669 0.560308,-0.09338 l 0.490272,-0.583657 c -0.396886,0.02335 -0.700388,0.04669 -0.887157,0.07003 -0.396886,0.02335 -0.770426,0.04669 -0.957196,0.04669 -0.74708,0 -1.167312,-0.350193 -1.167312,-0.933849 0,-0.653694 0,-0.653694 1.214004,-5.57975 0.607003,-2.521395 1.190659,-4.552518 1.797661,-6.350178 0.186769,-0.56031 0.37354,-0.723734 0.793772,-0.723734 0.210116,0 0.513617,0.02335 0.817118,0.09338 0.09338,0.02335 0.350195,0.07004 0.630349,0.116732 l 0.957195,-1.307388 c -0.420232,-0.116732 -0.630348,-0.140078 -0.933849,-0.140078 -0.513618,0 -0.887157,0.09338 -1.517505,0.420232 -1.027236,0.513618 -1.79766,1.073926 -2.24124,1.610891 -0.280154,0.373539 -0.280154,0.373539 -3.735397,5.182865 -0.887157,1.260696 -1.750969,2.54474 -2.638126,3.828782 l -0.583655,0.840466 C 75.429254,33.011913 74.822253,27.852394 74.518752,26.218156 l -0.723734,0.583657 c -0.887157,-0.116732 -1.330735,-0.140078 -1.891046,-0.140078 -1.564197,0 -2.498047,0.396887 -3.59532,1.540851 -1.260697,1.284044 -2.007778,2.754857 -2.007778,3.945515 0,0.677041 0.140078,1.260697 0.536965,2.147854 l 1.774314,-1.237351 c -0.56031,-1.190657 -0.74708,-1.774314 -0.74708,-2.474701 0,-1.517505 1.143966,-2.35797 3.175089,-2.35797 0.560309,0 0.910503,0.02335 1.680928,0.140078 -1.027233,4.178977 -2.28793,8.544723 -2.684817,9.291803 -0.466925,0.817118 -1.05058,1.167312 -2.054468,1.167312 -0.396887,0 -0.536965,0 -1.727622,-0.116732 z"
       id="path14"
       inkscape:label="m" />
    <path
       id="path15"
       style="font-weight:bold;font-size:31.5081px;line-height:0;font-family:'Antipasto Pro';-inkscape-font-specification:'Antipasto Pro, Bold';text-align:center;letter-spacing:0px;word-spacing:0px;text-anchor:middle;fill:#ffffff;fill-opacity:1;stroke:#ffffff;stroke-width:1.85208;stroke-dasharray:none;stroke-opacity:1;paint-order:stroke fill markers"
       inkscape:label="e"
       d="m 58.368879,15.552398 c -1.185295,0 -2.298742,0.227167 -3.340365,0.682129 -1.041623,0.442989 -1.957439,1.053705 -2.747635,1.83193 -0.778224,0.766251 -1.395054,1.670356 -1.850017,2.711979 -0.454962,1.041623 -0.682129,2.155069 -0.682129,3.340364 0,1.185296 0.227167,2.298742 0.682129,3.340365 0.454963,1.029651 1.071793,1.933238 1.850017,2.711462 0.790196,0.766252 1.706012,1.376968 2.747635,1.83193 1.041623,0.442989 2.15507,0.664559 3.340365,0.664559 0.682443,0 1.287045,-0.04788 1.813843,-0.143661 0.526797,-0.08381 0.993876,-0.197392 1.400948,-0.341064 0.419044,-0.155645 0.784251,-0.329335 1.09554,-0.520899 0.311291,-0.191563 0.586853,-0.389193 0.826306,-0.592728 0.2634,-0.203535 0.460514,-0.43122 0.592212,-0.682646 0.1317,-0.251426 0.215747,-0.502533 0.251665,-0.753959 0.03591,-0.263399 0.02369,-0.521136 -0.03617,-0.772563 -0.05986,-0.251426 -0.155618,-0.484707 -0.287321,-0.700215 -0.1317,-0.215509 -0.287049,-0.407026 -0.466638,-0.574642 -0.179591,-0.167618 -0.383334,-0.293429 -0.610816,-0.377238 -0.335235,-0.1317 -0.694328,-0.173465 -1.077453,-0.125574 -0.371154,0.04789 -0.754186,0.227181 -1.149284,0.538468 -0.1317,0.107754 -0.269223,0.209628 -0.412895,0.305408 -0.143672,0.09578 -0.305651,0.179828 -0.485241,0.251664 -0.17959,0.05987 -0.388932,0.11386 -0.628386,0.161748 -0.22748,0.03592 -0.503043,0.05374 -0.826306,0.05374 -0.790196,0 -1.514496,-0.203744 -2.172994,-0.610815 -0.646525,-0.419044 -1.143141,-0.975767 -1.490348,-1.670183 h 10.092924 c 0.646524,0 1.173193,-0.191516 1.580265,-0.574642 0.407071,-0.395099 0.610815,-0.910056 0.610815,-1.544608 -0.02395,-1.173322 -0.269455,-2.268426 -0.736389,-3.286105 -0.454961,-1.02965 -1.071791,-1.927641 -1.850016,-2.693892 -0.778224,-0.766252 -1.687925,-1.365256 -2.729549,-1.796273 -1.041623,-0.442989 -2.143358,-0.664042 -3.304708,-0.664042 z m 0.07183,4.237984 c 0.933869,0 1.74833,0.239396 2.442745,0.718303 0.706389,0.478907 1.215232,1.113563 1.526522,1.90376 h -7.83053 c 0.143672,-0.371153 0.341303,-0.718535 0.592729,-1.041797 0.251426,-0.323263 0.5387,-0.598309 0.861963,-0.82579 0.335234,-0.239454 0.706555,-0.425372 1.113627,-0.557072 0.40707,-0.131698 0.837982,-0.197404 1.292944,-0.197404 z" />
    <path
       style="font-weight:bold;font-size:31.5081px;line-height:0;font-family:'Antipasto Pro';-inkscape-font-specification:'Antipasto Pro, Bold';text-align:center;letter-spacing:0px;word-spacing:0px;text-anchor:middle;fill:#ffffff;fill-opacity:1;stroke:#ffffff;stroke-width:1.85208;stroke-dasharray:none;stroke-opacity:1;paint-order:stroke fill markers"
       d="m 45.528289,11.672988 q 0,-0.466934 -0.17959,-0.862033 -0.161632,-0.3951 -0.466935,-0.682444 -0.305304,-0.3053034 -0.718361,-0.4669354 -0.3951,-0.1795898 -0.862035,-0.1795898 -0.466935,0 -0.879992,0.1795898 -0.395099,0.161632 -0.700403,0.4669354 -0.305304,0.287344 -0.484895,0.682444 -0.161631,0.395099 -0.161631,0.862033 v 3.915071 h -0.844074 q -0.466936,0 -0.879994,0.17959 -0.395098,0.161632 -0.700402,0.466936 -0.305304,0.287345 -0.484894,0.700402 -0.161632,0.395099 -0.161632,0.862034 0,0.466934 0.161632,0.879993 0.17959,0.395099 0.484894,0.700403 0.305304,0.305303 0.700402,0.484893 0.413058,0.17959 0.879994,0.17959 h 0.844074 v 10.236653 q 0,0.466935 0.161631,0.862033 0.179591,0.3951 0.484895,0.700403 0.305304,0.287345 0.700403,0.466936 0.413057,0.161631 0.879992,0.161631 0.466935,0 0.862035,-0.161631 0.413057,-0.179591 0.718361,-0.466936 0.305303,-0.305303 0.466935,-0.700403 0.17959,-0.395098 0.17959,-0.862033 V 20.0419 h 0.987747 q 0.466935,0 0.879994,-0.17959 0.413057,-0.17959 0.700402,-0.484893 0.305303,-0.305304 0.466935,-0.700403 0.17959,-0.413059 0.17959,-0.879993 0,-0.466935 -0.17959,-0.862034 -0.161632,-0.413057 -0.466935,-0.700402 -0.287345,-0.305304 -0.700402,-0.466936 -0.413059,-0.17959 -0.879994,-0.17959 h -0.987747 z"
       id="path16"
       inkscape:label="t" />
    <path
       style="font-weight:bold;font-size:31.5081px;line-height:0;font-family:'Antipasto Pro';-inkscape-font-specification:'Antipasto Pro, Bold';text-align:center;letter-spacing:0px;word-spacing:0px;text-anchor:middle;fill:#ffffff;fill-opacity:1;stroke:#ffffff;stroke-width:1.85208;stroke-dasharray:none;stroke-opacity:1;paint-order:stroke fill markers"
       d="m 35.920169,17.743144 q 0,-0.448976 -0.17959,-0.844075 -0.161631,-0.413058 -0.448976,-0.718361 -0.287345,-0.305304 -0.700403,-0.466936 -0.395098,-0.17959 -0.844074,-0.17959 -0.466936,0 -0.897953,0.17959 -0.413057,0.161632 -0.718361,0.466936 -0.305304,0.305303 -0.484894,0.718361 -0.179591,0.395099 -0.179591,0.844075 v 12.51745 q 0,0.466935 0.179591,0.862033 0.17959,0.3951 0.484894,0.700403 0.305304,0.305304 0.700402,0.484895 0.413058,0.161631 0.879994,0.161631 0.448976,0 0.844074,-0.161631 0.413058,-0.179591 0.718362,-0.484895 0.305304,-0.305303 0.466935,-0.700403 0.17959,-0.395098 0.17959,-0.862033 z"
       id="path17"
       inkscape:label="i-base" />
    <path
       style="font-weight:bold;font-size:31.5081px;line-height:0;font-family:'Antipasto Pro';-inkscape-font-specification:'Antipasto Pro, Bold';text-align:center;letter-spacing:0px;word-spacing:0px;text-anchor:middle;fill:#ffffff;fill-opacity:1;stroke:#ffffff;stroke-width:1.85208;stroke-dasharray:none;stroke-opacity:1;paint-order:stroke fill markers"
       d="m 31.286737,11.655029 q 0,0.484894 0.17959,0.933871 0.19755,0.431017 0.520813,0.754279 0.323263,0.323263 0.754279,0.520812 0.448976,0.179591 0.933871,0.179591 0.484894,0 0.91591,-0.179591 0.448976,-0.197549 0.772239,-0.520812 0.341222,-0.323262 0.520813,-0.754279 0.197548,-0.448977 0.197548,-0.933871 0,-0.502852 -0.197548,-0.93387 Q 35.704661,10.290142 35.363439,9.9668795 35.040176,9.6436167 34.5912,9.4640268 34.160184,9.2664769 33.67529,9.2664769 q -0.484895,0 -0.933871,0.1975499 -0.431016,0.1795899 -0.754279,0.5028527 -0.323263,0.3232625 -0.520813,0.7542795 -0.17959,0.431018 -0.17959,0.93387 z"
       id="path18"
       inkscape:label="i-dot" />
    <path
       style="font-weight:bold;font-size:31.5081px;line-height:0;font-family:'Antipasto Pro';-inkscape-font-specification:'Antipasto Pro, Bold';text-align:center;letter-spacing:0px;word-spacing:0px;text-anchor:middle;fill:#ffffff;fill-opacity:1;stroke:#ffffff;stroke-width:1.85208;stroke-dasharray:none;stroke-opacity:1;paint-order:stroke fill markers"
       d="M 28.251687,12.76849 Q 26.50966,11.026463 24.372534,10.182388 22.235408,9.3203538 19.97257,9.3203538 q -1.68815,0 -3.214668,0.4489769 -1.526518,0.4310163 -2.819569,1.2212143 -1.293051,0.790197 -2.334675,1.885699 -1.041624,1.095501 -1.7779449,2.388552 -0.7183616,1.293052 -1.1134604,2.765693 -0.3950989,1.472641 -0.3950989,2.999159 0,1.616314 0.4130578,3.106914 0.413058,1.472641 1.1673376,2.765692 0.7722388,1.29305 1.8138628,2.370593 1.059583,1.059583 2.334675,1.831821 1.293051,0.75428 2.765692,1.167339 1.472641,0.413058 3.053037,0.413058 2.298756,0 4.435882,-0.844076 2.155085,-0.862033 3.915071,-2.60406 0.305303,-0.305304 0.466934,-0.718362 0.161632,-0.413058 0.161632,-0.844074 0,-0.431017 -0.161632,-0.826117 -0.161631,-0.413058 -0.502852,-0.73632 -0.305304,-0.287344 -0.718362,-0.431017 -0.413058,-0.161631 -0.844074,-0.161631 -0.413058,0 -0.826117,0.161631 -0.413058,0.143673 -0.718361,0.448975 -1.149379,1.131421 -2.442429,1.616315 -1.293051,0.484893 -2.747733,0.466934 -1.526518,-0.01796 -2.819569,-0.592647 -1.293052,-0.592649 -2.24488,-1.580396 -0.951829,-0.987748 -1.4906,-2.280798 -0.538772,-1.31101 -0.538772,-2.765692 0,-1.508559 0.57469,-2.81957 0.574689,-1.311009 1.544477,-2.280797 0.987747,-0.969789 2.280797,-1.508559 1.311011,-0.556731 2.765693,-0.556731 1.418764,0 2.747733,0.502853 1.328968,0.484894 2.424471,1.580396 0.305302,0.305304 0.700401,0.466935 0.413059,0.143673 0.844076,0.143673 0.431016,-0.01796 0.844074,-0.179591 0.413058,-0.161631 0.736321,-0.484894 0.323262,-0.323263 0.484894,-0.718362 0.161631,-0.413057 0.161631,-0.826116 0,-0.431017 -0.161631,-0.826116 -0.161632,-0.395098 -0.484894,-0.718361 z"
       id="path19"
       inkscape:label="c" />
  </g>
  <g
     id="g4"
     transform="translate(-5.6711121,-7.6204352)"
     inkscape:label="forground">
    <path
       style="font-weight:normal;font-size:31.5081px;line-height:0;font-family:Z003;-inkscape-font-specification:'Z003, Normal';text-align:center;letter-spacing:0px;word-spacing:0px;text-anchor:middle;fill:#4584b6;fill-opacity:1;stroke:#000000;stroke-width:0.79375;stroke-dasharray:none;stroke-opacity:1;paint-order:stroke fill markers"
       d="m 97.071225,39.875708 1.37742,-5.486366 0.58366,-0.37354 c 2.171195,-1.354082 2.428015,-1.494158 2.754865,-1.494158 0.14007,0 0.23346,0.116731 0.23346,0.3035 0,0.37354 -0.16342,1.05058 -0.86381,3.898822 -0.51362,2.054469 -0.607,2.474701 -0.607,2.91828 0,0.326848 0.0934,0.607003 0.35019,1.050581 1.05058,-0.466925 2.68482,-1.49416 4.31905,-2.708164 l 0.16343,-0.653694 c -2.26459,1.307389 -2.42801,1.377427 -2.66147,1.377427 -0.23347,0 -0.37354,-0.233461 -0.37354,-0.630347 0,-0.630349 0.0934,-1.027236 1.12062,-4.739288 0.58365,-2.077815 0.58365,-2.077815 0.58365,-2.217891 0,-0.25681 -0.16342,-0.396887 -0.44358,-0.396887 -0.51362,0 -0.58365,0.04669 -3.10505,1.587545 -0.933855,0.583655 -1.540855,0.957195 -1.821005,1.143965 0.23346,-0.817118 0.56031,-2.241238 0.56031,-2.428009 0,-0.18677 -0.11674,-0.303501 -0.3035,-0.303501 -0.25681,0 -1.84435,0.817118 -3.66537,1.891045 l -0.140072,0.607003 c 1.494159,-0.677041 1.58754,-0.700387 1.797662,-0.700387 0.16343,0 0.28015,0.140076 0.28015,0.326847 0,0.513617 -0.42023,2.381315 -1.027232,4.552517 l -0.53696,1.891045 c -0.04668,0.163423 -0.163423,0.607002 -0.326846,1.260696 z"
       id="path11"
       inkscape:label="n" />
    <path
       id="path9"
       style="font-weight:normal;font-size:31.5081px;line-height:0;font-family:Z003;-inkscape-font-specification:'Z003, Normal';text-align:center;letter-spacing:0px;word-spacing:0px;text-anchor:middle;fill:#4584b6;fill-opacity:1;stroke:#000000;stroke-width:0.79375;stroke-dasharray:none;stroke-opacity:1;paint-order:stroke fill markers"
       d="m 91.444896,30.724082 c -0.957195,0 -1.424489,0.09309 -2.008146,0.466638 -0.840463,0.49027 -1.820918,1.214144 -2.124418,1.540991 -0.887156,0.98054 -1.844332,4.132362 -1.844332,6.023405 0,1.120618 0.373908,1.867586 0.957564,1.867586 0.513616,0 1.28405,-0.466642 4.202328,-2.567801 -0.256809,1.190657 -0.350366,1.773892 -0.350366,2.077392 0,0.326848 0.140158,0.490409 0.37362,0.490409 0.3035,0 0.490091,-0.09335 2.147673,-1.190625 0.793771,-0.536962 1.237358,-0.840362 2.101164,-1.470711 l 0.02325,-0.700215 c -1.704273,1.16731 -2.101279,1.400431 -2.334741,1.400431 -0.163423,0 -0.280087,-0.186483 -0.280087,-0.466638 0,-0.630348 0.537136,-3.081805 1.400949,-6.280237 0.256804,-0.37354 0.303412,-0.420544 0.676961,-0.840776 -1.120622,-0.256808 -1.91419,-0.349849 -2.941423,-0.349849 z m -1.354439,1.073836 c 0.420232,0 1.214468,0.11657 1.984892,0.303341 -0.466924,1.680927 -0.63036,2.311544 -0.653707,2.428275 -0.140076,0.583656 -0.256798,1.16705 -0.396875,1.774052 -0.02335,0.116731 -0.09359,0.396866 -0.210323,0.79375 -0.817118,0.607003 -1.237559,0.910448 -1.260905,0.933793 -0.770425,0.490271 -1.377017,0.79375 -1.680518,0.79375 -0.396885,0 -0.607198,-0.419775 -0.607198,-1.166853 0,-1.190657 0.350045,-2.731976 0.957048,-4.086056 0.560309,-1.284042 1.073815,-1.774052 1.867586,-1.774052 z"
       inkscape:label="a" />
    <path
       style="font-weight:normal;font-size:31.5081px;line-height:0;font-family:Z003;-inkscape-font-specification:'Z003, Normal';text-align:center;letter-spacing:0px;word-spacing:0px;text-anchor:middle;fill:#4584b6;fill-opacity:1;stroke:#000000;stroke-width:0.79375;stroke-dasharray:none;stroke-opacity:1;paint-order:stroke fill markers"
       d="m 65.180256,40.319287 c 0.420232,0.02335 0.770426,0.02335 1.003888,0.02335 1.821007,0 3.011665,-0.536963 4.0389,-1.774314 0.747079,-0.957195 1.027234,-1.540852 1.587543,-3.455243 0.256809,-0.93385 1.12062,-4.085593 1.517506,-5.719829 0.817119,8.404646 0.840464,8.614762 0.887157,10.482461 l 1.143966,-0.887157 c 0.770426,-1.704275 2.381317,-4.202322 6.233445,-9.665342 -0.07004,0.350193 -0.140076,0.677041 -0.233462,1.027233 -0.07003,0.350195 -0.256808,1.050582 -0.536963,2.077816 -1.354082,5.042788 -1.634237,6.116716 -1.68093,6.233446 -0.186769,0.536963 -0.3035,1.027234 -0.3035,1.354082 0,0.350193 0.256807,0.607002 0.560309,0.607002 0.116732,0 0.280155,-0.02335 0.443579,-0.04669 0.466925,-0.09338 1.844353,-0.326848 2.194546,-0.373539 l 1.097274,-0.140078 c 0.07003,-0.02335 0.256808,-0.04669 0.560308,-0.09338 l 0.490272,-0.583657 c -0.396886,0.02335 -0.700388,0.04669 -0.887157,0.07003 -0.396886,0.02335 -0.770426,0.04669 -0.957196,0.04669 -0.74708,0 -1.167312,-0.350193 -1.167312,-0.933849 0,-0.653694 0,-0.653694 1.214004,-5.57975 0.607003,-2.521395 1.190659,-4.552518 1.797661,-6.350178 0.186769,-0.56031 0.37354,-0.723734 0.793772,-0.723734 0.210116,0 0.513617,0.02335 0.817118,0.09338 0.09338,0.02335 0.350195,0.07004 0.630349,0.116732 l 0.957195,-1.307388 c -0.420232,-0.116732 -0.630348,-0.140078 -0.933849,-0.140078 -0.513618,0 -0.887157,0.09338 -1.517505,0.420232 -1.027236,0.513618 -1.79766,1.073926 -2.24124,1.610891 -0.280154,0.373539 -0.280154,0.373539 -3.735397,5.182865 -0.887157,1.260696 -1.750969,2.54474 -2.638126,3.828782 l -0.583655,0.840466 C 75.429254,33.011913 74.822253,27.852394 74.518752,26.218156 l -0.723734,0.583657 c -0.887157,-0.116732 -1.330735,-0.140078 -1.891046,-0.140078 -1.564197,0 -2.498047,0.396887 -3.59532,1.540851 -1.260697,1.284044 -2.007778,2.754857 -2.007778,3.945515 0,0.677041 0.140078,1.260697 0.536965,2.147854 l 1.774314,-1.237351 c -0.56031,-1.190657 -0.74708,-1.774314 -0.74708,-2.474701 0,-1.517505 1.143966,-2.35797 3.175089,-2.35797 0.560309,0 0.910503,0.02335 1.680928,0.140078 -1.027233,4.178977 -2.28793,8.544723 -2.684817,9.291803 -0.466925,0.817118 -1.05058,1.167312 -2.054468,1.167312 -0.396887,0 -0.536965,0 -1.727622,-0.116732 z"
       id="path4"
       inkscape:label="m" />
    <path
       id="path8"
       style="font-weight:bold;font-size:31.5081px;line-height:0;font-family:'Antipasto Pro';-inkscape-font-specification:'Antipasto Pro, Bold';text-align:center;letter-spacing:0px;word-spacing:0px;text-anchor:middle;fill:#ffde57;fill-opacity:1;stroke:#000000;stroke-width:0.79375;stroke-dasharray:none;stroke-opacity:1;paint-order:stroke fill markers"
       inkscape:label="e"
       d="m 58.368879,15.552398 c -1.185295,0 -2.298742,0.227167 -3.340365,0.682129 -1.041623,0.442989 -1.957439,1.053705 -2.747635,1.83193 -0.778224,0.766251 -1.395054,1.670356 -1.850017,2.711979 -0.454962,1.041623 -0.682129,2.155069 -0.682129,3.340364 0,1.185296 0.227167,2.298742 0.682129,3.340365 0.454963,1.029651 1.071793,1.933238 1.850017,2.711462 0.790196,0.766252 1.706012,1.376968 2.747635,1.83193 1.041623,0.442989 2.15507,0.664559 3.340365,0.664559 0.682443,0 1.287045,-0.04788 1.813843,-0.143661 0.526797,-0.08381 0.993876,-0.197392 1.400948,-0.341064 0.419044,-0.155645 0.784251,-0.329335 1.09554,-0.520899 0.311291,-0.191563 0.586853,-0.389193 0.826306,-0.592728 0.2634,-0.203535 0.460514,-0.43122 0.592212,-0.682646 0.1317,-0.251426 0.215747,-0.502533 0.251665,-0.753959 0.03591,-0.263399 0.02369,-0.521136 -0.03617,-0.772563 -0.05986,-0.251426 -0.155618,-0.484707 -0.287321,-0.700215 -0.1317,-0.215509 -0.287049,-0.407026 -0.466638,-0.574642 -0.179591,-0.167618 -0.383334,-0.293429 -0.610816,-0.377238 -0.335235,-0.1317 -0.694328,-0.173465 -1.077453,-0.125574 -0.371154,0.04789 -0.754186,0.227181 -1.149284,0.538468 -0.1317,0.107754 -0.269223,0.209628 -0.412895,0.305408 -0.143672,0.09578 -0.305651,0.179828 -0.485241,0.251664 -0.17959,0.05987 -0.388932,0.11386 -0.628386,0.161748 -0.22748,0.03592 -0.503043,0.05374 -0.826306,0.05374 -0.790196,0 -1.514496,-0.203744 -2.172994,-0.610815 -0.646525,-0.419044 -1.143141,-0.975767 -1.490348,-1.670183 h 10.092924 c 0.646524,0 1.173193,-0.191516 1.580265,-0.574642 0.407071,-0.395099 0.610815,-0.910056 0.610815,-1.544608 -0.02395,-1.173322 -0.269455,-2.268426 -0.736389,-3.286105 -0.454961,-1.02965 -1.071791,-1.927641 -1.850016,-2.693892 -0.778224,-0.766252 -1.687925,-1.365256 -2.729549,-1.796273 -1.041623,-0.442989 -2.143358,-0.664042 -3.304708,-0.664042 z m 0.07183,4.237984 c 0.933869,0 1.74833,0.239396 2.442745,0.718303 0.706389,0.478907 1.215232,1.113563 1.526522,1.90376 h -7.83053 c 0.143672,-0.371153 0.341303,-0.718535 0.592729,-1.041797 0.251426,-0.323263 0.5387,-0.598309 0.861963,-0.82579 0.335234,-0.239454 0.706555,-0.425372 1.113627,-0.557072 0.40707,-0.131698 0.837982,-0.197404 1.292944,-0.197404 z" />
    <path
       style="font-weight:bold;font-size:31.5081px;line-height:0;font-family:'Antipasto Pro';-inkscape-font-specification:'Antipasto Pro, Bold';text-align:center;letter-spacing:0px;word-spacing:0px;text-anchor:middle;fill:#ffde57;fill-opacity:1;stroke:#000000;stroke-width:0.79375;stroke-dasharray:none;stroke-opacity:1;paint-order:stroke fill markers"
       d="m 45.528289,11.672988 q 0,-0.466934 -0.17959,-0.862033 -0.161632,-0.3951 -0.466935,-0.682444 -0.305304,-0.3053034 -0.718361,-0.4669354 -0.3951,-0.1795898 -0.862035,-0.1795898 -0.466935,0 -0.879992,0.1795898 -0.395099,0.161632 -0.700403,0.4669354 -0.305304,0.287344 -0.484895,0.682444 -0.161631,0.395099 -0.161631,0.862033 v 3.915071 h -0.844074 q -0.466936,0 -0.879994,0.17959 -0.395098,0.161632 -0.700402,0.466936 -0.305304,0.287345 -0.484894,0.700402 -0.161632,0.395099 -0.161632,0.862034 0,0.466934 0.161632,0.879993 0.17959,0.395099 0.484894,0.700403 0.305304,0.305303 0.700402,0.484893 0.413058,0.17959 0.879994,0.17959 h 0.844074 v 10.236653 q 0,0.466935 0.161631,0.862033 0.179591,0.3951 0.484895,0.700403 0.305304,0.287345 0.700403,0.466936 0.413057,0.161631 0.879992,0.161631 0.466935,0 0.862035,-0.161631 0.413057,-0.179591 0.718361,-0.466936 0.305303,-0.305303 0.466935,-0.700403 0.17959,-0.395098 0.17959,-0.862033 V 20.0419 h 0.987747 q 0.466935,0 0.879994,-0.17959 0.413057,-0.17959 0.700402,-0.484893 0.305303,-0.305304 0.466935,-0.700403 0.17959,-0.413059 0.17959,-0.879993 0,-0.466935 -0.17959,-0.862034 -0.161632,-0.413057 -0.466935,-0.700402 -0.287345,-0.305304 -0.700402,-0.466936 -0.413059,-0.17959 -0.879994,-0.17959 h -0.987747 z"
       id="path7"
       inkscape:label="t" />
    <path
       style="font-weight:bold;font-size:31.5081px;line-height:0;font-family:'Antipasto Pro';-inkscape-font-specification:'Antipasto Pro, Bold';text-align:center;letter-spacing:0px;word-spacing:0px;text-anchor:middle;fill:#ffde57;fill-opacity:1;stroke:#000000;stroke-width:0.79375;stroke-dasharray:none;stroke-opacity:1;paint-order:stroke fill markers"
       d="m 35.920169,17.743144 q 0,-0.448976 -0.17959,-0.844075 -0.161631,-0.413058 -0.448976,-0.718361 -0.287345,-0.305304 -0.700403,-0.466936 -0.395098,-0.17959 -0.844074,-0.17959 -0.466936,0 -0.897953,0.17959 -0.413057,0.161632 -0.718361,0.466936 -0.305304,0.305303 -0.484894,0.718361 -0.179591,0.395099 -0.179591,0.844075 v 12.51745 q 0,0.466935 0.179591,0.862033 0.17959,0.3951 0.484894,0.700403 0.305304,0.305304 0.700402,0.484895 0.413058,0.161631 0.879994,0.161631 0.448976,0 0.844074,-0.161631 0.413058,-0.179591 0.718362,-0.484895 0.305304,-0.305303 0.466935,-0.700403 0.17959,-0.395098 0.17959,-0.862033 z"
       id="path6"
       inkscape:label="i-base" />
    <path
       style="font-weight:bold;font-size:31.5081px;line-height:0;font-family:'Antipasto Pro';-inkscape-font-specification:'Antipasto Pro, Bold';text-align:center;letter-spacing:0px;word-spacing:0px;text-anchor:middle;fill:#ffde57;fill-opacity:1;stroke:#000000;stroke-width:0.79375;stroke-dasharray:none;stroke-opacity:1;paint-order:stroke fill markers"
       d="m 31.286737,11.655029 q 0,0.484894 0.17959,0.933871 0.19755,0.431017 0.520813,0.754279 0.323263,0.323263 0.754279,0.520812 0.448976,0.179591 0.933871,0.179591 0.484894,0 0.91591,-0.179591 0.448976,-0.197549 0.772239,-0.520812 0.341222,-0.323262 0.520813,-0.754279 0.197548,-0.448977 0.197548,-0.933871 0,-0.502852 -0.197548,-0.93387 Q 35.704661,10.290142 35.363439,9.9668795 35.040176,9.6436167 34.5912,9.4640268 34.160184,9.2664769 33.67529,9.2664769 q -0.484895,0 -0.933871,0.1975499 -0.431016,0.1795899 -0.754279,0.5028527 -0.323263,0.3232625 -0.520813,0.7542795 -0.17959,0.431018 -0.17959,0.93387 z"
       id="path5"
       inkscape:label="i-dot" />
    <path
       style="font-weight:bold;font-size:31.5081px;line-height:0;font-family:'Antipasto Pro';-inkscape-font-specification:'Antipasto Pro, Bold';text-align:center;letter-spacing:0px;word-spacing:0px;text-anchor:middle;fill:#ffde57;fill-opacity:1;stroke:#000000;stroke-width:0.79375;stroke-dasharray:none;stroke-opacity:1;paint-order:stroke fill markers"
       d="M 28.251687,12.76849 Q 26.50966,11.026463 24.372534,10.182388 22.235408,9.3203538 19.97257,9.3203538 q -1.68815,0 -3.214668,0.4489769 -1.526518,0.4310163 -2.819569,1.2212143 -1.293051,0.790197 -2.334675,1.885699 -1.041624,1.095501 -1.7779449,2.388552 -0.7183616,1.293052 -1.1134604,2.765693 -0.3950989,1.472641 -0.3950989,2.999159 0,1.616314 0.4130578,3.106914 0.413058,1.472641 1.1673376,2.765692 0.7722388,1.29305 1.8138628,2.370593 1.059583,1.059583 2.334675,1.831821 1.293051,0.75428 2.765692,1.167339 1.472641,0.413058 3.053037,0.413058 2.298756,0 4.435882,-0.844076 2.155085,-0.862033 3.915071,-2.60406 0.305303,-0.305304 0.466934,-0.718362 0.161632,-0.413058 0.161632,-0.844074 0,-0.431017 -0.161632,-0.826117 -0.161631,-0.413058 -0.502852,-0.73632 -0.305304,-0.287344 -0.718362,-0.431017 -0.413058,-0.161631 -0.844074,-0.161631 -0.413058,0 -0.826117,0.161631 -0.413058,0.143673 -0.718361,0.448975 -1.149379,1.131421 -2.442429,1.616315 -1.293051,0.484893 -2.747733,0.466934 -1.526518,-0.01796 -2.819569,-0.592647 -1.293052,-0.592649 -2.24488,-1.580396 -0.951829,-0.987748 -1.4906,-2.280798 -0.538772,-1.31101 -0.538772,-2.765692 0,-1.508559 0.57469,-2.81957 0.574689,-1.311009 1.544477,-2.280797 0.987747,-0.969789 2.280797,-1.508559 1.311011,-0.556731 2.765693,-0.556731 1.418764,0 2.747733,0.502853 1.328968,0.484894 2.424471,1.580396 0.305302,0.305304 0.700401,0.466935 0.413059,0.143673 0.844076,0.143673 0.431016,-0.01796 0.844074,-0.179591 0.413058,-0.161631 0.736321,-0.484894 0.323262,-0.323263 0.484894,-0.718362 0.161631,-0.413057 0.161631,-0.826116 0,-0.431017 -0.161631,-0.826116 -0.161632,-0.395098 -0.484894,-0.718361 z"
       id="path3"
       inkscape:label="c" />
  </g>
</svg>
