<?xml version="1.0" encoding="UTF-8" standalone="no"?>
<!-- Created with Inkscape (http://www.inkscape.org/) -->

<svg
   width="210mm"
   height="297mm"
   viewBox="0 0 210 297"
   version="1.1"
   id="svg1"
   inkscape:version="1.3 (0e150ed, 2023-07-21)"
   sodipodi:docname="summation.svg"
   xmlns:inkscape="http://www.inkscape.org/namespaces/inkscape"
   xmlns:sodipodi="http://sodipodi.sourceforge.net/DTD/sodipodi-0.dtd"
   xmlns="http://www.w3.org/2000/svg"
   xmlns:svg="http://www.w3.org/2000/svg">
  <sodipodi:namedview
     id="namedview1"
     pagecolor="#ffffff"
     bordercolor="#000000"
     borderopacity="0.25"
     inkscape:showpageshadow="2"
     inkscape:pageopacity="0.0"
     inkscape:pagecheckerboard="0"
     inkscape:deskcolor="#d1d1d1"
     inkscape:document-units="mm"
     inkscape:zoom="1.0141844"
     inkscape:cx="383.06644"
     inkscape:cy="393.9126"
     inkscape:window-width="1920"
     inkscape:window-height="1011"
     inkscape:window-x="0"
     inkscape:window-y="0"
     inkscape:window-maximized="1"
     inkscape:current-layer="layer1" />
  <defs
     id="defs1" />
  <g
     inkscape:label="Layer 1"
     inkscape:groupmode="layer"
     id="layer1">
    <text
       xml:space="preserve"
       style="font-size:11.3495px;font-family:Comfortaa;-inkscape-font-specification:Comfortaa;fill:#000000;fill-opacity:1;stroke-width:2.73462;stroke-linecap:round;stroke-linejoin:round;stroke-miterlimit:4.2"
       x="13.79398"
       y="23.012787"
       id="text2"><tspan
         sodipodi:role="line"
         id="tspan2"
         style="stroke-width:2.73462"
         x="13.79398"
         y="23.012787">summation</tspan></text>
    <text
       xml:space="preserve"
       style="font-size:6.09851px;font-family:Comfortaa;-inkscape-font-specification:Comfortaa;fill:#000000;fill-opacity:1;stroke-width:1.46941;stroke-linecap:round;stroke-linejoin:round;stroke-miterlimit:4.2"
       x="28.59144"
       y="30.683559"
       id="text2-5"><tspan
         sodipodi:role="line"
         id="tspan2-3"
         style="stroke-width:1.46941"
         x="28.59144"
         y="30.683559">sigma notation</tspan></text>
    <text
       xml:space="preserve"
       style="font-size:3.67719px;font-family:Comfortaa;-inkscape-font-specification:Comfortaa;fill:#000000;fill-opacity:1;stroke-width:0.886003;stroke-linecap:round;stroke-linejoin:round;stroke-miterlimit:4.2"
       x="35.175045"
       y="53.375004"
       id="text2-5-9"><tspan
         sodipodi:role="line"
         id="tspan2-3-1"
         style="stroke-width:0.886003"
         x="35.175045"
         y="53.375004">75</tspan></text>
    <text
       xml:space="preserve"
       style="font-size:11.665px;font-family:Comfortaa;-inkscape-font-specification:Comfortaa;fill:#000000;fill-opacity:1;stroke-width:2.81063;stroke-linecap:round;stroke-linejoin:round;stroke-miterlimit:4.2"
       x="47.004425"
       y="65.626694"
       id="text2-5-9-3"><tspan
         sodipodi:role="line"
         id="tspan2-3-1-0"
         style="stroke-width:2.81063"
         x="47.004425"
         y="65.626694">s</tspan></text>
    <text
       xml:space="preserve"
       style="font-size:3.73064px;font-family:Comfortaa;-inkscape-font-specification:Comfortaa;fill:#000000;fill-opacity:1;stroke-width:0.898883;stroke-linecap:round;stroke-linejoin:round;stroke-miterlimit:4.2"
       x="39.666435"
       y="64.086678"
       id="text2-5-9-9"
       transform="scale(0.85539386,1.1690521)"><tspan
         sodipodi:role="line"
         id="tspan2-3-1-3"
         style="font-style:normal;font-variant:normal;font-weight:normal;font-stretch:normal;font-family:'Nimbus Mono PS';-inkscape-font-specification:'Nimbus Mono PS';stroke-width:0.898883"
         x="39.666435"
         y="64.086678">s = 1</tspan></text>
    <text
       xml:space="preserve"
       style="font-size:3.73064px;font-family:Comfortaa;-inkscape-font-specification:Comfortaa;fill:#000000;fill-opacity:1;stroke-width:0.898883;stroke-linecap:round;stroke-linejoin:round;stroke-miterlimit:4.2"
       x="20.263344"
       y="77.609528"
       id="text2-5-9-9-49"
       transform="scale(0.85539386,1.1690521)"><tspan
         sodipodi:role="line"
         id="tspan2-3-1-3-5"
         style="font-style:normal;font-variant:normal;font-weight:normal;font-stretch:normal;font-family:'Nimbus Mono PS';-inkscape-font-specification:'Nimbus Mono PS';stroke-width:0.898883"
         x="20.263344"
         y="77.609528">start from</tspan></text>
    <text
       xml:space="preserve"
       style="font-size:3.73064px;font-family:Comfortaa;-inkscape-font-specification:Comfortaa;fill:#000000;fill-opacity:1;stroke-width:0.898883;stroke-linecap:round;stroke-linejoin:round;stroke-miterlimit:4.2"
       x="16.171825"
       y="36.80434"
       id="text2-5-9-9-49-7"
       transform="scale(0.85539386,1.1690521)"><tspan
         sodipodi:role="line"
         id="tspan2-3-1-3-5-1"
         style="font-style:normal;font-variant:normal;font-weight:normal;font-stretch:normal;font-family:'Nimbus Mono PS';-inkscape-font-specification:'Nimbus Mono PS';stroke-width:0.898883"
         x="16.171825"
         y="36.80434">end at</tspan></text>
    <text
       xml:space="preserve"
       style="font-size:3.73064px;font-family:Comfortaa;-inkscape-font-specification:Comfortaa;fill:#000000;fill-opacity:1;stroke-width:0.898883;stroke-linecap:round;stroke-linejoin:round;stroke-miterlimit:4.2"
       x="66.714203"
       y="76.367783"
       id="text2-5-9-9-49-7-2"
       transform="scale(0.85539386,1.1690521)"><tspan
         sodipodi:role="line"
         id="tspan2-3-1-3-5-1-2"
         style="font-style:normal;font-variant:normal;font-weight:normal;font-stretch:normal;font-family:'Nimbus Mono PS';-inkscape-font-specification:'Nimbus Mono PS';stroke-width:0.898883"
         x="66.714203"
         y="76.367783">the formula</tspan></text>
    <text
       xml:space="preserve"
       style="font-size:11.1771px;font-family:Comfortaa;-inkscape-font-specification:Comfortaa;fill:#000000;fill-opacity:1;stroke-width:2.69309;stroke-linecap:round;stroke-linejoin:round;stroke-miterlimit:4.2"
       x="70.57122"
       y="56.653118"
       id="text2-5-9-9-4"
       transform="scale(0.85539386,1.1690521)"><tspan
         sodipodi:role="line"
         id="tspan2-3-1-3-9"
         style="font-style:normal;font-variant:normal;font-weight:normal;font-stretch:normal;font-family:'Nimbus Mono PS';-inkscape-font-specification:'Nimbus Mono PS';stroke-width:2.69309"
         x="70.57122"
         y="56.653118">=</tspan></text>
    <text
       xml:space="preserve"
       style="font-size:4.85478px;font-family:Comfortaa;-inkscape-font-specification:Comfortaa;fill:#000000;fill-opacity:1;stroke-width:1.16974;stroke-linecap:round;stroke-linejoin:round;stroke-miterlimit:4.2"
       x="84.845543"
       y="55.417908"
       id="text2-5-9-9-4-8"
       transform="scale(0.85539386,1.1690521)"><tspan
         sodipodi:role="line"
         id="tspan2-3-1-3-9-9"
         style="font-style:normal;font-variant:normal;font-weight:normal;font-stretch:normal;font-family:'Nimbus Mono PS';-inkscape-font-specification:'Nimbus Mono PS';stroke-width:1.16974"
         x="84.845543"
         y="55.417908">1 + 2 + ... + 75 =  </tspan></text>
    <path
       style="fill:#000000;fill-opacity:1;stroke-width:5.1252;stroke-linecap:round;stroke-linejoin:round;stroke-miterlimit:4.2"
       id="path8"
       d="m 42.279118,56.057348 c -0.258767,0.01398 -0.517476,0.01304 -0.776633,0.0102 -0.583997,0.01252 -1.168007,0.02142 -1.752127,0.02642 -1.042673,0.01216 -2.085271,0.0014 -3.127914,-0.0034 -0.920014,-0.0022 -1.840426,-0.0021 -2.759824,0.03536 -0.419091,0.02042 -0.835295,0.07401 -1.253007,0.11068 -0.350473,0.03365 -0.700029,0.07566 -1.049957,0.114397 -0.189859,0.03207 -0.386183,0.03914 -0.571362,0.09506 -0.06634,0.109681 -0.186642,0.20146 -0.199022,0.329045 -0.01723,0.177598 0.159745,0.227936 0.268112,0.287758 0.03966,0.02189 0.07635,0.04878 0.114444,0.0733 0.410364,0.26006 0.850922,0.466597 1.291786,0.668553 0.774882,0.335891 1.543532,0.684434 2.301516,1.056946 0.628051,0.320646 1.247472,0.657832 1.863258,1.001334 0.387632,0.215916 0.768519,0.443851 1.148092,0.673601 0.09779,0.054 0.193755,0.111615 0.294316,0.160484 0.02496,0.01213 0.0506,0.02282 0.07576,0.03451 0.01401,0.0065 0.02648,0.02242 0.04175,0.02009 0.01442,-0.0022 -0.02577,-0.01371 -0.03865,-0.02056 -0.02504,-0.125431 -0.08293,-0.248628 -0.0751,-0.376293 0.0054,-0.08801 0.193845,-0.124346 0.05143,-0.105366 -0.03084,0.0041 -0.06195,0.0066 -0.09246,0.01272 -0.0476,0.0095 -0.09438,0.02267 -0.141574,0.03401 -0.347358,0.112119 -0.614082,0.371042 -0.901415,0.58373 -0.09611,0.07114 -0.194813,0.138717 -0.29222,0.208075 -0.598019,0.418199 -1.202376,0.827704 -1.793616,1.255541 -0.278744,0.201706 -0.789128,0.584302 -1.061355,0.787493 -1.081507,0.822369 -2.200798,1.593144 -3.291687,2.402583 -0.370267,0.278973 -0.728091,0.573472 -1.076907,0.878656 -0.06727,0.05885 -0.326961,0.287524 -0.404924,0.365844 -0.04356,0.04376 -0.08242,0.09197 -0.123636,0.137954 -0.02918,0.07547 -0.09788,0.146166 -0.08754,0.226422 0.04078,0.316763 0.163713,0.380939 0.414555,0.476649 0.09526,0.03635 0.195685,0.05746 0.294379,0.08305 0.371134,0.09623 0.519005,0.121082 0.919253,0.204419 1.505568,0.294371 3.028654,0.488141 4.547072,0.702774 1.578976,0.236582 3.151546,0.512886 4.727575,0.767836 0.713796,0.112316 1.427113,0.231511 2.146298,0.304273 0.235136,0.01974 0.470667,0.04157 0.705063,0.0078 0.146772,-0.02428 0.288924,-0.06444 0.428167,-0.116224 0.173766,-0.07171 0.335662,-0.165105 0.484978,-0.278812 0.186694,-0.152083 0.292103,-0.369195 0.387981,-0.584524 0.0633,-0.170149 0.143073,-0.340985 0.167988,-0.522649 0.0051,-0.0374 0.0051,-0.07531 0.0077,-0.112965 -0.01584,-0.209003 -0.08955,-0.32294 -0.248274,-0.451939 -0.333967,-0.265046 -0.708798,0.207256 -0.374832,0.472302 v 0 c 0.03751,0.02792 0.01856,0.01225 0.01062,-0.02203 -3.19e-4,-0.0014 0.003,1.6e-4 0.0045,3.19e-4 0.0019,-0.0079 0.0037,-0.01583 0.0055,-0.02373 0.0037,0.05673 -0.01144,0.09976 -0.02927,0.154608 -0.02892,0.08897 -0.05882,0.177894 -0.09613,0.26376 -0.05283,0.123051 -0.107897,0.255201 -0.204937,0.350018 -0.09998,0.07964 -0.21215,0.139222 -0.328649,0.19143 -0.100907,0.03891 -0.20347,0.06671 -0.310221,0.08494 -0.180416,0.03535 -0.368382,-0.0092 -0.549713,-0.01225 -0.707259,-0.07114 -1.408554,-0.189704 -2.110537,-0.29958 -1.579988,-0.255585 -3.156501,-0.532642 -4.73947,-0.76964 -1.505571,-0.212816 -3.015784,-0.404825 -4.508721,-0.696083 -0.485601,-0.100816 -0.453764,-0.0885 -0.88255,-0.195581 -0.07514,-0.01876 -0.149056,-0.04242 -0.224644,-0.05926 -0.02197,-0.0049 -0.06159,-0.02758 -0.06729,-0.0058 -0.08703,0.332507 0.0981,0.129159 -0.03654,0.25911 0.141585,-0.164732 0.307779,-0.303781 0.471027,-0.44675 0.337255,-0.295357 0.683352,-0.580221 1.041415,-0.850177 1.091189,-0.809955 2.211238,-1.580647 3.293021,-2.403575 0.261235,-0.194992 0.780748,-0.584365 1.04969,-0.779 0.591576,-0.428129 1.196386,-0.837761 1.7947,-1.256314 0.104055,-0.07431 0.20939,-0.146855 0.312163,-0.222926 0.189697,-0.140409 0.3895,-0.32891 0.598535,-0.440626 0.026,-0.01389 0.05421,-0.02318 0.08131,-0.03477 0.02508,-0.007 0.0497,-0.01595 0.07524,-0.02107 0.119255,-0.02392 0.442939,-0.03547 0.474779,-0.192557 0.02695,-0.132956 -0.03943,-0.268439 -0.05915,-0.40266 -0.0275,-0.01881 -0.05395,-0.03924 -0.0825,-0.05641 -0.02291,-0.01378 -0.07808,-0.03544 -0.103317,-0.04757 -0.08786,-0.04224 -0.171225,-0.09303 -0.256791,-0.139563 -0.385692,-0.2334 -0.772707,-0.464976 -1.166576,-0.684345 -0.624959,-0.348545 -1.253548,-0.690796 -1.891073,-1.015913 -0.762974,-0.374804 -1.536407,-0.726125 -2.316415,-1.064014 -0.415233,-0.19 -0.830556,-0.383611 -1.21736,-0.62792 -0.02983,-0.01907 -0.05926,-0.03876 -0.08949,-0.0572 -0.02967,-0.01811 -0.05963,-0.03579 -0.09016,-0.05242 -0.145505,-0.07926 0.09417,0.05749 0.07039,0.184761 -0.02271,0.121535 -0.134064,0.207783 -0.201095,0.311673 -0.0064,0.0014 -0.02564,0.0057 -0.01925,0.0042 0.102836,-0.02373 0.209408,-0.0353 0.313753,-0.04973 0.04818,-0.0067 0.0964,-0.01304 0.144604,-0.01955 0.345422,-0.03825 0.690475,-0.07973 1.036426,-0.113054 0.408333,-0.03597 0.815208,-0.08807 1.224833,-0.108866 0.910266,-0.03739 1.821577,-0.03672 2.732453,-0.03486 1.045271,0.0047 2.090499,0.01556 3.135799,0.0033 0.580193,-0.005 1.160286,-0.01343 1.740349,-0.02643 0.261313,0.0028 0.522353,0.004 0.783247,-0.01016 0.426361,0 0.426361,-0.602965 0,-0.602965 z" />
    <path
       style="fill:#000000;fill-opacity:1;stroke-width:8.5;stroke-linecap:round;stroke-linejoin:round;stroke-miterlimit:4.2"
       id="path9"
       d="m 20.105923,45.592394 c 0.779725,1.009071 1.792241,1.803577 2.772148,2.606741 1.514681,1.277448 3.119654,2.438996 4.712226,3.615529 0.568741,0.420163 1.162937,-0.384157 0.594199,-0.804318 v 0 c -1.579094,-1.166563 -3.170833,-2.317813 -4.672544,-3.584641 -0.91307,-0.748268 -1.860782,-1.484431 -2.594875,-2.418143 -0.413539,-0.573572 -1.224693,0.01127 -0.811154,0.584832 z" />
    <path
       style="fill:#000000;fill-opacity:1;stroke-width:8.5;stroke-linecap:round;stroke-linejoin:round;stroke-miterlimit:4.2"
       id="path10"
       d="m 31.861061,85.133068 c 0.426262,-0.557284 0.808871,-1.147395 1.240718,-1.700242 0.364318,-0.457261 0.739786,-0.909828 1.16676,-1.310405 0.361728,-0.330099 0.726895,-0.659672 1.113435,-0.960749 0.256519,-0.256924 0.138833,-0.120772 0.353772,-0.407845 0.412753,-0.57414 -0.399201,-1.157859 -0.811953,-0.583721 v 0 c -0.09305,0.141576 -0.04038,0.07278 -0.15957,0.20519 -0.407779,0.322442 -0.799312,0.666427 -1.181169,1.01904 -0.463061,0.437271 -0.875327,0.925645 -1.270455,1.424331 -0.445223,0.573971 -0.845765,1.181518 -1.284248,1.760694 -0.391531,0.588817 0.441179,1.142524 0.83271,0.553707 z" />
    <path
       style="fill:#000000;fill-opacity:1;stroke-width:8.5;stroke-linecap:round;stroke-linejoin:round;stroke-miterlimit:4.2"
       id="path11"
       d="m 28.772662,49.55654 c 0.491958,0.405067 0.913556,0.883621 1.409237,1.283875 0.259368,0.180258 0.551497,0.311274 0.807606,0.496565 0.02773,0.02005 0.09728,0.04547 0.07432,0.07084 -0.02299,0.02543 -0.06698,-0.03271 -0.08022,-0.06432 -0.03437,-0.08204 -0.03736,-0.173942 -0.05603,-0.260913 0.0079,-0.03612 0.04421,-0.07761 0.02368,-0.108363 -0.0154,-0.02305 -0.0529,0.01654 -0.07926,0.02511 -0.228227,0.07418 -0.451321,0.156305 -0.683567,0.21784 -0.66998,0.129214 -1.33423,0.286877 -1.996133,0.452352 -0.294407,0.08206 -0.578432,0.189582 -0.858051,0.311444 -0.646671,0.286033 -0.24216,1.200565 0.404513,0.914532 v 0 c 0.225941,-0.102012 0.458333,-0.184856 0.696085,-0.255836 0.667549,-0.166902 1.337614,-0.323853 2.012854,-0.456687 0.330317,-0.08958 0.884066,-0.218434 1.14191,-0.43901 0.107059,-0.09158 0.184976,-0.212553 0.277466,-0.318828 0.0094,-0.164097 0.05958,-0.330922 0.02833,-0.492294 -0.0778,-0.401645 -0.790361,-0.672589 -1.088774,-0.873281 -0.49214,-0.388983 -0.89576,-0.875583 -1.38762,-1.266076 -0.539557,-0.457034 -1.185897,0.306014 -0.64634,0.763047 z" />
    <path
       style="fill:#000000;fill-opacity:1;stroke-width:8.5;stroke-linecap:round;stroke-linejoin:round;stroke-miterlimit:4.2"
       id="path12"
       d="m 34.409649,80.235477 c 0.658781,-0.10558 1.311548,-0.248936 1.954464,-0.427144 0.538456,-0.148976 0.224928,-0.003 0.0029,-0.127717 -0.02289,-0.01283 -0.129548,-0.142293 -0.18488,-0.209208 -0.01828,0.288086 -0.01275,0.570007 0.03257,0.855379 0.06992,0.241075 0.05929,0.463489 0.03135,0.706549 -0.08038,0.702524 0.913138,0.816197 0.993518,0.113673 v 0 c 0.03774,-0.331219 0.04524,-0.654704 -0.03789,-0.981081 -0.04394,-0.259932 -0.02156,-0.516416 -0.02318,-0.779841 -0.10173,-0.679315 -0.546163,-0.71669 -1.08281,-0.541054 -0.590944,0.16569 -1.192101,0.294656 -1.797137,0.396637 -0.702731,0.07856 -0.591624,1.072372 0.111106,0.993807 z" />
    <path
       style="fill:#000000;fill-opacity:1;stroke-width:8.5;stroke-linecap:round;stroke-linejoin:round;stroke-miterlimit:4.2"
       id="path13"
       d="m 63.679108,82.337662 c -0.582972,-0.319993 -1.15054,-0.658435 -1.665967,-1.079791 -0.48205,-0.379662 -0.912524,-0.818156 -1.362308,-1.234411 -0.513905,-0.515591 -1.049504,-1.006526 -1.503214,-1.577742 -0.428498,-0.52395 -0.84776,-1.053333 -1.286465,-1.568651 -0.329078,-0.447969 -0.71468,-0.848564 -1.078169,-1.267288 -0.16826,-0.185037 -0.323842,-0.382305 -0.471684,-0.584087 -0.420359,-0.568592 -1.224473,0.02588 -0.804116,0.594477 v 0 c 0.165314,0.222117 0.335624,0.442021 0.522076,0.6468 0.362675,0.41443 0.742664,0.814462 1.070552,1.258448 0.432167,0.507331 0.844621,1.029015 1.266827,1.544857 0.48841,0.607293 1.051653,1.140135 1.605002,1.687148 0.465418,0.430646 0.91144,0.883687 1.410502,1.276236 0.601731,0.487331 1.260329,0.891151 1.950524,1.242076 0.663316,0.24497 1.009759,-0.693103 0.34644,-0.938072 z" />
    <path
       style="fill:#000000;fill-opacity:1;stroke-width:8.5;stroke-linecap:round;stroke-linejoin:round;stroke-miterlimit:4.2"
       id="path14"
       d="m 54.857008,76.193695 c -0.133077,-0.459274 -0.242567,-0.925094 -0.312364,-1.398206 -0.0034,-0.239178 0.0689,-0.457314 0.143028,-0.680246 0.115946,-0.29417 0.202139,-0.589638 0.250402,-0.903153 0.07945,-0.46496 -0.0053,-0.93069 -0.05611,-1.39364 -0.0074,-0.06464 -0.01926,-0.128926 -0.02207,-0.193924 -0.0016,-0.03592 0.03092,0.07264 0.01828,0.106294 -0.03152,0.08395 -0.09365,0.153006 -0.143594,0.227484 -0.01294,0.01929 -0.05768,0.03411 -0.04474,0.05339 0.02215,0.03297 0.07328,0.03066 0.110485,0.04452 0.06783,0.02527 0.136374,0.04855 0.204563,0.07282 0.605649,0.254265 1.162563,0.610029 1.750345,0.902761 0.464416,0.249158 0.934879,0.478578 1.429957,0.660265 0.271841,0.118801 0.551452,0.21467 0.836559,0.295442 0.681019,0.190299 0.950143,-0.772806 0.269124,-0.963105 v 0 c -0.261062,-0.07159 -0.51416,-0.165192 -0.763087,-0.271819 -0.461143,-0.166857 -0.894906,-0.386567 -1.32759,-0.616331 -0.624988,-0.309716 -1.213712,-0.694243 -1.863836,-0.950677 -0.149653,-0.05204 -0.441759,-0.162709 -0.592545,-0.172422 -0.605046,-0.03897 -0.954794,0.32016 -0.855874,0.914406 0.0415,0.377909 0.120899,0.757565 0.06106,1.13716 -0.03653,0.257316 -0.115472,0.493218 -0.210244,0.735018 -0.123547,0.371594 -0.218699,0.746583 -0.183184,1.143167 0.07824,0.520528 0.196059,1.033785 0.343882,1.539036 0.203816,0.677095 1.161372,0.388856 0.957559,-0.28824 z" />
  </g>
</svg>
