<?xml version="1.0" encoding="iso-8859-1"?>
<!-- Uploaded to: SVG Repo, www.svgrepo.com, Generator: SVG Repo Mixer Tools -->
<svg fill="#000000" height="800px" width="800px" version="1.1" id="Layer_1" xmlns="http://www.w3.org/2000/svg" xmlns:xlink="http://www.w3.org/1999/xlink" 
	 viewBox="0 0 508 508" xml:space="preserve">
<g>
	<g>
		<path d="M41.9,6.143c-23.1,0-41.9,22.5-41.9,50.2s18.8,50.2,41.9,50.2c23.1,0,41.9-22.5,41.9-50.2S64.9,6.143,41.9,6.143z
			 M41.9,78.243c-6.4,0-13.6-9-13.6-22c0-12.9,7.2-22,13.6-22c6.4,0,13.6,9,13.6,22S48.3,78.243,41.9,78.243z"/>
	</g>
</g>
<g>
	<g>
		<path d="M144.4,84.443h-6v-70.3c0-5.7-3.4-10.9-8.7-13c-5.3-2.2-11.3-1-15.4,3.1l-20,20c-5.5,5.5-5.5,14.4,0,20
			c4.3,4.3,10.7,5.2,15.9,2.8v37.4h-6c-7.8,0-14.1,6.3-14.1,14.1s6.3,14.1,14.1,14.1h40.1c7.9,0,14.2-6.4,14.2-14.1
			C158.5,90.743,152.2,84.443,144.4,84.443z"/>
	</g>
</g>
<g>
	<g>
		<path d="M216.5,6.143c-23.1,0-41.9,22.5-41.9,50.2s18.8,50.2,41.9,50.2s41.9-22.6,41.9-50.2C258.4,28.643,239.6,6.143,216.5,6.143
			z M216.6,78.343c-6.5-0.1-13.6-9.1-13.6-22c0-12.9,7.2-22,13.6-22c6.4,0,13.6,9,13.6,22C230.2,69.243,223,78.343,216.6,78.343z"/>
	</g>
</g>
<g>
	<g>
		<path d="M319.1,84.343h-6v-70.2c0-5.7-3.4-10.9-8.7-13c-5.3-2.2-11.3-1-15.4,3.1l-20,20c-5.5,5.5-5.5,14.4,0,20
			c4.3,4.3,10.7,5.2,15.9,2.8v37.4H279v-0.1c-7.8,0-14.1,6.3-14.1,14.1c0,7.8,6.3,14.1,14.1,14.1h40.1c7.8,0,14.1-6.3,14.1-14.1
			C333.2,90.643,326.9,84.343,319.1,84.343z"/>
	</g>
</g>
<g>
	<g>
		<path d="M391.3,6.143c-23.1,0-41.9,22.5-41.9,50.2s18.9,50.2,41.9,50.2c23.1,0,41.9-22.5,41.9-50.2S414.4,6.143,391.3,6.143z
			 M391.3,78.343c-6.4,0-13.6-9-13.6-22s7.2-22,13.6-22c6.4,0,13.6,9,13.6,22C404.9,69.243,397.7,78.343,391.3,78.343z"/>
	</g>
</g>
<g>
	<g>
		<path d="M493.9,84.343h-6v-70.2c0-5.7-3.4-10.9-8.7-13c-5.3-2.2-11.3-1-15.4,3.1l-20,20c-5.5,5.5-5.5,14.4,0,20
			c4.3,4.3,10.7,5.2,15.9,2.8v37.4h-5.9v-0.1c-7.8,0-14.1,6.3-14.1,14.1c0,7.8,6.3,14.1,14.1,14.1h40.1c7.8,0,14.1-6.3,14.1-14.1
			C508,90.643,501.7,84.343,493.9,84.343z"/>
	</g>
</g>
<g>
	<g>
		<path d="M41.9,161.043c-23.1,0-41.9,22.5-41.9,50.2c0,27.7,18.8,50.2,41.9,50.2c23.1,0,41.9-22.5,41.9-50.2
			C83.8,183.543,64.9,161.043,41.9,161.043z M41.9,233.143c-6.4,0-13.6-9-13.6-22c0-12.9,7.2-22,13.6-22c6.4,0,13.6,9,13.6,22
			S48.3,233.143,41.9,233.143z"/>
	</g>
</g>
<g>
	<g>
		<path d="M164.4,239.243h-6v-70.2c0-5.7-3.4-10.9-8.7-13c-5.3-2.2-11.3-1-15.4,3.1l-20,20c-5.5,5.5-5.5,14.4,0,20
			c4.3,4.3,10.7,5.2,15.9,2.8v37.4h-5.9v-0.1c-7.8,0-14.1,6.3-14.1,14.1s6.3,14.1,14.1,14.1h40.1c7.8,0,14.1-6.3,14.1-14.1
			C178.5,245.543,172.2,239.243,164.4,239.243z"/>
	</g>
</g>
<g>
	<g>
		<path d="M233,161.043c-23,0-41.9,22.5-41.9,50.2c0,27.7,18.8,50.2,41.9,50.2c23.1,0,41.8-22.6,41.8-50.2
			C274.8,183.543,256,161.043,233,161.043z M233,233.143c-6.4,0-13.6-9-13.6-22c0-12.9,7.2-22,13.6-22s13.6,9,13.6,22
			S239.4,233.143,233,233.143z"/>
	</g>
</g>
<g>
	<g>
		<path d="M58.1,394.143h-6v-70.2c0-5.7-3.4-10.9-8.7-13c-5.3-2.2-11.3-1-15.4,3.1l-20,20c-5.5,5.5-5.5,14.4,0,20
			c4.3,4.3,10.7,5.2,15.9,2.8v37.4h-6c-7.8,0-14.1,6.3-14.1,14.1c0,7.8,6.3,14.1,14.1,14.1H58c7.8,0,14.1-6.3,14.1-14.1
			C72.1,400.543,65.9,394.143,58.1,394.143z"/>
	</g>
</g>
<g>
	<g>
		<path d="M166.1,394.143h-6v-70.2c0-5.7-3.4-10.9-8.7-13c-5.3-2.2-11.4-1-15.4,3.1l-20,20c-5.5,5.5-5.5,14.4,0,20
			c4.3,4.3,10.7,5.2,15.9,2.8v37.4h-6c-7.8,0-14.1,6.3-14.1,14.1c0,7.8,6.3,14.1,14.1,14.1H166c7.8,0,14.1-6.3,14.1-14.1
			C180.1,400.543,173.9,394.143,166.1,394.143z"/>
	</g>
</g>
<g>
	<g>
		<path d="M463.8,297.843v-33.6c0-49.3-40.1-89.4-89.4-89.4s-89.4,40.1-89.4,89.4v33.6c-23.3,0-44.2,19-44.2,42.3v125.5
			c0,23.3,19,42.3,42.3,42.3h182.5c23.3,0,42.3-19,42.3-42.3v-125.5C508,316.843,487.2,297.843,463.8,297.843z M313.2,264.243
			c0-33.7,27.5-61.2,61.2-61.2s61.2,27.5,61.2,61.2v33.6H313.2V264.243z M465.7,479.843H283.2c-7.8,0-14.1-6.3-14.1-14.1v-20.4h21.2
			c7.8,0,14.1-6.3,14.1-14.1c0-7.8-6.4-14.2-14.2-14.2H269v-28.2h56.4c7.8,0,14.1-6.3,14.1-14.1c0-7.8-6.3-14.1-14.1-14.1H269v-20.4
			c0-7.8,6.3-14.1,14.1-14.1h182.5c7.8,0,14.1,6.3,14.1,14.1v125.5h0.1C479.8,473.543,473.5,479.843,465.7,479.843z"/>
	</g>
</g>
</svg>