<?xml version="1.0" encoding="UTF-8" standalone="yes"?>
<svg fill="none" stroke-linecap="square" stroke-miterlimit="10" version="1.1" viewBox="0.0 0.0 568.511811023622 418.61942257217845" xmlns="http://www.w3.org/2000/svg">
 <clipPath id="a">
  <path d="m0 0h568.51v418.62h-568.51v-418.62z"/>
 </clipPath>
 <g clip-path="url(#a)">
  <path d="m0 0h568.51v418.62h-568.51z" fill="#000" fill-opacity="0"/>
  <path d="m168.52 35.55c43.409 0 78.598 37.77 78.598 84.362s-35.19 84.362-78.598 84.362v-39.299c21.704 0 39.299-20.175 39.299-45.063s-17.595-45.063-39.299-45.063z" fill="#f00"/>
  <path d="m168.52 35.55c43.409 0 78.598 37.77 78.598 84.362s-35.19 84.362-78.598 84.362v-39.299c21.704 0 39.299-20.175 39.299-45.063s-17.595-45.063-39.299-45.063z" stroke="#000" stroke-linecap="butt" stroke-linejoin="round"/>
  <path d="m0 23.539c3.4254e-14 13 42.156 23.539 94.157 23.539 52.002 0 94.157-10.539 94.157-23.539v192.76c0 13-42.156 23.539-94.157 23.539-52.002 0-94.157-10.539-94.157-23.539z" fill="#f00"/>
  <path d="m0 23.539c-2.2836e-14 -13 42.156-23.539 94.157-23.539 52.002-1.4273e-14 94.157 10.539 94.157 23.539s-42.156 23.539-94.157 23.539c-52.002 0-94.157-10.539-94.157-23.539z" fill="#f66"/>
  <path d="m188.31 23.539c0 13-42.156 23.539-94.157 23.539-52.002 0-94.157-10.539-94.157-23.539-2.2836e-14 -13 42.156-23.539 94.157-23.539 52.002-1.4273e-14 94.157 10.539 94.157 23.539v192.76c0 13-42.156 23.539-94.157 23.539-52.002 0-94.157-10.539-94.157-23.539v-192.76" fill="#000" fill-opacity="0"/>
  <path d="m188.31 23.539c0 13-42.156 23.539-94.157 23.539-52.002 0-94.157-10.539-94.157-23.539-2.2836e-14 -13 42.156-23.539 94.157-23.539 52.002-1.4273e-14 94.157 10.539 94.157 23.539v192.76c0 13-42.156 23.539-94.157 23.539-52.002 0-94.157-10.539-94.157-23.539v-192.76" stroke="#000" stroke-linecap="butt" stroke-linejoin="round"/>
  <path d="m21.294 66.005h145.73v133.67h-145.73z" fill="#000" fill-opacity="0"/>
  <path d="m54.216 111.26t0.3125 0q1.4531 0 3.6094-1.2812 0.6875-0.40625 1.6875-1.3594 1.0156 0.6875 1.0156 1.3125 0 0.70312-0.35938 1.0625-2.0781 1.7031-4.9219 2.2656-0.78125 0.1875-1.8438 0.1875t-1.8906-0.76562-0.82812-1.5469 0.125-1.2969q0.14062-0.51562 0.46875-1.2188 1.3594-3.0156 4.9531-7.5781l3.0781-3.7656 3.2344-3.6875 3.1875-3.4375 2.9844-3.0469 3.1875-2.0156q-0.078125 1.0781-0.73438 1.5781l-1.4375 1.2188-4.25 3.875-7.0156 6.625q-5.4375 5.1719-12.016 12.859-1.75 2.0156-2.6094 2.0156-0.54688 0-0.90625-0.45312-0.35938-0.46875-0.35938-1.4375 0-0.98438 0.54688-2.6406 0.5625-1.6719 1.5469-3.6406 0.98438-1.9844 2.375-4.2344 1.4062-2.2656 3.1406-4.7188 3.625-5.0938 8.7656-9.6406l-0.95312 2.0781-2.4531 2.5-3.4531 3.6875-4.5625 4.9531q-8.5312 9.375-14.531 12.438-2.4687 1.2656-4.5469 1.2656t-3.2656-0.90625q-1.2031-0.90625-1.2031-2.4219 0-1.2031 0.75-1.8125 0.90625-0.79688 1.7031-0.79688 2.0156 0 2.0156 1.7344 0 0.76562-0.57812 1.2812-0.59375 0.51562-1.4062 0.51562-0.82812 0-0.76562-0.78125l0.6875 0.015625q0 0.39062 0.4375 0.6875t1.4531 0.29688 2.0469-0.32812q1.0469-0.32812 2.3906-1.1094 1.3438-0.79688 3.0312-2.1094 1.7031-1.3281 3.7812-3.2656 2.0938-1.9375 4.6406-4.5312l5.625-5.9688q5.0469-5.5156 8.6094-8.6875 2.7969-2.4688 3.5625-2.4688 1.3594 0 1.3594 1.0156 0 0.48438-0.51562 0.96875l-0.54688 0.46875q-0.84375 0.75-1.7812 2.0312l-2.0938 3.0469-5.1094 7.9062q-7.125 11.578-8.7812 13.109l2.6406-4.2812 2.8438-3.1875 2.7188-2.9062 2.8281-2.8594 3.1875-3.125 3.8594-3.6719q9.125-8.5781 11.75-8.5781 1.0312 0 1.0312 0.98438 0 0.59375-0.67188 1.0469t-1.5781 1.25q-0.89062 0.78125-2.3125 2.3438-1.4219 1.5469-2.9375 3.3906l-3.0625 3.9531-3.1094 4.2188q-7 9.8438-7.375 10.516-0.40625 0.73438-0.40625 0.85938zm21.992-15.734q-0.39062 0.34375-0.89062 0.5625-0.48438 0.20312-1.2031 0.20312t-1.2812-0.59375q-0.54688-0.59375-0.54688-1.2812t0.21875-1.1719q0.23438-0.48438 0.625-0.84375 0.79688-0.8125 1.8281-0.8125t1.5781 0.625q0.54688 0.60938 0.54688 1.2969 0 0.67188-0.25 1.1719-0.23438 0.5-0.625 0.84375zm-12.156 15.641q0 0.0625 0.64062 0.0625t1.5469-0.45312q0.90625-0.46875 1.9062-1.2188t1.9375-1.6562l1.7344-1.75q0.76562-0.78125 1.2656-1.3906 0.51562-0.60938 1.1875-1.2812l1.625 1.4688q-0.78125 0.78125-1.3125 1.4062t-1.3438 1.5q-0.8125 0.85938-1.8438 1.8281t-2.1719 1.7812q-2.7344 1.9844-4.9062 1.9844-1.4375 0-2.4531-0.625-1.0312-0.625-1.0312-1.4688 0-0.85938 0.14062-1.4062t0.48438-1.2344 0.9375-1.5469q0.57812-0.875 1.4844-2.0625 0.89063-1.1875 2.1719-2.75l3.3438-3.9688q0.64062 0.17188 1.2656 0.17188h0.90625q0.46875 0 2.7656-0.23438-7.7656 9.25-8.5625 10.312-0.79688 1.0469-1.1719 1.6094-0.54688 0.84375-0.54688 0.92188zm9.0352 0.25q-0.1875 0 0.32812-0.09375 0.53125-0.09375 1.4688-0.53125 0.95312-0.4375 1.9375-1.1562 1-0.73438 1.9531-1.6094 0.95312-0.89062 1.7344-1.6875l1.3281-1.4375q0.54688-0.625 1.3281-1.4062l1.6562 1.4688q-0.85938 0.79688-1.4375 1.4375-0.5625 0.64062-1.4062 1.5-0.84375 0.84375-1.9062 1.8125-1.0469 0.95312-2.2031 1.7656-2.8125 1.9688-5.0312 1.9688-1.1094 0-1.9062-0.67188-0.8125-0.67188-0.8125-1.4062 0-0.75 0.0625-1.1406 0.046875-0.39062 0.23438-0.85938 0.1875-0.48438 0.5-1.0469t0.82812-1.3594l2.9844-4.4375 15.406-22q1.7969 0.25 4.9219-0.23438-19.781 27.5-20.438 28.484-0.65625 0.96875-0.95312 1.4531-0.29688 0.46875-0.4375 0.75-0.14062 0.29688-0.14062 0.4375zm25.984-30.906q1.6562 0.28125 4.8906-0.21875l-17.219 23.969q-4.5625 6.6094-6.0156 8.8438-1-0.17188-1.2969-0.17188-0.3125 0-0.46875 0.015625-0.17188 0.015625-0.34375 0.046875-0.17188 0.015625-0.35938 0.0625-0.1875 0.03125-2.2188 0.32812l23.031-32.875zm-8.875 30.953q-0.23438 0 0.32812-0.10938 0.5625-0.125 1.5312-0.59375t1.9844-1.2344 1.9531-1.6875 1.6875-1.7344q1.125-1.2188 2.2188-2.7188l1.7188 1.5625q-0.67188 0.67188-1.1562 1.25t-1.2969 1.4375-1.875 1.8594q-1.0469 1-2.2031 1.875-2.8438 2.0781-5.0156 2.0781-2.7812 0-2.7812-2.9219 0-2.0938 2.6094-4.6406 0.73438-0.75 0.73438-0.78125 0-0.1875-0.23438-0.26562-1.0312 0.57812-2.125 0.57812-2.2969 0-2.2969-1.4375 0-0.875 0.875-1.2969 0.875-0.4375 1.8438-0.4375t1.5156 0.15625q0.20312-0.09375 0.4375-0.35938 0.84375-0.875 1.5781-1.7656 0.75-0.90625 1.4531-1.5312 1.7344-1.5312 3.5781-1.5312 1.2344 0 2.0781 0.71875 0.85938 0.70312 0.8125 1.7969-0.03125 1.0781-0.70312 1.5938t-1.4688 0.51562-1.4219-0.57812q-0.60938-0.57812-0.57812-1.3906 0.10938-1.4062 1.2188-1.0938-0.17188 0.67188-0.40625 0.67188t-0.54688 0.125q-0.29688 0.10938-0.71875 0.45312-0.95312 0.73438-2.4531 2.6406-0.79688 0.90625-1.0156 0.76562 1.5625 0.4375 1.5625 2.6562 0 1.6562-1.4531 3.375-0.54688 0.65625-1.2031 1.2812-0.76562 0.6875-0.76562 0.71875z" fill="#fff"/>
  <path d="m39.731 141.81q0 1.2969 1.2344 1.2969 2.3281 0 5-2.2969 1.5938-1.375 2.1562-2.4219 0.57812-1.0469 0.60938-1.3281 0.17188-1.3594 1.0312-1.3594 1.0156 0 1.0156 1.1875t-0.40625 2.25q-0.39062 1.0625-1.0625 2t-1.5469 1.7344q-0.85938 0.79688-1.8906 1.3906-2.1719 1.2344-4.125 1.2344-1.9375 0-3.0938-0.89062-1.1562-0.90625-1.1562-2.4844t0.82812-2.9844q0.82812-1.4219 2.3125-2.6406 3.0781-2.5625 7.9219-3.7344 2.8438-0.64062 7.2344-0.64062 1.4531 0 3.4531 0.23438 3.7188 0.45312 5 0.45312 1.2969 0 2.3281-0.21875 1.0312-0.23438 1.8125-0.65625 1.5-0.79688 2.3281-2.2031 0.46875-0.73438 1.2969-0.73438 0.84375 0 0.84375 0.95312 0 0.5625-0.35938 0.92188-3.3438 5.3281-10.688 5.3281-1.7031 0-4.3125-0.3125-4.9219-0.59375-6.4219-0.59375t-2.8906 0.28125-2.6719 0.79688q-1.2812 0.5-2.3594 1.1719-1.0781 0.65625-1.875 1.4219-1.5469 1.5-1.5469 2.8438zm-7.7656 15.125q0 0.84375-0.59375 1.375-0.57812 0.51562-1.375 0.51562t-0.82812-0.92188h0.76562q0 0.45312 0.70312 0.82812 0.90625 0.5 2.0312 0.5 1.125 0 1.9688-0.15625t1.75-0.57812q0.90625-0.4375 1.9219-1.2031 1.0156-0.78125 2.1719-2.0469 2.4531-2.6719 5.2188-7.3281 0.10938-0.21875 0.78125 0.26562-6.1562 2.2031-8.9062 4.6719-0.75 0.6875-0.96875 1.0625-0.64062 1.0781-1.4219 1.0781t-0.78125-0.92188q0-0.53125 0.23438-0.8125 0.8125-1.9375 4.25-3.875 3.3594-1.875 7.9375-2.8438 0.10938 0.54688 0.10938 0.70312 2.7031-5.5156 7.1562-8.6406 3.7969-2.6719 6.4688-2.6719 1.2812 0 1.2812 0.92188 0 0.90625-0.48438 0.98438-0.46875 0.0625-1.2344 0.29688-0.75 0.21875-1.9219 0.96875-1.1719 0.73438-2.4062 1.875-2.5781 2.3906-3.8438 4.2969 0.65625-0.17188 1.8906-0.60938 0.14062-0.09375 0.51562-0.85938 1.3438 0 2.4219 0.125t3.25 0.92188q-3.8906 1.7656-5.6406 4.3438-0.5625 0.8125-0.79688 1.4219t-0.5 0.84375-0.67188 0.23438q-1.0625 0-1.0625-1.1094 0-0.59375 0.71875-2.2031 0.73438-1.625 1.2656-1.4375 0.125 0.53125-1.125 0.82812l-2.1562 0.46875q-1.7031 2.9844-4.0625 5.8594-2.3594 2.8594-4.4062 4.3906-3.875 2.9219-8.7344 2.9219-1.9844 0-3.5469-0.96875-1.8125-1.1094-1.8125-2.7031 0-1.8438 1.8125-2.3438 0.45312-0.10938 0.9375-0.10938t1.0938 0.40625q0.625 0.39062 0.625 1.2344zm33.207 1.3281q-1.2188 0-1.1562-0.60938-1.7656 2.5469-4.6719 3.4844-1.0312 0.3125-2.0156 0.3125-0.96875 0-1.7188-0.25t-1.2656-0.70312q-2.0156-1.75-0.54688-5.625 0.53125-1.3906 1.3594-2.5938 0.8125-1.2188 1.8281-2.2344 1.0312-1.0312 2.2031-1.8438 2.7344-1.8281 5.3906-1.8281 1.2969 0 2.3281 0.71875t1.0938 1.9844-0.125 2.2344-0.57812 1.9219q-0.75 1.9062-1.8594 3.2969-0.17188-0.375 0.046875-0.42188t0.65625-0.26562q0.4375-0.23438 0.95312-0.60938t1.0156-0.875 0.9375-0.95312l0.73438-0.79688q0.3125-0.375 0.96875-1.0938l1.7969 1.4062q-0.92188 0.875-1.3125 1.3125-0.39062 0.42188-0.90625 0.92188 0 0-1.0312 1.0156-2.2656 2.0938-4.125 2.0938zm-7.7188 0.875q0.125 0.0625 0.48438 0.0625 1 0 2.7812-1.2656 1.4375-1.0312 2.9844-1.9375h-0.60938q0-2.0938 1.6094-3.1875 0.42188-0.29688 0.57812-0.23438 0.60938-1.5625 0.5625-2.625-0.078125-1.2188-0.65625-1.2188-1.9219 0-5.8281 4.875-2.4531 3.1094-2.3281 4.6875 0 0.625 0.42188 0.84375zm17.461-0.375q0 0.35938 0.25 0.35938 0.26562 0 1.0781-0.40625t1.7344-1.0938q0.92188-0.70312 1.8125-1.5312l1.6719-1.6875q0.76562-0.78125 1.3281-1.4062l1.3438-1.5312 1.7188 1.5156q-1.0469 0.92188-1.625 1.5781l-1.4219 1.5781q-5.0156 5.3125-8.8125 5.3125-1.4062 0-2.3438-0.76562-0.9375-0.78125-0.9375-2.0781 0-3.3594 7.0938-8.125-2.1719-0.35938-3.125-0.78125-1 2.0625-3.7656 4.9062-0.75 0.76562-0.96875 0.76562-0.20312 0-0.73438 0.54688-0.54688 0.53125-0.65625-0.42188-0.10938-0.96875-0.046875-1.2031 0.046875-0.23438 0.25-0.46875 0.92188-1.0312 1.6875-1.9688 1.75-2.2031 2.2344-3.2031-0.375-0.23438-0.51562-1-0.14062-0.78125 0-1.3906t0.45312-1.0781q0.76562-1.125 1.8594-1.125 2.0625 0 2.0625 1.7344 0 0.65625-0.28125 1.1562l-0.39062 0.67188q-0.20312 0.26562-0.20312 0.5625-0.39062 0 0.95312 0.09375 1.3594 0.078125 1.9844 0.1875 1.3125 0.25 2.0469 0.28125 1.3438 0.03125 1.3438 1.125 0 0.5625-0.78125 1.1875-0.76562 0.625-1.5156 1.3281-0.73438 0.70312-1.4375 1.4688t-1.3281 1.5625-1.0781 1.5312q-0.9375 1.4375-0.9375 1.8125z" fill="#fff"/>
  <path d="m32.481 205.16q0 0.82812-0.59375 1.3438-0.59375 0.51562-1.375 0.51562-0.76562 0-0.82812-0.92188h0.78125q0 0.39062 0.57812 0.76562 0.76562 0.45312 1.9844 0.45312 1.2344 0 2.2969-0.42188 1.0781-0.4375 2.0469-1.2188 0.98438-0.79688 1.875-1.8906 0.90625-1.1094 1.7656-2.3906 0.875-1.2812 1.7188-2.6875l1.375-2.2344q-3.5312-0.10938-6.6406-1.9375-3.5156-2.0625-3.2812-5.2969 0.10938-2 1.4062-3.6406 1.3125-1.6406 3.3281-2.8125 4.1875-2.3906 9.875-2.3906 2.4375 0 3.7031 0.60938 0.75 0.39062 0.75 1.1719 0 0.76562-0.65625 0.76562t-0.82812-0.03125q-0.15625-0.046875-0.53125-0.125-1.2812-0.29688-2.5781-0.29688t-2.7188 0.25-2.7188 0.71875-2.4062 1.125-1.9062 1.4531q-1.6562 1.6875-1.75 3.6719-0.10938 1.5156 1.8594 2.8281 2.5156 1.7031 6.4062 1.8281 6.6719-10.516 12.531-13.109 1.9844-0.85938 3.625-0.85938 3.7656 0 3.5938 3.2969-0.125 2.3281-2.4219 5.1094-3.7031 4.4062-9.5781 6.5312-2.0625 0.76562-3.8906 1l-2.0312 3.0312q-5.4219 7.8438-10.547 9.5469-1.5938 0.54688-3.0625 0.54688t-2.4219-0.23438q-0.9375-0.25-1.6406-0.6875-1.5469-1-1.5469-2.5938 0-1.8281 1.8125-2.3438 0.42188-0.10938 0.90625-0.10938 0.5 0 1.1094 0.42188 0.625 0.40625 0.625 1.25zm17.125-10.453q4.6562-1.4062 8.8281-5.0469 2.4688-2.1875 3.5-4.3281 0.98438-2.0312 0.375-2.6562-0.15625-0.14062-0.79688-0.125t-1.7812 0.67188q-1.125 0.65625-2.4219 1.9844-2.5781 2.5781-6.0469 8.1094-1.1406 1.7188-1.6562 1.3906zm12.008 14.75q-2.7812 0-2.7812-2.0469 0-1.2812 1.2969-3l1.6406-1 0.14062 0.1875q-2.8594 4.4219-6 5.5312-0.9375 0.32812-1.6562 0.32812-3.2344 0-3.2344-3.3906 0-3.3281 2.6094-6.2969 3.7188-4.3438 7.6094-5.1719 1.1562-0.21875 2-0.21875 0.84375 0 1.3906 0.125 0.5625 0.125 1.0156 0.40625 1.0938 0.70312 1.0938 1.6562t-1.0625 1.3906l1.6094-3.3125q0.95312 0.28125 1.2812 0.28125 1.0938 0 3.6875-0.40625l-7.9688 9.6094q-2.1563 2.5156-2.1563 3.3125-0.20312 0 0.125-0.09375 0.34375-0.10938 1.1875-0.5 0.85938-0.39062 1.75-1.0469 0.90625-0.67188 1.7812-1.5t1.625-1.625q0.76562-0.8125 1.3594-1.5156l1.4844-1.6719 1.6719 1.4219-1.5625 1.75q-5.875 6.7969-9.9375 6.7969zm-4.7656-7.3438q-2.5781 3.1094-2.5781 4.9375 0 0.15625 0.0625 0.15625 2.4688 0 7.5781-6.0156l1.6094-1.9375q1.0156-1.5312 1.0156-2.0781t-0.54688-0.54688q-1.5156 0-4.7656 2.9531-1.1562 1.0625-2.375 2.5312zm15.59 7q-0.96875-0.17188-1.5312-0.17188-0.9375 0-3.75 0.67188l8.0469-11.484q1.1406-1.5781 1.1406-1.7188 0.42188-0.125 0.42188 0.28125-0.32812 0-2.9531 3.2656l-1.3594 1.6875q-0.85938 0.4375-1.5156-0.25t-0.015625-1.3281q0.53125-0.54688 1.2344-1.4688 0.70312-0.9375 1.5156-1.8281 2.1562-2.3906 3.7969-2.3906 3.3281 0 2.1562 3.2969-0.1875 0.57812-0.79688 1.4219l-4.2969 5.25-0.32812-0.10938q4.2969-5.6875 6.4062-7.4688 2.1094-1.75 3.2031-2.0625 1.1094-0.32812 1.8594-0.32812 0.76562 0 1.3594 0.23438t0.98438 0.64062q0.75 0.73438 0.73438 1.6875 0 0.95312-0.3125 1.8125-0.29688 0.84375-0.96875 1.9375-1.3594 2.1562-4.5 5.5781-1.1562 1.1875-1.1719 1.2656-0.015625 0.0625-0.015625 0.09375-0.39062 0 0.48438-0.1875 0.89062-0.20312 1.8125-0.64062t1.875-1.1562 1.8281-1.5938 1.5781-1.6875q0.71875-0.8125 1.2031-1.4219t1.1875-1.4531l1.7656 1.4375q-0.8125 0.8125-1.3125 1.4531t-1.2812 1.5q-0.76562 0.85938-1.7344 1.8281-0.96875 0.95312-2.0938 1.7812-2.6719 1.9688-4.9375 1.9688-2.1562 0-3.0781-1.2031-0.40625-0.48438-0.40625-1.0469 0-0.57812 0.125-1.1562 0.14062-0.57812 0.60938-1.4375 0.96875-1.6562 2.6719-3.5625 1.7188-1.9219 2.2188-2.5625 0.51562-0.64062 0.79688-1.0938 0.45312-0.73438 0.45312-1 0.125 0-0.10938 0.125-1.5938 0-5.8125 4.1406-2.2031 2.1562-5.0781 5.6875l-2.1094 2.7656zm18.164-1.6719q-0.21875 0 0.32812-0.09375 0.54688-0.10938 1.3594-0.48438 0.82812-0.375 1.7031-1 0.89062-0.625 1.7344-1.4219 0.85938-0.79688 1.5938-1.5938 0.75-0.8125 1.3438-1.5156l1.5312-1.8281 1.75 1.375-1.5781 1.8125q-5.6875 6.7656-9.7969 6.7656-1.375 0-2.1719-0.65625t-0.79688-1.3906 0.0625-1.1406q0.046875-0.40625 0.23438-0.875t0.51562-1.0469q0.3125-0.57812 0.84375-1.3906l3.0625-4.4219 4.1719-5.8125v0.03125q-1.4062 0-1.4062-1.1094 0-1.125 1.5625-1.125h1.3594l3.6562-5.1562q1.75 0.28125 4.9688-0.23438l-4 5.3906h3.3906q1.375 0 1.375 1.125 0 1.1094-1.3125 1.1094h-5.1094l-7.8281 10.641q-2.0469 2.875-2.2969 3.4531-0.25 0.5625-0.25 0.59375zm17.379 2.0156q-2.7812 0-2.7812-2.0469 0-1.2812 1.2969-3l1.6406-1 0.14062 0.1875q-2.8594 4.4219-6 5.5312-0.9375 0.32812-1.6562 0.32812-3.2344 0-3.2344-3.3906 0-3.3281 2.6094-6.2969 3.7188-4.3438 7.6094-5.1719 1.1562-0.21875 2-0.21875t1.3906 0.125q0.5625 0.125 1.0156 0.40625 1.0938 0.70312 1.0938 1.6562t-1.0625 1.3906l1.6094-3.3125q0.95312 0.28125 1.2812 0.28125 1.0938 0 3.6875-0.40625l-7.9688 9.6094q-2.1562 2.5156-2.1562 3.3125-0.20312 0 0.125-0.09375 0.34375-0.10938 1.1875-0.5 0.85938-0.39062 1.75-1.0469 0.90625-0.67188 1.7812-1.5t1.625-1.625q0.76562-0.8125 1.3594-1.5156l1.4844-1.6719 1.6719 1.4219-1.5625 1.75q-5.875 6.7969-9.9375 6.7969zm-4.7656-7.3438q-2.5781 3.1094-2.5781 4.9375 0 0.15625 0.0625 0.15625 2.4688 0 7.5781-6.0156l1.6094-1.9375q1.0156-1.5312 1.0156-2.0781t-0.54688-0.54688q-1.5156 0-4.7656 2.9531-1.1562 1.0625-2.375 2.5312z" fill="#fff"/>
  <path d="m141.02 119.74c7.6312-17.583 37.393 0 0 22.606-37.393-22.606-7.6312-40.189 0-22.606z" fill="#fff"/>
  <path d="m141.02 119.74c7.6312-17.583 37.393 0 0 22.606-37.393-22.606-7.6312-40.189 0-22.606z" stroke="#000" stroke-linecap="butt" stroke-linejoin="round"/>
  <path d="m247.12 84.976l87.67-68.37 223.42 174.64-87.67 68.37z" fill="#d9d9d9"/>
  <path d="m247.12 84.976l87.67-68.37 223.42 174.64-87.67 68.37z" stroke="#000" stroke-linecap="butt" stroke-linejoin="round"/>
  <path d="m317.82 70.456c0.44357-38.912 33.088-70.09 72.913-69.638 19.125 0.21719 37.382 7.8486 50.754 21.215 13.373 13.367 20.766 31.374 20.553 50.06-0.44357 38.912-33.088 70.09-72.913 69.638-39.825-0.45227-71.751-32.363-71.307-71.276z" fill="#783f04"/>
  <path d="m317.82 70.456c0.44357-38.912 33.088-70.09 72.913-69.638 19.125 0.21719 37.382 7.8486 50.754 21.215 13.373 13.367 20.766 31.374 20.553 50.06-0.44357 38.912-33.088 70.09-72.913 69.638-39.825-0.45227-71.751-32.363-71.307-71.276z" stroke="#000" stroke-linecap="butt" stroke-linejoin="round"/>
  <path d="m415.68 27.378c3.6614-7.0092 17.491 0.22507-0.1181 9.0709-17.373-9.2959-3.3596-16.172 0.1181-9.0709z" fill="#000"/>
  <path d="m415.68 27.378c3.6614-7.0092 17.491 0.22507-0.1181 9.0709-17.373-9.2959-3.3596-16.172 0.1181-9.0709z" stroke="#000" stroke-linecap="butt" stroke-linejoin="round"/>
  <path d="m427.42 79.515c3.6614-7.0092 17.491 0.22507-0.1181 9.0709-17.373-9.2959-3.3596-16.172 0.1181-9.0709z" fill="#000"/>
  <path d="m427.42 79.515c3.6614-7.0092 17.491 0.22507-0.1181 9.0709-17.373-9.2959-3.3596-16.172 0.1181-9.0709z" stroke="#000" stroke-linecap="butt" stroke-linejoin="round"/>
  <path d="m404.61 112.59c3.6614-7.0092 17.491 0.22506-0.1181 9.0709-17.373-9.2959-3.3596-16.172 0.1181-9.0709z" fill="#000"/>
  <path d="m404.61 112.59c3.6614-7.0092 17.491 0.22506-0.1181 9.0709-17.373-9.2959-3.3596-16.172 0.1181-9.0709z" stroke="#000" stroke-linecap="butt" stroke-linejoin="round"/>
  <path d="m356.75 105.5c3.6614-7.0092 17.491 0.22507-0.1181 9.0709-17.373-9.2959-3.3596-16.172 0.1181-9.0709z" fill="#000"/>
  <path d="m356.75 105.5c3.6614-7.0092 17.491 0.22507-0.1181 9.0709-17.373-9.2959-3.3596-16.172 0.1181-9.0709z" stroke="#000" stroke-linecap="butt" stroke-linejoin="round"/>
  <path d="m382.89 71.51c3.6614-7.0092 17.491 0.22507-0.1181 9.0709-17.373-9.2959-3.3596-16.172 0.1181-9.0709z" fill="#000"/>
  <path d="m382.89 71.51c3.6614-7.0092 17.491 0.22507-0.1181 9.0709-17.373-9.2959-3.3596-16.172 0.1181-9.0709z" stroke="#000" stroke-linecap="butt" stroke-linejoin="round"/>
  <path d="m331.69 60.626c3.6614-7.0092 17.491 0.22507-0.11813 9.0709-17.373-9.2959-3.3596-16.172 0.11813-9.0709z" fill="#000"/>
  <path d="m331.69 60.626c3.6614-7.0092 17.491 0.22507-0.11813 9.0709-17.373-9.2959-3.3596-16.172 0.11813-9.0709z" stroke="#000" stroke-linecap="butt" stroke-linejoin="round"/>
  <path d="m386.34 41.515c3.6614-7.0092 17.491 0.22506-0.11813 9.0709-17.373-9.2959-3.3596-16.172 0.11813-9.0709z" fill="#000"/>
  <path d="m386.34 41.515c3.6614-7.0092 17.491 0.22506-0.11813 9.0709-17.373-9.2959-3.3596-16.172 0.11813-9.0709z" stroke="#000" stroke-linecap="butt" stroke-linejoin="round"/>
  <path d="m359.66 25.192c3.6614-7.0092 17.491 0.22507-0.1181 9.0709-17.373-9.2959-3.3596-16.172 0.1181-9.0709z" fill="#000"/>
  <path d="m359.66 25.192c3.6614-7.0092 17.491 0.22507-0.1181 9.0709-17.373-9.2959-3.3596-16.172 0.1181-9.0709z" stroke="#000" stroke-linecap="butt" stroke-linejoin="round"/>
  <path d="m333.63 86.636c0.44354-38.912 33.088-70.09 72.913-69.638 19.125 0.21719 37.382 7.8486 50.754 21.215 13.373 13.367 20.766 31.374 20.553 50.06-0.44357 38.912-33.088 70.09-72.913 69.638-39.825-0.45226-71.751-32.363-71.307-71.276z" fill="#783f04"/>
  <path d="m333.63 86.636c0.44354-38.912 33.088-70.09 72.913-69.638 19.125 0.21719 37.382 7.8486 50.754 21.215 13.373 13.367 20.766 31.374 20.553 50.06-0.44357 38.912-33.088 70.09-72.913 69.638-39.825-0.45226-71.751-32.363-71.307-71.276z" stroke="#000" stroke-linecap="butt" stroke-linejoin="round"/>
  <path d="m431.5 43.558c3.6614-7.0092 17.491 0.22506-0.1181 9.0709-17.373-9.2959-3.3596-16.172 0.1181-9.0709z" fill="#000"/>
  <path d="m431.5 43.558c3.6614-7.0092 17.491 0.22506-0.1181 9.0709-17.373-9.2959-3.3596-16.172 0.1181-9.0709z" stroke="#000" stroke-linecap="butt" stroke-linejoin="round"/>
  <path d="m443.24 95.695c3.6614-7.0092 17.491 0.22506-0.11813 9.0709-17.373-9.2959-3.3596-16.172 0.11813-9.0709z" fill="#000"/>
  <path d="m443.24 95.695c3.6614-7.0092 17.491 0.22506-0.11813 9.0709-17.373-9.2959-3.3596-16.172 0.11813-9.0709z" stroke="#000" stroke-linecap="butt" stroke-linejoin="round"/>
  <path d="m420.42 128.77c3.6614-7.0092 17.491 0.22505-0.1181 9.0709-17.373-9.2959-3.3596-16.172 0.1181-9.0709z" fill="#000"/>
  <path d="m420.42 128.77c3.6614-7.0092 17.491 0.22505-0.1181 9.0709-17.373-9.2959-3.3596-16.172 0.1181-9.0709z" stroke="#000" stroke-linecap="butt" stroke-linejoin="round"/>
  <path d="m372.57 121.68c3.6614-7.0092 17.491 0.22507-0.11813 9.0709-17.373-9.2959-3.3596-16.172 0.11813-9.0709z" fill="#000"/>
  <path d="m372.57 121.68c3.6614-7.0092 17.491 0.22507-0.11813 9.0709-17.373-9.2959-3.3596-16.172 0.11813-9.0709z" stroke="#000" stroke-linecap="butt" stroke-linejoin="round"/>
  <path d="m398.71 87.69c3.6614-7.0092 17.491 0.22507-0.11813 9.0709-17.373-9.2959-3.3596-16.172 0.11813-9.0709z" fill="#000"/>
  <path d="m398.71 87.69c3.6614-7.0092 17.491 0.22507-0.11813 9.0709-17.373-9.2959-3.3596-16.172 0.11813-9.0709z" stroke="#000" stroke-linecap="butt" stroke-linejoin="round"/>
  <path d="m347.51 76.806c3.6614-7.0092 17.491 0.22506-0.1181 9.0709-17.373-9.2959-3.3596-16.172 0.1181-9.0709z" fill="#000"/>
  <path d="m347.51 76.806c3.6614-7.0092 17.491 0.22506-0.1181 9.0709-17.373-9.2959-3.3596-16.172 0.1181-9.0709z" stroke="#000" stroke-linecap="butt" stroke-linejoin="round"/>
  <path d="m402.16 57.695c3.6614-7.0092 17.491 0.22506-0.1181 9.0709-17.373-9.2959-3.3596-16.172 0.1181-9.0709z" fill="#000"/>
  <path d="m402.16 57.695c3.6614-7.0092 17.491 0.22506-0.1181 9.0709-17.373-9.2959-3.3596-16.172 0.1181-9.0709z" stroke="#000" stroke-linecap="butt" stroke-linejoin="round"/>
  <path d="m375.48 41.372c3.6614-7.0092 17.491 0.22506-0.11813 9.0709-17.373-9.2959-3.3596-16.172 0.11813-9.0709z" fill="#000"/>
  <path d="m375.48 41.372c3.6614-7.0092 17.491 0.22506-0.11813 9.0709-17.373-9.2959-3.3596-16.172 0.11813-9.0709z" stroke="#000" stroke-linecap="butt" stroke-linejoin="round"/>
  <path d="m349.45 102.82c0.44357-38.912 33.088-70.09 72.913-69.638 19.125 0.21718 37.382 7.8486 50.754 21.215 13.373 13.367 20.766 31.374 20.553 50.06-0.44357 38.912-33.088 70.09-72.913 69.638-39.825-0.45227-71.751-32.363-71.307-71.276z" fill="#783f04"/>
  <path d="m349.45 102.82c0.44357-38.912 33.088-70.09 72.913-69.638 19.125 0.21718 37.382 7.8486 50.754 21.215 13.373 13.367 20.766 31.374 20.553 50.06-0.44357 38.912-33.088 70.09-72.913 69.638-39.825-0.45227-71.751-32.363-71.307-71.276z" stroke="#000" stroke-linecap="butt" stroke-linejoin="round"/>
  <path d="m447.32 59.738c3.6614-7.0092 17.491 0.22506-0.11813 9.0709-17.373-9.2959-3.3596-16.172 0.11813-9.0709z" fill="#000"/>
  <path d="m447.32 59.738c3.6614-7.0092 17.491 0.22506-0.11813 9.0709-17.373-9.2959-3.3596-16.172 0.11813-9.0709z" stroke="#000" stroke-linecap="butt" stroke-linejoin="round"/>
  <path d="m459.06 111.88c3.6614-7.0092 17.491 0.22507-0.1181 9.0709-17.373-9.2959-3.3596-16.172 0.1181-9.0709z" fill="#000"/>
  <path d="m459.06 111.88c3.6614-7.0092 17.491 0.22507-0.1181 9.0709-17.373-9.2959-3.3596-16.172 0.1181-9.0709z" stroke="#000" stroke-linecap="butt" stroke-linejoin="round"/>
  <path d="m436.24 144.95c3.6614-7.0092 17.491 0.22507-0.1181 9.0709-17.373-9.2959-3.3596-16.172 0.1181-9.0709z" fill="#000"/>
  <path d="m436.24 144.95c3.6614-7.0092 17.491 0.22507-0.1181 9.0709-17.373-9.2959-3.3596-16.172 0.1181-9.0709z" stroke="#000" stroke-linecap="butt" stroke-linejoin="round"/>
  <path d="m388.39 137.86c3.6614-7.0092 17.491 0.22507-0.1181 9.0709-17.373-9.2959-3.3596-16.172 0.1181-9.0709z" fill="#000"/>
  <path d="m388.39 137.86c3.6614-7.0092 17.491 0.22507-0.1181 9.0709-17.373-9.2959-3.3596-16.172 0.1181-9.0709z" stroke="#000" stroke-linecap="butt" stroke-linejoin="round"/>
  <path d="m414.52 103.87c3.6614-7.0092 17.491 0.22507-0.1181 9.0709-17.373-9.2959-3.3596-16.172 0.1181-9.0709z" fill="#000"/>
  <path d="m414.52 103.87c3.6614-7.0092 17.491 0.22507-0.1181 9.0709-17.373-9.2959-3.3596-16.172 0.1181-9.0709z" stroke="#000" stroke-linecap="butt" stroke-linejoin="round"/>
  <path d="m363.33 92.986c3.6614-7.0092 17.491 0.22507-0.1181 9.0709-17.373-9.2959-3.3596-16.172 0.1181-9.0709z" fill="#000"/>
  <path d="m363.33 92.986c3.6614-7.0092 17.491 0.22507-0.1181 9.0709-17.373-9.2959-3.3596-16.172 0.1181-9.0709z" stroke="#000" stroke-linecap="butt" stroke-linejoin="round"/>
  <path d="m417.98 73.875c3.6614-7.0092 17.491 0.22507-0.1181 9.0709-17.373-9.2959-3.3596-16.172 0.1181-9.0709z" fill="#000"/>
  <path d="m417.98 73.875c3.6614-7.0092 17.491 0.22507-0.1181 9.0709-17.373-9.2959-3.3596-16.172 0.1181-9.0709z" stroke="#000" stroke-linecap="butt" stroke-linejoin="round"/>
  <path d="m391.29 57.552c3.6614-7.0092 17.491 0.22506-0.1181 9.0709-17.373-9.2959-3.3596-16.172 0.1181-9.0709z" fill="#000"/>
  <path d="m391.29 57.552c3.6614-7.0092 17.491 0.22506-0.1181 9.0709-17.373-9.2959-3.3596-16.172 0.1181-9.0709z" stroke="#000" stroke-linecap="butt" stroke-linejoin="round"/>
  <path d="m365.27 119c0.44357-38.912 33.088-70.09 72.913-69.638 19.125 0.21718 37.382 7.8486 50.754 21.215s20.766 31.374 20.553 50.06c-0.44357 38.912-33.088 70.09-72.913 69.638-39.825-0.45227-71.751-32.363-71.307-71.276z" fill="#783f04"/>
  <path d="m365.27 119c0.44357-38.912 33.088-70.09 72.913-69.638 19.125 0.21718 37.382 7.8486 50.754 21.215s20.766 31.374 20.553 50.06c-0.44357 38.912-33.088 70.09-72.913 69.638-39.825-0.45227-71.751-32.363-71.307-71.276z" stroke="#000" stroke-linecap="butt" stroke-linejoin="round"/>
  <path d="m463.13 75.919c3.6614-7.0092 17.491 0.22507-0.11813 9.0709-17.373-9.2959-3.3596-16.172 0.11813-9.0709z" fill="#000"/>
  <path d="m463.13 75.919c3.6614-7.0092 17.491 0.22507-0.11813 9.0709-17.373-9.2959-3.3596-16.172 0.11813-9.0709z" stroke="#000" stroke-linecap="butt" stroke-linejoin="round"/>
  <path d="m474.87 128.06c3.6614-7.0092 17.491 0.22507-0.1181 9.0709-17.373-9.2959-3.3596-16.172 0.1181-9.0709z" fill="#000"/>
  <path d="m474.87 128.06c3.6614-7.0092 17.491 0.22507-0.1181 9.0709-17.373-9.2959-3.3596-16.172 0.1181-9.0709z" stroke="#000" stroke-linecap="butt" stroke-linejoin="round"/>
  <path d="m452.06 161.13c3.6614-7.0092 17.491 0.22507-0.11813 9.0709-17.373-9.2959-3.3596-16.172 0.11813-9.0709z" fill="#000"/>
  <path d="m452.06 161.13c3.6614-7.0092 17.491 0.22507-0.11813 9.0709-17.373-9.2959-3.3596-16.172 0.11813-9.0709z" stroke="#000" stroke-linecap="butt" stroke-linejoin="round"/>
  <path d="m404.21 154.04c3.6614-7.0092 17.491 0.22507-0.1181 9.0709-17.373-9.2959-3.3596-16.172 0.1181-9.0709z" fill="#000"/>
  <path d="m404.21 154.04c3.6614-7.0092 17.491 0.22507-0.1181 9.0709-17.373-9.2959-3.3596-16.172 0.1181-9.0709z" stroke="#000" stroke-linecap="butt" stroke-linejoin="round"/>
  <path d="m430.34 120.05c3.6614-7.0092 17.491 0.22507-0.1181 9.0709-17.373-9.2959-3.3596-16.172 0.1181-9.0709z" fill="#000"/>
  <path d="m430.34 120.05c3.6614-7.0092 17.491 0.22507-0.1181 9.0709-17.373-9.2959-3.3596-16.172 0.1181-9.0709z" stroke="#000" stroke-linecap="butt" stroke-linejoin="round"/>
  <path d="m379.15 109.17c3.6614-7.0092 17.491 0.22506-0.1181 9.0709-17.373-9.2959-3.3596-16.172 0.1181-9.0709z" fill="#000"/>
  <path d="m379.15 109.17c3.6614-7.0092 17.491 0.22506-0.1181 9.0709-17.373-9.2959-3.3596-16.172 0.1181-9.0709z" stroke="#000" stroke-linecap="butt" stroke-linejoin="round"/>
  <path d="m433.79 90.056c3.6614-7.0092 17.491 0.22507-0.1181 9.0709-17.373-9.2959-3.3596-16.172 0.1181-9.0709z" fill="#000"/>
  <path d="m433.79 90.056c3.6614-7.0092 17.491 0.22507-0.1181 9.0709-17.373-9.2959-3.3596-16.172 0.1181-9.0709z" stroke="#000" stroke-linecap="butt" stroke-linejoin="round"/>
  <path d="m407.11 73.732c3.6614-7.0092 17.491 0.22507-0.1181 9.0709-17.373-9.2959-3.3596-16.172 0.1181-9.0709z" fill="#000"/>
  <path d="m407.11 73.732c3.6614-7.0092 17.491 0.22507-0.1181 9.0709-17.373-9.2959-3.3596-16.172 0.1181-9.0709z" stroke="#000" stroke-linecap="butt" stroke-linejoin="round"/>
  <path d="m381.09 135.18c0.44357-38.912 33.088-70.09 72.913-69.638 19.125 0.21719 37.382 7.8486 50.754 21.215 13.373 13.367 20.766 31.374 20.553 50.06-0.44354 38.912-33.088 70.09-72.913 69.638-39.825-0.45227-71.751-32.363-71.307-71.276z" fill="#783f04"/>
  <path d="m381.09 135.18c0.44357-38.912 33.088-70.09 72.913-69.638 19.125 0.21719 37.382 7.8486 50.754 21.215 13.373 13.367 20.766 31.374 20.553 50.06-0.44354 38.912-33.088 70.09-72.913 69.638-39.825-0.45227-71.751-32.363-71.307-71.276z" stroke="#000" stroke-linecap="butt" stroke-linejoin="round"/>
  <path d="m478.95 92.099c3.6614-7.0092 17.491 0.22507-0.1181 9.0709-17.373-9.2959-3.3596-16.172 0.1181-9.0709z" fill="#000"/>
  <path d="m478.95 92.099c3.6614-7.0092 17.491 0.22507-0.1181 9.0709-17.373-9.2959-3.3596-16.172 0.1181-9.0709z" stroke="#000" stroke-linecap="butt" stroke-linejoin="round"/>
  <path d="m490.69 144.24c3.6614-7.0092 17.491 0.22507-0.1181 9.0709-17.373-9.2959-3.3596-16.172 0.1181-9.0709z" fill="#000"/>
  <path d="m490.69 144.24c3.6614-7.0092 17.491 0.22507-0.1181 9.0709-17.373-9.2959-3.3596-16.172 0.1181-9.0709z" stroke="#000" stroke-linecap="butt" stroke-linejoin="round"/>
  <path d="m467.88 177.32c3.6614-7.0092 17.491 0.22507-0.1181 9.0709-17.373-9.2959-3.3596-16.172 0.1181-9.0709z" fill="#000"/>
  <path d="m467.88 177.32c3.6614-7.0092 17.491 0.22507-0.1181 9.0709-17.373-9.2959-3.3596-16.172 0.1181-9.0709z" stroke="#000" stroke-linecap="butt" stroke-linejoin="round"/>
  <path d="m420.02 170.22c3.6614-7.0092 17.491 0.22507-0.1181 9.0709-17.373-9.2959-3.3596-16.172 0.1181-9.0709z" fill="#000"/>
  <path d="m420.02 170.22c3.6614-7.0092 17.491 0.22507-0.1181 9.0709-17.373-9.2959-3.3596-16.172 0.1181-9.0709z" stroke="#000" stroke-linecap="butt" stroke-linejoin="round"/>
  <path d="m446.16 136.23c3.6614-7.0092 17.491 0.22507-0.1181 9.0709-17.373-9.2959-3.3596-16.172 0.1181-9.0709z" fill="#000"/>
  <path d="m446.16 136.23c3.6614-7.0092 17.491 0.22507-0.1181 9.0709-17.373-9.2959-3.3596-16.172 0.1181-9.0709z" stroke="#000" stroke-linecap="butt" stroke-linejoin="round"/>
  <path d="m394.96 125.35c3.6614-7.0092 17.491 0.22507-0.1181 9.0709-17.373-9.2959-3.3596-16.172 0.1181-9.0709z" fill="#000"/>
  <path d="m394.96 125.35c3.6614-7.0092 17.491 0.22507-0.1181 9.0709-17.373-9.2959-3.3596-16.172 0.1181-9.0709z" stroke="#000" stroke-linecap="butt" stroke-linejoin="round"/>
  <path d="m449.61 106.24c3.6614-7.0092 17.491 0.22507-0.11813 9.0709-17.373-9.2959-3.3596-16.172 0.11813-9.0709z" fill="#000"/>
  <path d="m449.61 106.24c3.6614-7.0092 17.491 0.22507-0.11813 9.0709-17.373-9.2959-3.3596-16.172 0.11813-9.0709z" stroke="#000" stroke-linecap="butt" stroke-linejoin="round"/>
  <path d="m422.93 89.913c3.6614-7.0092 17.491 0.22507-0.1181 9.0709-17.373-9.2959-3.3596-16.172 0.1181-9.0709z" fill="#000"/>
  <path d="m422.93 89.913c3.6614-7.0092 17.491 0.22507-0.1181 9.0709-17.373-9.2959-3.3596-16.172 0.1181-9.0709z" stroke="#000" stroke-linecap="butt" stroke-linejoin="round"/>
  <path d="m396.9 151.36c0.44357-38.912 33.088-70.09 72.913-69.638 19.125 0.21719 37.382 7.8486 50.754 21.215 13.373 13.367 20.766 31.374 20.553 50.06-0.4436 38.912-33.088 70.09-72.913 69.638-39.825-0.45226-71.751-32.363-71.307-71.276z" fill="#783f04"/>
  <path d="m396.9 151.36c0.44357-38.912 33.088-70.09 72.913-69.638 19.125 0.21719 37.382 7.8486 50.754 21.215 13.373 13.367 20.766 31.374 20.553 50.06-0.4436 38.912-33.088 70.09-72.913 69.638-39.825-0.45226-71.751-32.363-71.307-71.276z" stroke="#000" stroke-linecap="butt" stroke-linejoin="round"/>
  <path d="m494.77 108.28c3.6614-7.0092 17.491 0.22507-0.1181 9.0709-17.373-9.2959-3.3596-16.172 0.1181-9.0709z" fill="#000"/>
  <path d="m494.77 108.28c3.6614-7.0092 17.491 0.22507-0.1181 9.0709-17.373-9.2959-3.3596-16.172 0.1181-9.0709z" stroke="#000" stroke-linecap="butt" stroke-linejoin="round"/>
  <path d="m506.51 160.42c3.6614-7.0092 17.491 0.22507-0.11813 9.0709-17.373-9.2959-3.3596-16.172 0.11813-9.0709z" fill="#000"/>
  <path d="m506.51 160.42c3.6614-7.0092 17.491 0.22507-0.11813 9.0709-17.373-9.2959-3.3596-16.172 0.11813-9.0709z" stroke="#000" stroke-linecap="butt" stroke-linejoin="round"/>
  <path d="m483.7 193.5c3.6614-7.0092 17.491 0.22505-0.1181 9.0709-17.373-9.2959-3.3596-16.172 0.1181-9.0709z" fill="#000"/>
  <path d="m483.7 193.5c3.6614-7.0092 17.491 0.22505-0.1181 9.0709-17.373-9.2959-3.3596-16.172 0.1181-9.0709z" stroke="#000" stroke-linecap="butt" stroke-linejoin="round"/>
  <path d="m435.84 186.4c3.6614-7.0092 17.491 0.22507-0.1181 9.0709-17.373-9.2959-3.3596-16.172 0.1181-9.0709z" fill="#000"/>
  <path d="m435.84 186.4c3.6614-7.0092 17.491 0.22507-0.1181 9.0709-17.373-9.2959-3.3596-16.172 0.1181-9.0709z" stroke="#000" stroke-linecap="butt" stroke-linejoin="round"/>
  <path d="m461.98 152.41c3.6614-7.0092 17.491 0.22507-0.1181 9.0709-17.373-9.2959-3.3596-16.172 0.1181-9.0709z" fill="#000"/>
  <path d="m461.98 152.41c3.6614-7.0092 17.491 0.22507-0.1181 9.0709-17.373-9.2959-3.3596-16.172 0.1181-9.0709z" stroke="#000" stroke-linecap="butt" stroke-linejoin="round"/>
  <path d="m410.78 141.53c3.6614-7.0092 17.491 0.22507-0.11813 9.0709-17.373-9.2959-3.3596-16.172 0.11813-9.0709z" fill="#000"/>
  <path d="m410.78 141.53c3.6614-7.0092 17.491 0.22507-0.11813 9.0709-17.373-9.2959-3.3596-16.172 0.11813-9.0709z" stroke="#000" stroke-linecap="butt" stroke-linejoin="round"/>
  <path d="m465.43 122.42c3.6614-7.0092 17.491 0.22507-0.11813 9.0709-17.373-9.2959-3.3596-16.172 0.11813-9.0709z" fill="#000"/>
  <path d="m465.43 122.42c3.6614-7.0092 17.491 0.22507-0.11813 9.0709-17.373-9.2959-3.3596-16.172 0.11813-9.0709z" stroke="#000" stroke-linecap="butt" stroke-linejoin="round"/>
  <path d="m438.75 106.09c3.6614-7.0092 17.491 0.22507-0.1181 9.0709-17.373-9.2959-3.3596-16.172 0.1181-9.0709z" fill="#000"/>
  <path d="m438.75 106.09c3.6614-7.0092 17.491 0.22507-0.1181 9.0709-17.373-9.2959-3.3596-16.172 0.1181-9.0709z" stroke="#000" stroke-linecap="butt" stroke-linejoin="round"/>
  <path d="m173.11 239.84h199.21v116.69l-23.339 23.339h-175.87z" fill="#fff"/>
  <path d="m348.98 379.87l4.6678-18.671 18.671-4.6678z" fill="#cbcbcb"/>
  <path d="m348.98 379.87l4.6678-18.671 18.671-4.6678-23.339 23.339h-175.87v-140.03h199.21v116.69" fill="#000" fill-opacity="0"/>
  <path d="m348.98 379.87l4.6678-18.671 18.671-4.6678-23.339 23.339h-175.87v-140.03h199.21v116.69" stroke="#000" stroke-linecap="butt" stroke-linejoin="round"/>
  <path d="m181.22 245.57h199.21v116.69l-23.339 23.339h-175.87z" fill="#fff"/>
  <path d="m357.09 385.6l4.6678-18.671 18.671-4.6678z" fill="#cbcbcb"/>
  <path d="m357.09 385.6l4.6678-18.671 18.671-4.6678-23.339 23.339h-175.87v-140.03h199.21v116.69" fill="#000" fill-opacity="0"/>
  <path d="m357.09 385.6l4.6678-18.671 18.671-4.6678-23.339 23.339h-175.87v-140.03h199.21v116.69" stroke="#000" stroke-linecap="butt" stroke-linejoin="round"/>
  <path d="m193.84 253.84h199.21v116.69l-23.339 23.339h-175.87z" fill="#fff"/>
  <path d="m369.71 393.88l4.6678-18.671 18.671-4.6678z" fill="#cbcbcb"/>
  <path d="m369.71 393.88l4.6678-18.671 18.671-4.6678-23.339 23.339h-175.87v-140.03h199.21v116.69" fill="#000" fill-opacity="0"/>
  <path d="m369.71 393.88l4.6678-18.671 18.671-4.6678-23.339 23.339h-175.87v-140.03h199.21v116.69" stroke="#000" stroke-linecap="butt" stroke-linejoin="round"/>
  <path d="m202.82 264.02h199.21v116.69l-23.339 23.339h-175.87z" fill="#fff"/>
  <path d="m378.7 404.05l4.6678-18.671 18.671-4.6678z" fill="#cbcbcb"/>
  <path d="m378.7 404.05l4.6678-18.671 18.671-4.6678-23.339 23.339h-175.87v-140.03h199.21v116.69" fill="#000" fill-opacity="0"/>
  <path d="m378.7 404.05l4.6678-18.671 18.671-4.6678-23.339 23.339h-175.87v-140.03h199.21v116.69" stroke="#000" stroke-linecap="butt" stroke-linejoin="round"/>
 </g>
</svg>
