<?xml version="1.0" encoding="UTF-8" standalone="no"?>
<!-- Created with Inkscape (http://www.inkscape.org/) -->

<svg
   width="200mm"
   height="200mm"
   viewBox="0 0 200 200"
   version="1.1"
   id="svg5"
   style="background:#000000"
   xml:space="preserve"
   xmlns="http://www.w3.org/2000/svg"
   xmlns:svg="http://www.w3.org/2000/svg"><defs
     id="defs2" /><g
     id="layer1"><path
       style="fill:#fff100;fill-opacity:1;stroke-width:0;stroke-dasharray:none"
       id="rect1137"
       width="7"
       height="54.680145"
       x="81.737793"
       y="88.306526"
       d="m 83.589876,88.306526 h 3.295834 a 1.8520833,1.8520833 45 0 1 1.852083,1.852083 v 50.975981 a 1.8520833,1.8520833 135 0 1 -1.852083,1.85208 h -3.295834 a 1.8520833,1.8520833 45 0 1 -1.852083,-1.85208 V 90.158609 a 1.8520833,1.8520833 135 0 1 1.852083,-1.852083 z" /><path
       style="fill:#fff100;fill-opacity:1;stroke-width:0;stroke-dasharray:none"
       id="rect1137-1"
       width="7"
       height="13.745"
       x="72.029526"
       y="92.666496"
       d="m 73.881609,92.666496 h 3.295833 a 1.8520833,1.8520833 45 0 1 1.852084,1.852084 v 10.04083 a 1.8520833,1.8520833 135 0 1 -1.852084,1.85209 h -3.295833 a 1.8520833,1.8520833 45 0 1 -1.852083,-1.85209 V 94.51858 a 1.8520833,1.8520833 135 0 1 1.852083,-1.852084 z" /><path
       style="fill:#fff100;fill-opacity:1;stroke-width:0;stroke-dasharray:none"
       id="rect1137-1-1"
       width="7"
       height="31.933968"
       x="72.029526"
       y="109.1114"
       d="m 73.881609,109.1114 h 3.295833 a 1.8520833,1.8520833 45 0 1 1.852084,1.85208 l 0,28.2298 a 1.8520833,1.8520833 135 0 1 -1.852084,1.85208 h -3.295833 a 1.8520833,1.8520833 45 0 1 -1.852083,-1.85208 v -28.2298 a 1.8520833,1.8520833 135 0 1 1.852083,-1.85208 z" /><path
       style="fill:#fff100;fill-opacity:1;stroke-width:0;stroke-dasharray:none"
       id="rect1137-1-5"
       width="7"
       height="44.319393"
       x="62.321251"
       y="97.54287"
       d="m 64.173334,97.54287 h 3.295834 a 1.8520833,1.8520833 45 0 1 1.852083,1.852083 v 40.615227 a 1.8520833,1.8520833 135 0 1 -1.852083,1.85208 h -3.295834 a 1.8520833,1.8520833 45 0 1 -1.852083,-1.85208 V 99.394953 a 1.8520833,1.8520833 135 0 1 1.852083,-1.852083 z" /><path
       style="fill:#fff100;fill-opacity:1;stroke-width:0;stroke-dasharray:none"
       id="rect1137-1-6"
       width="7"
       height="11.141251"
       x="52.612968"
       y="131.36653"
       d="m 54.465052,131.36653 h 3.295833 a 1.8520833,1.8520833 45 0 1 1.852083,1.85208 v 7.43709 a 1.8520833,1.8520833 135 0 1 -1.852083,1.85208 h -3.295833 a 1.8520833,1.8520833 45 0 1 -1.852084,-1.85208 v -7.43709 a 1.8520833,1.8520833 135 0 1 1.852084,-1.85208 z" /><path
       style="fill:#fff100;fill-opacity:1;stroke-width:0;stroke-dasharray:none"
       id="rect1137-1-6-3"
       width="7"
       height="26.653999"
       x="52.612968"
       y="102.01294"
       d="m 54.465052,102.01294 h 3.295833 a 1.8520833,1.8520833 45 0 1 1.852083,1.85208 v 22.94984 a 1.8520833,1.8520833 135 0 1 -1.852083,1.85208 h -3.295833 a 1.8520833,1.8520833 45 0 1 -1.852084,-1.85208 v -22.94984 a 1.8520833,1.8520833 135 0 1 1.852084,-1.85208 z" /><path
       style="fill:#fff100;fill-opacity:1;stroke-width:0;stroke-dasharray:none"
       id="rect1137-1-6-1"
       width="7"
       height="33.51255"
       x="42.904682"
       y="106.50624"
       d="m 44.756765,106.50624 h 3.295834 a 1.8520833,1.8520833 45 0 1 1.852083,1.85208 l 0,29.80839 a 1.8520833,1.8520833 135 0 1 -1.852083,1.85208 h -3.295834 a 1.8520833,1.8520833 45 0 1 -1.852083,-1.85208 v -29.80839 a 1.8520833,1.8520833 135 0 1 1.852083,-1.85208 z" /><path
       style="fill:#fff100;fill-opacity:1;stroke-width:0;stroke-dasharray:none"
       id="rect1137-1-6-2"
       width="6.9999909"
       height="6.9689999"
       x="33.196392"
       y="110.0331"
       d="M 35.048475,110.0331 H 38.3443 a 1.8520833,1.8520833 45 0 1 1.852083,1.85208 v 3.26483 A 1.8520833,1.8520833 135 0 1 38.3443,117.0021 h -3.295825 a 1.8520833,1.8520833 45 0 1 -1.852083,-1.85209 v -3.26483 a 1.8520833,1.8520833 135 0 1 1.852083,-1.85208 z" /><path
       style="fill:#fff100;fill-opacity:1;stroke-width:0;stroke-dasharray:none"
       id="rect1137-1-6-8"
       width="6.9999909"
       height="17.946821"
       x="33.1964"
       y="119.70256"
       d="m 35.048483,119.70256 h 3.295824 a 1.8520833,1.8520833 45 0 1 1.852084,1.85208 v 14.24266 a 1.8520833,1.8520833 135 0 1 -1.852084,1.85208 H 35.048483 A 1.8520833,1.8520833 45 0 1 33.1964,135.7973 v -14.24266 a 1.8520833,1.8520833 135 0 1 1.852083,-1.85208 z" /><path
       style="fill:#fff100;fill-opacity:1;stroke-width:0;stroke-dasharray:none"
       id="rect1137-4"
       width="7"
       height="33.084"
       x="91.868179"
       y="84.487579"
       d="m 93.720263,84.487579 h 3.295833 a 1.8520833,1.8520833 45 0 1 1.852083,1.852084 V 115.7195 a 1.8520833,1.8520833 135 0 1 -1.852083,1.85208 l -3.295833,0 a 1.8520833,1.8520833 45 0 1 -1.852084,-1.85208 l 0,-29.379837 a 1.8520833,1.8520833 135 0 1 1.852084,-1.852084 z" /><path
       style="fill:#fff100;fill-opacity:1;stroke-width:0;stroke-dasharray:none"
       id="rect1137-4-6"
       width="7"
       height="24.734814"
       x="91.868179"
       y="120.27175"
       d="m 93.720263,120.27175 h 3.295833 a 1.8520833,1.8520833 45 0 1 1.852083,1.85208 v 21.03065 a 1.8520833,1.8520833 135 0 1 -1.852083,1.85209 h -3.295833 a 1.8520833,1.8520833 45 0 1 -1.852084,-1.85209 v -21.03065 a 1.8520833,1.8520833 135 0 1 1.852084,-1.85208 z" /><path
       style="fill:#fff100;fill-opacity:1;stroke-width:0;stroke-dasharray:none"
       id="rect1137-4-8"
       width="7"
       height="86.490501"
       x="101.57644"
       y="81.505562"
       d="m 103.42852,81.505562 h 3.29584 a 1.8520833,1.8520833 45 0 1 1.85208,1.852083 v 82.786335 a 1.8520833,1.8520833 135 0 1 -1.85208,1.85208 h -3.29584 a 1.8520833,1.8520833 45 0 1 -1.85208,-1.85208 V 83.357645 a 1.8520833,1.8520833 135 0 1 1.85208,-1.852083 z" /><path
       style="fill:#fff100;fill-opacity:1;stroke-width:0;stroke-dasharray:none"
       id="rect1137-4-8-5"
       width="6.9999619"
       height="24.047001"
       x="111.28475"
       y="82.364578"
       d="m 113.13684,82.364578 h 3.29579 a 1.8520833,1.8520833 45 0 1 1.85208,1.852084 V 104.5595 a 1.8520833,1.8520833 135 0 1 -1.85208,1.85208 h -3.29579 a 1.8520833,1.8520833 45 0 1 -1.85209,-1.85208 V 84.216662 a 1.8520833,1.8520833 135 0 1 1.85209,-1.852084 z" /><path
       style="fill:#fff100;fill-opacity:1;stroke-width:0;stroke-dasharray:none"
       id="rect1137-4-8-5-7"
       width="6.9999619"
       height="34.846786"
       x="111.28471"
       y="109.1114"
       d="m 113.1368,109.1114 h 3.29579 a 1.8520833,1.8520833 45 0 1 1.85209,1.85208 v 31.14262 a 1.8520833,1.8520833 135 0 1 -1.85209,1.85208 h -3.29579 a 1.8520833,1.8520833 45 0 1 -1.85209,-1.85208 v -31.14262 a 1.8520833,1.8520833 135 0 1 1.85209,-1.85208 z" /><path
       style="fill:#fff100;fill-opacity:1;stroke-width:0;stroke-dasharray:none"
       id="rect1137-4-8-5-0-0-7"
       width="7"
       height="5.8170772"
       x="23.48811"
       y="113.3166"
       d="m 25.340193,113.3166 h 3.295833 a 1.8520833,1.8520833 45 0 1 1.852084,1.85208 v 2.11291 a 1.8520833,1.8520833 135 0 1 -1.852084,1.85208 l -3.295833,0 a 1.8520833,1.8520833 45 0 1 -1.852083,-1.85208 v -2.11291 a 1.8520833,1.8520833 135 0 1 1.852083,-1.85208 z" /><path
       style="fill:#fff100;fill-opacity:1;stroke-width:0;stroke-dasharray:none"
       id="rect1137-4-8-5-0-0-7-4"
       width="7"
       height="6.4625897"
       x="23.48811"
       y="128.82857"
       d="m 25.340193,128.82857 h 3.295833 a 1.8520833,1.8520833 45 0 1 1.852084,1.85208 v 2.75842 a 1.8520833,1.8520833 135 0 1 -1.852084,1.85209 h -3.295833 a 1.8520833,1.8520833 45 0 1 -1.852083,-1.85209 v -2.75842 a 1.8520833,1.8520833 135 0 1 1.852083,-1.85208 z" /><path
       style="fill:#fff100;fill-opacity:1;stroke-width:0;stroke-dasharray:none"
       id="rect1137-4-8-5-0-9"
       width="6.9999542"
       height="100.5852"
       x="120.993"
       y="40.336403"
       d="m 122.84508,40.336403 h 3.29579 a 1.8520833,1.8520833 45 0 1 1.85208,1.852083 v 96.881034 a 1.8520833,1.8520833 135 0 1 -1.85208,1.85208 h -3.29579 A 1.8520833,1.8520833 45 0 1 120.993,139.06952 V 42.188486 a 1.8520833,1.8520833 135 0 1 1.85208,-1.852083 z" /><path
       style="fill:#fff100;fill-opacity:1;stroke-width:0;stroke-dasharray:none"
       id="rect1137-4-8-5-1"
       width="6.9999695"
       height="42.887245"
       x="130.70129"
       y="94.563492"
       d="m 132.55338,94.563492 h 3.2958 a 1.8520833,1.8520833 45 0 1 1.85208,1.852083 v 39.183075 a 1.8520833,1.8520833 135 0 1 -1.85208,1.85209 h -3.2958 a 1.8520833,1.8520833 45 0 1 -1.85209,-1.85209 V 96.415575 a 1.8520833,1.8520833 135 0 1 1.85209,-1.852083 z" /><path
       style="fill:#fff100;fill-opacity:1;stroke-width:0;stroke-dasharray:none"
       id="rect1137-4-8-5-1-5"
       width="6.9999695"
       height="60.742001"
       x="130.70129"
       y="31.121275"
       d="m 132.55338,31.121275 h 3.2958 a 1.8520833,1.8520833 45 0 1 1.85208,1.852083 l 0,57.037834 a 1.8520833,1.8520833 135 0 1 -1.85208,1.852084 l -3.2958,0 a 1.8520833,1.8520833 45 0 1 -1.85209,-1.852084 V 32.973358 a 1.8520833,1.8520833 135 0 1 1.85209,-1.852083 z" /><path
       style="fill:#fff100;fill-opacity:1;stroke-width:0;stroke-dasharray:none"
       id="rect1137-4-8-5-0-0-2"
       width="7"
       height="19.025753"
       x="150.11784"
       y="101.83422"
       d="m 151.96993,101.83422 h 3.29583 a 1.8520833,1.8520833 45 0 1 1.85208,1.85208 l 0,15.32159 a 1.8520833,1.8520833 135 0 1 -1.85208,1.85208 h -3.29583 a 1.8520833,1.8520833 45 0 1 -1.85209,-1.85208 V 103.6863 a 1.8520833,1.8520833 135 0 1 1.85209,-1.85208 z" /><path
       style="fill:#fff100;fill-opacity:1;stroke-width:0;stroke-dasharray:none"
       id="rect1137-4-8-5-0-0-2-4"
       width="7"
       height="8.8730001"
       x="150.11784"
       y="90.260864"
       d="m 151.96993,90.260864 h 3.29583 a 1.8520833,1.8520833 45 0 1 1.85208,1.852084 v 5.168833 a 1.8520833,1.8520833 135 0 1 -1.85208,1.852083 h -3.29583 a 1.8520833,1.8520833 45 0 1 -1.85209,-1.852083 v -5.168833 a 1.8520833,1.8520833 135 0 1 1.85209,-1.852084 z" /><path
       style="fill:#fff100;fill-opacity:1;stroke-width:0;stroke-dasharray:none"
       id="rect1137-4-8-5-0-9-6"
       width="7"
       height="26.168669"
       x="140.40956"
       y="28.779774"
       d="m 142.26164,28.779774 h 3.29584 a 1.8520833,1.8520833 45 0 1 1.85208,1.852083 v 22.464502 a 1.8520833,1.8520833 135 0 1 -1.85208,1.852083 h -3.29584 a 1.8520833,1.8520833 45 0 1 -1.85208,-1.852083 V 30.631857 a 1.8520833,1.8520833 135 0 1 1.85208,-1.852083 z" /><path
       style="fill:#fff100;fill-opacity:1;stroke-width:0;stroke-dasharray:none"
       id="rect1137-4-8-5-0-9-6-39"
       width="7"
       height="47.268799"
       x="140.40956"
       y="84.365616"
       d="m 142.26164,84.365616 h 3.29584 a 1.8520833,1.8520833 45 0 1 1.85208,1.852083 v 43.564631 a 1.8520833,1.8520833 135 0 1 -1.85208,1.85208 h -3.29584 a 1.8520833,1.8520833 45 0 1 -1.85208,-1.85208 l 0,-43.564631 a 1.8520833,1.8520833 135 0 1 1.85208,-1.852083 z" /><path
       style="fill:#fff100;fill-opacity:1;stroke-width:0;stroke-dasharray:none"
       id="rect1137-4-8-5-0-9-6-3"
       width="7"
       height="17.518801"
       x="150.11784"
       y="34.410015"
       d="m 151.96993,34.410015 h 3.29583 a 1.8520833,1.8520833 45 0 1 1.85208,1.852083 v 13.814635 a 1.8520833,1.8520833 135 0 1 -1.85208,1.852083 l -3.29583,0 a 1.8520833,1.8520833 45 0 1 -1.85209,-1.852083 l 0,-13.814635 a 1.8520833,1.8520833 135 0 1 1.85209,-1.852083 z" /><path
       style="fill:#fff100;fill-opacity:1;stroke-width:0;stroke-dasharray:none"
       id="rect1137-4-8-5-0-0-2-1-5"
       width="7"
       height="7.6697593"
       x="169.53444"
       y="48.51569"
       d="m 171.38652,48.51569 h 3.29584 a 1.8520833,1.8520833 45 0 1 1.85208,1.852083 v 3.965593 a 1.8520833,1.8520833 135 0 1 -1.85208,1.852083 h -3.29584 a 1.8520833,1.8520833 45 0 1 -1.85208,-1.852083 v -3.965593 a 1.8520833,1.8520833 135 0 1 1.85208,-1.852083 z" /><path
       style="fill:#fff100;fill-opacity:1;stroke-width:0;stroke-dasharray:none"
       id="rect1137-4-8-5-0-9-6-3-0"
       width="7"
       height="10.546074"
       x="159.82616"
       y="43.831753"
       d="m 161.67824,43.831753 3.29583,0 a 1.8520833,1.8520833 45 0 1 1.85209,1.852083 v 6.841907 a 1.8520833,1.8520833 135 0 1 -1.85209,1.852084 l -3.29583,0 a 1.8520833,1.8520833 45 0 1 -1.85208,-1.852084 v -6.841907 a 1.8520833,1.8520833 135 0 1 1.85208,-1.852083 z" /><path
       style="fill:#fff100;fill-opacity:1;stroke-width:0;stroke-dasharray:none"
       id="rect1137-4-8-5-0-9-1"
       width="7"
       height="10.465185"
       x="111.28469"
       y="160.67764"
       d="m 113.13677,160.67764 h 3.29584 a 1.8520833,1.8520833 45 0 1 1.85208,1.85209 v 6.76101 a 1.8520833,1.8520833 135 0 1 -1.85208,1.85209 h -3.29584 a 1.8520833,1.8520833 45 0 1 -1.85208,-1.85209 v -6.76101 a 1.8520833,1.8520833 135 0 1 1.85208,-1.85209 z" /><path
       style="fill:#fff100;fill-opacity:1;stroke-width:0;stroke-dasharray:none"
       id="rect1137-7"
       width="6.9999542"
       height="6.0612602"
       x="120.99304"
       y="165.12267"
       d="m 122.84513,165.12267 h 3.29578 a 1.8520833,1.8520833 45 0 1 1.85209,1.85208 v 2.35709 a 1.8520833,1.8520833 135 0 1 -1.85209,1.85209 h -3.29578 a 1.8520833,1.8520833 45 0 1 -1.85209,-1.85209 v -2.35709 a 1.8520833,1.8520833 135 0 1 1.85209,-1.85208 z" /><path
       style="fill:#fff100;fill-opacity:1;stroke-width:0;stroke-dasharray:none"
       id="rect1137-7-5"
       width="6.9999695"
       height="5.4157481"
       x="130.70132"
       y="165.76819"
       d="m 132.55341,165.76819 h 3.2958 a 1.8520833,1.8520833 45 0 1 1.85208,1.85208 v 1.71158 a 1.8520833,1.8520833 135 0 1 -1.85208,1.85209 h -3.2958 a 1.8520833,1.8520833 45 0 1 -1.85209,-1.85209 v -1.71158 a 1.8520833,1.8520833 135 0 1 1.85209,-1.85208 z" /></g></svg>
