<?xml version="1.0" standalone="no"?>
<!DOCTYPE svg PUBLIC "-//W3C//DTD SVG 20010904//EN"
 "http://www.w3.org/TR/2001/REC-SVG-20010904/DTD/svg10.dtd">
<svg version="1.0" xmlns="http://www.w3.org/2000/svg"
 width="64.000000pt" height="64.000000pt" viewBox="0 0 64.000000 64.000000"
 preserveAspectRatio="xMidYMid meet">

<g transform="translate(0.000000,64.000000) scale(0.100000,-0.100000)"
fill="#000000" stroke="none">
<path d="M0 320 l0 -320 320 0 320 0 0 320 0 320 -320 0 -320 0 0 -320z m580
-5 l0 -265 -265 0 -265 0 0 265 0 265 265 0 265 0 0 -265z"/>
<path d="M160 544 c0 -3 24 -47 54 -97 29 -51 58 -101 64 -113 9 -17 1 -38
-54 -133 -35 -63 -64 -115 -64 -117 0 -2 13 -4 29 -4 27 0 35 9 78 85 26 47
51 85 55 85 4 0 28 -38 55 -85 45 -80 50 -85 81 -85 19 0 32 4 30 8 -1 4 -63
110 -137 235 -125 213 -135 227 -162 227 -16 0 -29 -3 -29 -6z"/>
</g>
</svg>
