<?xml version='1.0' encoding='utf-8'?>
<svg xmlns="http://www.w3.org/2000/svg" xmlns:xlink="http://www.w3.org/1999/xlink" width="210mm" height="297mm" clip-rule="evenodd" fill-rule="evenodd" image-rendering="optimizeQuality" shape-rendering="geometricPrecision" text-rendering="geometricPrecision" version="1.1" viewBox="0 0 21000 29700">
 <defs>
  <style type="text/css">
    .fil2 {fill:#5B5B5B}
    .fil11 {fill:#9D9E9E}
    .fil12 {fill:#C5C6C6}
    .fil17 {fill:#D9DADA}
    .fil18 {fill:#EBECEC}
    .fil1 {fill:#FECC00}
    .fil8 {fill:#FEFEFE}
    .fil0 {fill:url(#n)}
    .fil4 {fill:url(#q)}
    .fil3 {fill:url(#u)}
    .fil13 {fill:url(#o)}
    .fil16 {fill:url(#v)}
    .fil5 {fill:url(#p)}
    .fil6 {fill:url(#w)}
    .fil9 {fill:url(#x)}
    .fil15 {fill:url(#y)}
    .fil14 {fill:url(#z)}
    .fil7 {fill:url(#r)}
    .fil10 {fill:url(#s)}
    .fil19 {fill:url(#t)}
  </style>
  <linearGradient id="n" x1="8009.4" x2="8009.4" y1="20410" y2="23311" gradientUnits="userSpaceOnUse">
   <stop stop-color="#F08143" offset="0"/>
   <stop stop-color="#A75F4A" offset="1"/>
  </linearGradient>
  <linearGradient id="q" x1="5245.2" x2="5245.2" y1="21309" y2="23191" gradientUnits="userSpaceOnUse" xlink:href="#n">
  </linearGradient>
  <linearGradient id="u" x1="8016.4" x2="8016.4" y1="20410" y2="23317" gradientUnits="userSpaceOnUse" xlink:href="#n">
  </linearGradient>
  <linearGradient id="o" x1="6071.8" x2="6071.8" y1="16204" y2="17900" gradientUnits="userSpaceOnUse">
   <stop stop-color="#F8C09E" offset="0"/>
   <stop stop-color="#CC9281" offset="1"/>
  </linearGradient>
  <linearGradient id="v" x1="14469" x2="21000" y1="17658" y2="17658" gradientUnits="userSpaceOnUse">
   <stop stop-color="#C5C6C6" offset="0"/>
   <stop stop-color="#D9DADA" offset="1"/>
  </linearGradient>
  <linearGradient id="p" x1="3464" x2="11110" y1="13161" y2="13161" gradientUnits="userSpaceOnUse">
   <stop stop-color="#C5C6C6" offset="0"/>
   <stop stop-color="#EBECEC" offset=".27843"/>
   <stop stop-color="#C5C6C6" offset="1"/>
  </linearGradient>
  <linearGradient id="w" x1="6721.4" x2="7852.9" y1="8174.2" y2="8174.2" gradientUnits="userSpaceOnUse" xlink:href="#p">
  </linearGradient>
  <linearGradient id="x" x2="14574" y1="18583" y2="18583" gradientUnits="userSpaceOnUse">
   <stop stop-color="#623620" offset="0"/>
   <stop stop-color="#CC9E20" offset=".12157"/>
   <stop stop-color="#fff" offset=".23922"/>
   <stop stop-color="#CF9A30" offset=".52157"/>
   <stop stop-color="#662D29" offset="1"/>
  </linearGradient>
  <linearGradient id="y" x1="5640" x2="6088" y1="15031" y2="16069" gradientUnits="userSpaceOnUse" xlink:href="#o">
  </linearGradient>
  <linearGradient id="z" x1="8477.6" x2="7921.5" y1="15750" y2="17149" gradientUnits="userSpaceOnUse" xlink:href="#o">
  </linearGradient>
  <radialGradient id="r" cx="25%">
   <stop stop-color="#EBECEC" offset="0"/>
   <stop stop-color="#C5C6C6" offset="1"/>
  </radialGradient>
  <radialGradient id="s" cy="105%">
   <stop stop-color="#CD9E20" offset="0"/>
   <stop stop-color="#623620" offset="1"/>
  </radialGradient>
  <radialGradient id="t">
   <stop stop-color="#FEFEFE" offset="0"/>
   <stop stop-color="#9D9E9E" offset="1"/>
  </radialGradient>
 </defs>
    <path class="fil0" d="m8009 20409c296 0 497 101 776 128 278 26 634-22 890 29 256 50 500 111 727 183 228 71 341 227 534 317 194 90 469 114 622 219 154 106 287 219 395 338s192 243 249 373c57 129 87 263 87 400 0 597-3188 915-5672 798v-3c1-46-6-90-20-133-38-118-194-180-312-261-94-65-141-158-255-188-135-34-244-80-345-102-31-6-72 7-99 2-61-10-104-32-169-39-29-3-73 16-102 14-41-3-73-31-115-33-56-2-122 21-179 21-91 0-174 10-266 22-60 8-118-13-173 1-37 8-64 39-100 46-176 36-325 47-466 103-40 16-79 8-116 25-109-81-171-172-171-273 0-137 30-271 87-400 57-130 191-205 300-323 108-119 191-282 344-388 154-105 342-142 535-231 194-90 394-234 621-305 228-72 447-183 703-233s549-40 828-66c278-27 567-41 862-41z"/>
    <path class="fil1" d="m8009 20500c277 0 465 95 726 119 260 25 593-20 833 27 239 47 467 105 680 172 213 66 318 212 499 296s438 107 582 206c144 98 268 204 369 315s180 228 233 349c54 121 82 246 82 375 0 566-3070 864-5408 741-43-166-218-334-444-463-68-39-116-78-199-108-72-26-167-18-246-39-74-19-128-60-209-71-112-17-237-2-360-5-25-1-88 30-114 30-40 0-79-34-119-38-87-9-173 9-255 18-53 6-101 36-155 52-66 20-137 27-196 41-70 17-121 42-184 63-76-67-118-141-118-221 0-129 28-254 81-375 54-121 179-191 280-302s179-264 323-362c144-99 319-133 500-217s368-219 581-285c213-67 417-171 657-218 239-47 514-37 775-62 260-25 530-38 806-38z"/>
    <path class="fil1" d="m8009 20500c277 0 465 95 726 119 260 25 593-20 833 27 239 47 467 105 680 172 213 66 318 212 499 296s438 107 582 206c144 98 268 204 369 315s180 228 233 349c54 121 82 246 82 375 0 566-3070 864-5408 741-12-47-35-94-66-140-25-150-137-236-195-399-69-190 24-520-125-669-150-150-444-45-635-114-190-68-277-309-484-298s-475 239-674 329c-106 48-192 56-275 79 62-70 145-128 216-206 101-111 179-264 323-362 144-99 319-133 500-217s368-219 581-285c213-67 417-171 657-218 239-47 514-37 775-62 260-25 530-38 806-38z"/>
    <path class="fil2" d="m6212 22380c-1 48 32 87 39 129 20 119 45 133 109 135 63 2 88-22 116-139 10-42 45-66 46-116 2-46-1-90-8-130-4-29-35-40-43-64-10-29 2-70-11-91-24-35-52-55-83-56-37-1-73 27-101 74-20 33-6 76-18 125-9 41-44 85-46 133z"/>
    <path class="fil3" d="m8009 20409c296 0 497 101 776 128 278 26 634-22 890 29 256 50 500 111 727 183 228 71 341 227 534 317 194 90 469 114 622 219 154 106 287 219 395 338s192 243 249 373c57 129 87 263 87 400 0 603-3245 921-5739 795 12-18 24-35 34-52 27-45-43-54-41-95 11-207-131-292-199-483-69-190 24-520-125-669-150-150-444-45-635-114-190-68-277-309-484-298s-475 239-674 329c-199 89-329 40-495 207-69 69-132 142-187 218 14-81 38-160 72-238 57-130 191-205 300-323 108-119 191-282 344-388 154-105 342-142 535-231 194-90 394-234 621-305 228-72 447-183 703-233s549-40 828-66c278-27 567-41 862-41z"/>
    <path class="fil4" d="m6550 23191c12-18 24-35 34-52 27-45-43-54-41-95 11-207-131-292-199-483-69-190 24-520-125-669-150-150-444-45-635-114-190-68-277-309-484-298s-475 239-674 329c-199 89-329 40-495 207-69 69-132 142-187 218 14-81 38-160 72-238 57-130 191-205 300-323 108-119 226 7 400-58 257-95 495-306 691-260 170 40 270 214 428 288 122 57 352-13 453 71 46 38 152 41 193 83 51 53 37 146 80 203 112 147 68 321 130 469 152 368 256 707 59 722z"/>
    <path class="fil2" d="m10307 21183c-75 42-164 21-236 44-206 66-249 38-304-61-55-98-37-159 125-299 58-50 68-126 145-169 22-13 45-24 67-35 107 28 211 58 313 90 94 32 169 79 239 128-40 48-112 65-175 118-57 49-99 142-174 184z"/>
    <path class="fil2" d="m7885 21100c31 80-2 165 11 240 35 214 2 252-104 293-106 40-163 13-279-167-41-65-115-85-147-168-29-77-50-153-63-225-9-51 37-88 36-133-1-56-46-118-35-161 19-72 55-124 107-144 62-23 138 3 214 66 52 44 56 125 103 200 40 64 126 119 157 199z"/>
    <path class="fil2" d="m7917 22708c-102-27-153-115-234-154-232-114-239-171-186-296 53-124 128-158 397-141 97 7 180-46 285-19 98 26 188 59 266 97 55 26 51 94 94 124 53 37 150 38 181 78 52 66 69 134 43 195-31 74-122 125-247 151-86 18-165-34-277-42-94-7-220 34-322 7z"/>
    <path class="fil2" d="m11771 22096c-1-106 71-178 89-267 23-117 47-184 79-221 225 242 350 508 350 788 0 123-135 234-372 332-9-14-17-28-25-44-39-79-9-169-30-279-18-93-91-204-91-309z"/>
    <path class="fil2" d="m9639 22184c-24 42-73 57-101 88-82 90-110 89-165 56-54-32-62-67-23-180 14-40-3-80 22-122 24-40 50-76 77-106 19-22 51-14 71-30 24-20 35-61 58-72 38-16 73-19 100-3 32 19 47 62 46 117-2 38-36 68-52 115-14 39-8 96-33 137z"/>
    <path class="fil2" d="m4752 22190c-46 14-92-8-134-4-121 11-141-9-159-70s-1-92 104-149c38-20 53-60 100-74 44-14 88-22 128-26 29-3 48 24 73 25 31 2 67-21 91-13 39 14 67 36 75 65 11 36-7 78-45 117-27 28-72 26-116 50-37 19-71 65-117 79z"/>
     <path class="fil5" d="m7287 8363c2112 0 3823 1712 3823 3824v5280c0 272-1712 492-3823 492s-3822-220-3822-492h-1v-5280c0-2112 1712-3824 3823-3824z"/>
     <path class="fil6" d="m6721 7695h1132v831c-389 125-766 127-1132 0v-831z"/>
     <circle class="fil7" cx="7287" cy="7373" r="891"/>
     <path class="fil8" d="m5885 9066c484 164 762 458 403 677-358 220-984 704-1298 1299-315 595-730 144-872-428-81-326 1233-1730 1767-1548z"/>
    <path class="fil9" d="m13305 19085c-436 486-2964 859-6018 859-3037 0-5554-369-6011-851-327-345-965-1415-1276-1871h14574c-349 511-892 1443-1269 1863z"/>
    <ellipse class="fil10" cx="7287" cy="17194" rx="7287" ry="1009"/>
    <path class="fil11" d="m7287 16185c1402 0 2712 55 3823 150v1132c0 272-1712 492-3823 492s-3822-220-3822-492h-1v-1132c1111-95 2421-150 3823-150z"/>
    <ellipse class="fil1" cx="7287" cy="17441" rx="5934" ry="764"/>
    <path class="fil12" d="m7287 16677c1457 0 2791 67 3823 180v610c0 272-1712 492-3823 492s-3822-220-3822-492h-1v-610c1033-113 2366-180 3823-180z"/>
   <path class="fil13" d="m6072 16204c157 0 264 53 412 67s337-11 473 15c136 27 265 60 386 98s181 121 283 168c103 48 249 61 331 117s152 116 209 179c58 63 103 129 133 198s46 140 46 213c0 519-4547 641-4547 0 0-73 16-144 47-213 30-69 101-108 159-171 57-64 101-150 183-206 81-56 181-76 284-123 103-48 209-124 330-162s237-97 373-124 292-21 440-35 301-21 458-21z"/>
   <path class="fil11" d="m5142 16566c46 0 82 33 121 41 113 23 125 47 125 107s-24 83-135 106c-40 9-64 41-111 41-44 0-86-4-124-11-27-5-36-35-59-43-28-10-67 1-86-13-33-23-51-51-51-80 0-36 27-68 73-94 32-18 72-4 119-13 39-8 82-41 128-41z"/>
   <path class="fil11" d="m4307 16995c42 17 64 60 98 82 96 63 99 90 77 146-22 55-53 69-165 49-40-6-74 15-118-2-41-16-78-35-111-56-23-15-21-46-39-62-23-19-63-24-76-43-22-34-29-66-18-94 13-33 50-53 102-60 36-5 69 23 116 31 39 7 91-7 134 9z"/>
   <path class="fil11" d="m7292 16614c-40 23-87 12-125 24-110 35-132 20-162-33-29-52-19-84 67-158 31-27 36-67 77-90 12-7 23-13 35-19 57 15 113 31 166 48 51 17 90 42 127 68-20 26-59 35-92 63-31 26-53 75-93 97z"/>
   <path class="fil11" d="m6006 16570c16 43-1 88 5 128 19 113 1 134-55 155-56 22-86 8-148-88-22-35-61-46-78-90-15-41-26-81-33-119-5-27 19-47 19-71-1-29-25-62-19-85 10-38 29-66 57-76 33-13 73 1 114 35 27 23 29 66 54 106 22 34 68 63 84 105z"/>
   <path class="fil11" d="m6023 17425c-54-15-82-62-125-83-123-60-127-90-98-157 28-65 68-84 210-74 52 3 96-25 152-10 52 13 100 31 141 51 30 14 27 50 50 66 28 19 80 20 96 41 28 35 37 72 23 104-17 39-65 66-131 80-46 10-88-18-147-22-50-4-117 18-171 4z"/>
   <path class="fil11" d="m8070 17099c0-56 38-94 47-141 12-62 25-98 42-118 120 128 186 270 186 419 0 65-72 124-198 176-4-7-9-15-13-23-21-42-5-90-16-148-10-50-48-109-48-165z"/>
   <path class="fil11" d="m6937 17146c-13 22-38 30-54 47-43 48-58 47-87 30s-33-36-12-96c7-21-2-42 12-65 12-21 26-40 41-56 10-12 27-8 37-16 13-11 19-33 31-38 20-9 39-10 53-2 17 10 25 33 24 62 0 21-18 36-27 61-8 21-5 51-18 73z"/>
   <path class="fil11" d="m4922 17202c1-26 20-45 25-67 15-63 28-69 62-69 33 1 46 15 57 78 4 22 22 36 21 63 0 24-3 47-8 69-3 14-20 19-25 32-6 15-1 37-9 48-13 18-29 28-45 27-20 0-38-16-52-42-9-18-1-41-5-67-4-22-21-47-21-72z"/>
   <path class="fil14" d="m8475 15757c-146-58-265-48-408-89-142-42-309-135-445-161-136-25-268-43-394-52s-213 46-326 52-253-36-350-14c-96 22-184 52-260 89-77 38-143 83-196 136-54 52-95 112-122 180-192 483 3986 2273 4223 1677 27-67 38-139 35-214-2-75-54-138-84-218s-39-177-94-259-141-137-219-219-148-192-246-272c-99-80-185-178-301-253s-263-127-396-194c-132-68-271-131-417-189z"/>
   <path class="fil11" d="m9205 16437c-43-17-88 0-128-7-113-21-134-3-156 53-22 55-8 86 86 149 35 22 45 61 89 79 40 16 81 27 119 35 27 5 47-19 71-18 29 0 62 25 85 19 38-9 66-28 77-55 13-33-1-74-34-114-23-29-66-31-105-57-34-21-62-67-104-84z"/>
   <path class="fil11" d="m9822 17143c-46 0-82 32-121 40-113 22-126 46-126 107 0 59 24 83 135 107 40 8 64 41 111 41 44 0 86-4 124-11 26-5 36-35 59-43 28-10 67 1 86-13 33-22 51-50 51-79 1-36-27-69-72-94-32-18-73-5-119-14-39-8-83-41-128-41z"/>
   <path class="fil11" d="m7190 15688c29 35 76 43 107 68 89 73 116 68 163 30 46-38 49-72-3-172-19-37-9-76-39-113-9-10-17-20-26-30-58-7-116-12-172-16-53-3-99 5-143 16 10 31 42 54 63 92 18 36 21 90 50 125z"/>
   <path class="fil11" d="m8401 16122c-31 33-32 82-52 116-60 98-51 124-6 165 44 40 77 38 169-28 34-24 74-20 106-54 29-32 55-66 75-99 14-23-1-50 8-72 12-28 46-49 49-73 5-39-2-72-24-92-26-24-69-25-119-9-34 11-52 51-90 78-32 24-85 34-116 68z"/>
   <path class="fil11" d="m8070 16909c55 6 98-27 146-31 136-10 151-37 149-109s-32-103-168-147c-49-16-80-59-137-65-53-7-104-8-150-5-32 2-43 36-70 43-34 8-82-11-105 3-39 22-61 52-60 88 1 42 36 85 92 122 40 26 89 16 145 34 48 15 102 60 158 67z"/>
   <path class="fil11" d="m6289 15852c21-52-1-102 8-149 12-63 13-101 5-125-159 75-273 182-328 320-24 61 21 142 119 237 7-5 14-11 21-17 35-32 37-82 69-132 27-42 85-83 106-134z"/>
   <path class="fil11" d="m7323 16313c4 25 25 42 33 63 22 60 37 65 70 60s44-21 47-84c1-23 17-39 13-65-4-24-10-47-18-67-5-15-22-18-28-29-8-15-6-37-15-47-16-16-33-23-49-21-20 3-35 21-45 49-7 19 4 40 3 67-1 22-15 49-11 74z"/>
   <path class="fil11" d="m9174 17108c9-24-2-49 2-71 9-64-1-75-32-87-32-11-49-3-82 51-12 19-34 26-43 50-8 23-14 46-18 68-2 15 12 25 12 39 0 16-14 35-10 48 6 21 17 36 32 42 19 7 41-2 63-21 16-13 16-37 30-60 12-19 37-35 46-59z"/>
   <path class="fil15" d="m5649 15051c-105 46-161 112-256 164s-228 90-312 147c-83 57-160 116-230 176-70 61-86 133-141 195-55 61-148 112-187 173-38 61-68 121-88 180-21 59-31 116-32 171 0 54 10 106 31 155 150 348 3224-882 3039-1311-21-49-52-91-92-129-41-37-100-43-156-69-57-25-111-70-182-84s-143 2-225-1c-83-2-176-22-268-13-91 10-186 4-284 25-99 22-202 70-305 104-103 33-207 72-312 117z"/>
   <path class="fil11" d="m6375 15026c-30 13-45 45-69 62-69 47-71 67-53 107 17 40 40 49 121 33 29-6 55 8 86-5 30-13 56-28 80-43 16-12 14-34 27-46 15-15 45-19 54-34 15-25 19-48 11-68-10-24-38-38-76-42-27-2-50 19-84 26-28 6-66-3-97 10z"/>
   <path class="fil11" d="m7057 15072c-24 23-26 58-42 83-46 69-41 88-10 119s55 31 125-14c25-16 54-12 78-36 23-22 42-46 58-69 12-17 1-37 9-53 9-19 35-34 38-51 5-28 0-52-15-67-18-19-49-22-86-11-25 7-39 35-68 54-24 16-63 21-87 45z"/>
   <path class="fil11" d="m4952 15678c33 3 61-18 90-20 84-9 95-25 99-69 4-43-11-62-90-87-29-9-44-34-78-38-10-1-19-1-29-2-33 27-66 53-97 80-29 26-48 54-65 82 21 11 49 6 80 15 28 9 57 36 90 39z"/>
   <path class="fil11" d="m5799 15277c1 34 26 59 33 87 20 82 38 90 82 88 43-2 60-20 73-101 5-30 28-49 26-83-1-32-5-62-12-89-4-20-26-26-33-42-8-20-2-49-12-62-18-23-38-36-60-35-26 1-49 22-66 56-12 24-1 53-6 87-4 29-27 61-25 94z"/>
   <path class="fil11" d="m6034 15853c32-25 37-64 59-90 65-76 59-98 21-134s-70-36-162 11c-34 17-72 11-105 37-30 24-57 50-79 75-16 18-4 41-15 58-13 22-47 37-52 56-8 31-4 58 15 76 22 21 62 26 110 16 34-7 54-38 92-58 33-17 84-21 116-47z"/>
   <path class="fil11" d="m4572 16226c-16-37-53-52-73-81-26-38-44-58-62-66-43 120-46 234-3 333 19 44 84 63 183 61 1-6 1-13 2-19 2-35-23-62-32-104-8-36 1-86-15-124z"/>
   <path class="fil11" d="m5342 15931c15 11 35 9 50 16 42 19 52 14 67-6 14-19 12-33-19-67-12-12-12-29-27-40s-30-19-44-26c-10-5-20 3-30 0-11-3-22-16-31-16-16 0-29 4-36 14-9 12-7 29 2 48 6 14 22 19 36 33 11 12 17 33 32 44z"/>
   <path class="fil11" d="m6705 15387c-8-17-26-24-36-37-27-38-38-39-61-28-22 10-26 23-16 68 4 16-4 31 4 48 8 16 16 31 26 44 6 9 19 7 26 14 8 9 11 25 19 30 14 8 28 10 39 5 13-6 20-22 22-43 1-15-11-28-16-47-4-15 1-37-7-54z"/>
    <path class="fil16" d="m20321 22885c0 184-1158 333-2587 333-1428 0-2586-149-2586-333l-679-10787h6531l-679 10787z"/>
    <path class="fil17" d="m20020 22276c0 163-1023 294-2286 294-1262 0-2285-131-2285-294l-589-9979c552 132 1632 221 2874 221s2323-89 2875-221l-589 9979z"/>
    <path class="fil8" d="m15484 15893c0 130-615-77-560-200l-199-3182c49 56 349 245 702 246l57 3136z"/>
    <ellipse class="fil18" cx="17734" cy="17532" rx="2584" ry="333"/>
    <path class="fil8" d="m20020 22276c0 163-1023 294-2286 294-1262 0-2285-131-2285-294l-298-4737c174 164 1264 290 2583 290 1320 0 2410-126 2584-290l-298 4737z"/>
    <ellipse class="fil19" cx="17734" cy="12098" rx="3266" ry="421"/>
    <ellipse class="fil18" cx="17768" cy="12111" rx="3061" ry="340"/>
</svg>